<?xml version="1.0" encoding="UTF-8"?>
<svg width="60px" height="60px" viewBox="0 0 60 60" version="1.1" xmlns="http://www.w3.org/2000/svg" xmlns:xlink="http://www.w3.org/1999/xlink">
    <!-- Generator: Sketch 50 (54983) - http://www.bohemiancoding.com/sketch -->
    <title>icon-category-cross-category</title>
    <desc>Created with Sketch.</desc>
    <defs></defs>
    <g id="icon-category-cross-category" stroke="none" stroke-width="1" fill="none" fill-rule="evenodd">
        <g id="icon" fill="#000000">
            <path d="M60,29.9992889 C60,46.5675887 46.5701147,60 30,60 C13.4327297,60 0,46.5675887 0,29.9992889 C0,13.4324113 13.4327297,0 30,0 C46.5701147,0 60,13.4324113 60,29.9992889 Z M48.7281748,24.8805311 C47.7233026,23.8668782 46.5763221,23.0072372 45.3238566,22.3290566 C45.3238566,22.1269596 45.3238566,21.9248627 45.3238566,21.7177132 C45.3238566,13.5893447 38.7849859,7 30.71888,7 C22.6527742,7 16.1139035,13.5893447 16.1139035,21.7177132 C16.1139035,21.8238142 16.1139035,21.9299151 16.1139035,22.036016 C11.2740991,24.454471 8.1550485,29.3683386 8.00561177,34.8101184 C7.85617505,40.2518981 10.7007793,45.3320717 15.400452,48.0165502 C20.1001247,50.7010286 25.886653,50.5510045 30.4431252,47.6265473 C36.7112899,51.7266311 45.0395696,50.3972344 49.7434624,44.5457423 C54.4473553,38.6942502 54.009249,30.208524 48.7281748,24.8805311 Z M30.7339212,34.9853806 C28.8754134,34.9870568 27.0379351,34.5891648 25.3441685,33.8182705 C25.731539,30.2151046 27.5761798,26.9323633 30.4431252,24.7441157 C33.3671369,26.982716 35.2287144,30.3517265 35.5771781,34.0355247 C34.0346326,34.6544502 32.3892289,34.9716677 30.7289075,34.9702233 L30.7339212,34.9853806 Z M35.6273153,35.5765143 C35.5418618,39.6131347 33.6329381,43.3897569 30.4431252,45.8329365 C27.1873964,43.3486132 25.2698489,39.4745709 25.2589352,35.35926 C28.5715539,36.7111518 32.2617947,36.7884754 35.6273153,35.5765143 Z M23.9603808,33.0503019 C20.384235,30.8814926 18.0403931,27.1323908 17.6430892,22.9454525 C21.4189511,21.4304144 25.6786497,21.7663554 29.1746532,23.8548889 C28.791981,24.1728486 28.4255111,24.5101076 28.0766478,24.8653739 C25.867689,27.0772638 24.4243527,29.9472437 23.9603808,33.0503019 Z M31.7065836,23.880151 C35.3912347,21.6952091 39.8975378,21.4429264 43.7996846,23.2031261 C43.3103037,27.5198033 40.7561396,31.3221257 36.9609658,33.383762 C36.4787756,29.6557309 34.5986543,26.2551519 31.7065836,23.880151 Z M30.7289075,8.46520317 C37.9624163,8.47062156 43.8358163,14.357768 43.8799042,21.6469793 C39.4578763,19.8525517 34.4461578,20.3368629 30.4431252,22.9454525 C26.6323358,20.4434352 21.8792648,19.8825734 17.5979656,21.429725 C17.7584979,14.2334254 23.5859417,8.47983795 30.7289075,8.46520317 Z M22.4863461,48.5410361 C16.4587108,48.5468855 11.1993827,44.4210585 9.72631457,38.5310729 C8.25324647,32.6410872 10.9438945,26.4961811 16.2542878,23.6224774 C16.8663833,28.3157697 19.6768407,32.4277456 23.8099691,34.6771827 C23.8099691,34.8792797 23.8099691,35.0864291 23.8099691,35.2885261 C23.798932,39.1867773 25.3330814,42.928077 28.071634,45.6813637 C28.4204973,46.03663 28.7869672,46.373889 29.1696395,46.6918487 C27.14768,47.9032732 24.8386793,48.5421461 22.4863461,48.5410361 Z M47.7003615,44.6708788 C43.4482895,48.9371071 36.872284,49.7680496 31.7065836,46.6918487 C35.113694,43.9016053 37.0917042,39.7127507 37.0913226,35.2885261 C37.0913226,35.1824252 37.0913226,35.0763242 37.0913226,34.9702233 C41.4220321,32.8524998 44.4435072,28.7254007 45.1734449,23.9306753 C48.6486336,26.0297715 50.9691573,29.6264376 51.4629001,33.6789365 C51.956643,37.7314353 50.5684369,41.7869633 47.7003615,44.6708788 Z" id="Combined-Shape"></path>
        </g>
    </g>
</svg>