<?xml version="1.0" encoding="utf-8"?>
<!-- Generator: Adobe Illustrator 18.1.1, SVG Export Plug-In . SVG Version: 6.00 Build 0)  -->
<svg version="1.1" id="Layer_1" xmlns="http://www.w3.org/2000/svg" xmlns:xlink="http://www.w3.org/1999/xlink" x="0px" y="0px"
	 viewBox="0 0 50 50" enable-background="new 0 0 50 50" xml:space="preserve">
<circle fill="#8661A8" cx="25" cy="25" r="25"/>
<path fill="#FFFFFF" d="M33.8,14.3c-0.2,0-1.3-0.8-1.9-0.7c-0.7,0.1-1.2,0.4-2,1.3c-0.8,1-2.5,1.5-4.5,1.7c-2,0.2-3.9-0.6-4.8-1.4
	c-0.9-0.8-1.2-2.1-3.2-1.4c0,0-5.7,2.9-6.9,3.4S8.5,18.7,9,19.8s1,1.8,1.3,2.5c0.3,0.8,1.3,2,2.8,1.3c1.5-0.6,2.7-1.2,3.8-1.3
	c0,0-0.4,5.5-0.8,7.5c-0.2,1.5-0.6,3.6-0.3,5c0.2,0.8,0.8,1.2,1.7,1.3h13.9c0,0,3.4,0.4,3-2.3s-1-7.8-1-7.8s-0.3-3.4,0-3.8
	c0,0,3.6,1.3,3.8,1.3c0.2,0.1,2,0.4,2.6-1.3c0,0,1-2.1,1.3-2.9c0.2-0.8,0.4-1.1,1-1c0.6,0.1,0.6,0.6,0.3,1.5s-1.2,3.2-1.7,3.8
	c-0.7,0.9-1.5,1.8-3.6,1.1c-2.2-0.6-2.2-0.6-2.2-0.6s-0.2,2.6,0.7,7.8s-1,5.4-2.6,5.6c-1.6,0.2-14.8,0.1-15.3,0
	c-0.6-0.1-3.8-0.3-3.4-4c0.4-3.7,1.2-8.8,1.1-9.5c0,0-2.3,1-2.7,1.1c-0.4,0.1-2.9,0.6-3.7-2.3c0,0-0.9-2-1.1-2.3S7,18.3,8.3,17.3
	c1.1-0.8,1.3-1,3.6-2s4-2.1,4-2.1s2.7-1.7,4.4-0.2c0,0,0.8,1,1.3,1.3c0.5,0.4,1.3,1.2,3.7,1.1s3.1-0.7,3.6-1.1c0.5-0.4,1.4-1.9,3-2
	c0.8,0,1.4,0.1,2.5,0.7c0,0,0.3,0.2,0.2,0.6C34.4,13.9,34.2,14.2,33.8,14.3z"/>
<path fill="#FFFFFF" d="M41.3,16c-0.2-1.5-0.7-1.7-2-3.3s-1.4-3.2-1.4-3.2s-0.1,1.6-1.4,3.2c-1.3,1.6-1.8,1.8-2,3.3
	c-0.2,1.5,0.4,2.3,1.3,2.9c0.9,0.6,1.9,0.6,2.1,0.6c0.2,0,1.2,0,2.1-0.6C40.9,18.3,41.5,17.5,41.3,16z"/>
</svg>
