<?xml version="1.0" encoding="iso-8859-1"?>
<!-- Generator: Adobe Illustrator 18.0.0, SVG Export Plug-In . SVG Version: 6.00 Build 0)  -->
<!DOCTYPE svg PUBLIC "-//W3C//DTD SVG 1.1//EN" "http://www.w3.org/Graphics/SVG/1.1/DTD/svg11.dtd">
<svg version="1.1" id="Layer_1" xmlns="http://www.w3.org/2000/svg" xmlns:xlink="http://www.w3.org/1999/xlink" x="0px" y="0px"
	 viewBox="0 0 65 65" style="enable-background:new 0 0 65 65;" xml:space="preserve">
<g>
	<circle style="fill:#fff;" cx="32.994" cy="32.5" r="27.5"/>
	<g>
		<path style="fill:#E8503E;" d="M33.173,23.743v-3.055c-2.163-1.512-5.924-4.916-10.207-4.916c-4.436,0-8.315,2.817-10.435,4.726
			v3.434c2.12,1.909,5.998,4.726,10.435,4.726C27.248,28.659,31.01,25.255,33.173,23.743z"/>
		<path style="fill:#E8503E;" d="M37.96,27.394v-2.613h1.426v-1.633l1.996,0.476V20.83l-1.996,0.476v-1.543h-6.272v5.018h1.426
			v2.613c-6.971,0.817-12.373,6.559-12.373,13.524c0,4.798,2.565,9.013,6.437,11.442h15.294c3.872-2.428,6.437-6.644,6.437-11.442
			C50.333,33.953,44.931,28.211,37.96,27.394z"/>
	</g>
</g>
<g>
</g>
<g>
</g>
<g>
</g>
<g>
</g>
<g>
</g>
<g>
</g>
<g>
</g>
<g>
</g>
<g>
</g>
<g>
</g>
<g>
</g>
<g>
</g>
<g>
</g>
<g>
</g>
<g>
</g>
</svg>
