<?xml version="1.0" encoding="iso-8859-1"?>
<!-- Generator: Adobe Illustrator 18.0.0, SVG Export Plug-In . SVG Version: 6.00 Build 0)  -->
<!DOCTYPE svg PUBLIC "-//W3C//DTD SVG 1.1//EN" "http://www.w3.org/Graphics/SVG/1.1/DTD/svg11.dtd">
<svg version="1.1" id="Layer_1" xmlns="http://www.w3.org/2000/svg" xmlns:xlink="http://www.w3.org/1999/xlink" x="0px" y="0px"
	 viewBox="0 0 65 65" style="enable-background:new 0 0 65 65;" xml:space="preserve">
<g>
	<circle style="fill:#EF4C45;stroke:#EF4C45;stroke-width:5;" cx="32.52" cy="32.5" r="27.5"/>
	<g>
		<path style="fill:#FFFFFF;" d="M48.881,19.585c0.377,2.298-0.48,2.955,0.361,4.361c0.646,1.08,1.675,1.977,2.291,3.055
			c0.489,0.855-0.578,1.186-1.021,1.675c-0.886,0.98,1.101,1.233,0.191,2.178c-0.177,0.184-0.418,0.286-0.664,0.34
			c-0.204,0.045-0.562,0.106-0.765,0.047c0.464,0.032,0.798,0.239,0.956,0.694c0.167,0.479-0.211,0.599-0.482,0.892
			c-0.499,0.542-0.244,1.211-0.09,1.821c0.479,1.898-3.479,1.366-4.392,1.287c-0.87-0.076-1.78-0.272-2.656-0.233
			c-1.551,0.069-2.913,1.146-4.158,1.975c-1.653,1.099-3.103,2.504-4.471,3.927c-1.392,1.448-3.471,3.716-3.29,5.888
			c-1.351-3.188-0.394-6.882,1.55-9.606c3.03-4.246,8.809-5.906,11.228-10.659c1.905-3.743,2.342-10.593,1.387-13.103
			c0.659,0.289,2.124,1.589,2.57,2.142C48.186,17.211,48.691,18.431,48.881,19.585z"/>
		<path style="fill:#FFFFFF;" d="M43.676,22.901c-0.684,2.354-2.97,4.544-4.777,6.114c-2.723,2.367-6.129,3.733-8.985,5.913
			c-2.897,2.211-4.601,5.896-4.335,9.529c0.189,2.591,1.215,6.452,4.356,6.71c0.05-0.001,0.048-0.003-0.004-0.004
			c-1.831,0.272-3.297-0.879-4.578-2.054c-4.005-3.674-2.035-9.954,0.968-13.585c3.641-4.402,9.796-5.462,13.521-9.787
			c2.477-2.876,4.863-8.704,3.734-12.367C45.11,16.404,44.634,19.603,43.676,22.901z"/>
		<path style="fill:#FFFFFF;" d="M31.524,27.51c-3.635,1.818-7.249,3.627-9.601,7.082c-2.067,3.037-3.074,6.845-2.386,10.489
			c0.414,2.19,3.691,5.879,7.074,6.638c-6.352-0.483-8.943-6.558-8.396-10.8c0.655-5.084,2.952-8.657,7.22-11.475
			c6.245-4.124,18.024-6.641,17.424-16.325c1.115,2.535-0.35,6.507-2.048,8.396C38.245,24.368,34.935,25.805,31.524,27.51z"/>
		<path style="fill:#FFFFFF;" d="M23.173,21.094c-0.026,0.026-0.052,0.052-0.078,0.078L23.173,21.094z"/>
		<path style="fill:#FFFFFF;" d="M38.195,20.395c2.488-2.215,3.893-4.552,3.739-7.87c-1.997-1.958-6.928-1.305-9.592-0.507
			c-3.161,0.946-6.706,2.671-9.252,4.764c-5.449,4.479-9.96,11.466-10.426,18.763c-0.147,2.306,0.181,5.117,1.394,7.132
			c0.996,1.654,3.207,3.438,2.82,5.589c-0.194,1.078-1.429,2.241-2.289,1.152c-0.255-0.322-0.401-0.914-0.246-1.306
			c0.081-0.206,1.12-0.975,1.133-0.731c0.003,0.061,0.101,0.051,0.135,0.059c-1.742-1.326-3.153,1.836-1.939,3.095
			c1.502,1.557,4.303,0.986,4.421-1.333c0.12-2.359-1.044-4.394-1.211-6.689c-0.281-3.883,1.199-7.63,3.711-10.559
			c2.032-2.369,4.589-4.083,7.356-5.483C31.492,24.678,35.195,23.065,38.195,20.395z"/>
	</g>
</g>
<g>
</g>
<g>
</g>
<g>
</g>
<g>
</g>
<g>
</g>
<g>
</g>
<g>
</g>
<g>
</g>
<g>
</g>
<g>
</g>
<g>
</g>
<g>
</g>
<g>
</g>
<g>
</g>
<g>
</g>
</svg>
