<?xml version="1.0" encoding="UTF-8"?>
<svg width="16px" height="18px" viewBox="0 0 16 18" version="1.1" xmlns="http://www.w3.org/2000/svg" xmlns:xlink="http://www.w3.org/1999/xlink">
    <!-- Generator: Sketch 55 (78076) - https://sketchapp.com -->
    <title>icon-closed-YES</title>
    <desc>Created with Sketch.</desc>
    <g id="icon-closed-YES" stroke="none" stroke-width="1" fill="none" fill-rule="evenodd">
        <path d="M15.8821282,5.08630777 C15.6267394,4.32077876 15.2141883,3.69265239 14.4873124,3.28044446 C12.8371078,2.31862596 11.1869031,1.37643641 9.5366985,0.414617905 C9.08485675,0.159441568 8.61336971,0.0220389247 8.10259209,0.00240997565 C7.53287858,-0.0172189733 7.00245566,0.0809257716 6.51132333,0.375360007 C4.8414734,1.33717851 3.17162347,2.27936806 1.52141883,3.26081551 C0.539154161,3.84968398 0.00873124147,4.73298668 0.00873124147,5.89109468 C-0.0109140518,7.79510273 0.00873124147,9.71873973 0.00873124147,11.6227478 C0.00873124147,11.917182 0.0480218281,12.2116163 0.146248295,12.4864215 C0.401637108,13.2323216 0.833833561,13.840819 1.52141883,14.233398 C3.15197817,15.1755876 4.80218281,16.1177771 6.43274216,17.0599667 C6.86493861,17.315143 7.31678035,17.4525456 7.80791269,17.4918035 C8.41691678,17.5310614 8.98663029,17.4329167 9.51705321,17.1188535 C11.1672578,16.157035 12.8174625,15.1952165 14.4676671,14.2530269 C14.9391542,13.9978506 15.2927694,13.6249006 15.5481583,13.1734348 C15.8035471,12.7415979 16,12.2705031 16,11.7601504 C16,10.759074 16,9.73836868 16,8.73729228 C16,7.81473168 16,6.85291318 16,5.89109468 C16,5.61628939 15.9607094,5.3414841 15.8821282,5.08630777 Z M11.5371705,7.12945368 L7.16878858,11.4049881 C7.09833081,11.476247 7.00438711,11.5 6.93392934,11.5 C6.83998564,11.5 6.76952787,11.476247 6.6990701,11.4049881 L4.60882284,9.40973872 C4.46790729,9.2672209 4.46790729,9.05344418 4.58533692,8.91092637 C4.72625246,8.76840855 4.93762578,7.76840855 5.07854132,7.8871734 L6.91044341,9.64489311 L11.0439661,5.60688836 C11.1848816,5.46437055 11.3962549,6.46437055 11.5371705,6.60688836 C11.678086,6.77315914 11.678086,6.98693587 11.5371705,7.12945368 Z" fill="#7F7F74" fill-rule="nonzero"></path>
    </g>
</svg>