<?xml version="1.0" encoding="UTF-8"?>
<svg width="16px" height="18px" viewBox="0 0 16 18" version="1.1" xmlns="http://www.w3.org/2000/svg" xmlns:xlink="http://www.w3.org/1999/xlink">
    <!-- Generator: Sketch 55 (78076) - https://sketchapp.com -->
    <title>icon-closed-NO</title>
    <desc>Created with Sketch.</desc>
    <g id="icon-closed-NO" stroke="none" stroke-width="1" fill="none" fill-rule="evenodd">
        <g fill-rule="nonzero" id="Shape">
            <path d="M11.5371705,7.12945368 L7.16878858,11.4049881 C7.09833081,11.476247 7.00438711,11.5 6.93392934,11.5 C6.83998564,11.5 6.76952787,11.476247 6.6990701,11.4049881 L4.60882284,9.40973872 C4.46790729,9.2672209 4.46790729,9.05344418 4.58533692,8.91092637 C4.72625246,8.76840855 4.93762578,7.76840855 5.07854132,7.8871734 L6.91044341,9.64489311 L11.0439661,5.60688836 C11.1848816,5.46437055 11.3962549,6.46437055 11.5371705,6.60688836 C11.678086,6.77315914 11.678086,6.98693587 11.5371705,7.12945368 Z" fill="#7F7F74"></path>
            <path d="M15.1677647,5.31496324 C14.9455459,4.65351453 14.6213581,4.21866642 14.1096438,3.92841546 C13.4233396,3.52840441 12.8739152,3.21062422 11.6372246,2.49717669 C10.3986082,1.78261818 9.84789621,1.46409328 9.16788832,1.06767154 C8.81652502,0.869240118 8.46114925,0.766742769 8.07676686,0.751965215 C7.60556297,0.735730324 7.22958579,0.819211296 6.88566058,1.02526125 C6.63120318,1.17182641 6.36557144,1.32438501 6.04948149,1.50558028 C5.85215591,1.61869511 5.63190787,1.74483969 5.21498835,1.98360803 C3.68664825,2.85907404 2.83494062,3.35222854 1.90705451,3.90407682 C1.13523034,4.36678605 0.758731241,5.01425979 0.758691323,5.89883266 C0.75004193,6.73712572 0.748387084,7.59582758 0.751361787,8.75499656 C0.752043571,9.02067122 0.752724511,9.23291735 0.754361225,9.71108306 C0.757642138,10.6694052 0.758731241,11.0928349 0.758731241,11.6227478 C0.758731241,11.8541264 0.790059093,12.059327 0.855809357,12.2434748 C1.06887046,12.8657507 1.40428454,13.3028833 1.89665348,13.5840145 C2.57530269,13.9761598 3.12090451,14.2900081 4.35062687,14.9963262 C5.5814775,15.7032924 6.12782656,16.0175705 6.81405378,16.4141327 C7.14111152,16.6072333 7.48163974,16.7133312 7.85615939,16.743357 C8.35803166,16.7757089 8.76748134,16.6910656 9.1401623,16.4704298 L9.13938459,16.4708825 C11.6166229,15.027029 12.7180395,14.3883459 14.1106846,13.5934335 C14.438789,13.4158582 14.6976591,13.1536602 14.9026025,12.7916524 C15.1365943,12.3959957 15.25,12.0663627 15.25,11.7601504 C15.25,11.0068895 15.25,11.0068895 15.25,10.2487214 C15.25,9.4905532 15.25,9.4905532 15.25,8.73729228 C15.25,7.33382243 15.25,7.33382243 15.25,5.89109468 C15.25,5.6904615 15.221706,5.49316744 15.1677647,5.31496324 Z" stroke="#7F7F74" stroke-width="1.5"></path>
        </g>
    </g>
</svg>