<svg width="80" height="27" xmlns="http://www.w3.org/2000/svg">
 <title>IFF-logo</title>

 <g>
  <title>background</title>
  <rect x="-1" y="-1" width="82" height="29" id="canvas_background" fill="none"/>
 </g>
 <g>
  <title>Layer 1</title>
  <path stroke="null" d="m78.724155,10.479754c0,0.125839 -0.096626,0.229206 -0.223214,0.229206l-6.878426,0c-0.119846,0 -0.223214,-0.097375 -0.223214,-0.229206l0,-1.584967c-0.011236,-0.108611 -0.102618,-0.19475 -0.211978,-0.19475l-6.157851,0c-0.113854,0.005992 -0.205986,0.097375 -0.205986,0.211978l0,2.501042c0.011236,0.113854 0.102618,0.200742 0.217221,0.200742l4.057545,0.005992c0.113854,0 0.217221,0.102618 0.217221,0.223214l0,3.868787c0,0.119846 -0.102618,0.217221 -0.217221,0.217221l-4.057545,0.005992c-0.119846,0.011236 -0.211978,0.102618 -0.211978,0.217221l0,2.483814c0.028463,0.068163 0.08539,0.119846 0.166287,0.131082l4.205855,0c0.119846,0 0.217221,0.102618 0.217221,0.223214l0,6.73536c0,0.119846 -0.102618,0.223214 -0.217221,0.223214l-17.505044,0c-0.119846,0 -0.223214,-0.097375 -0.223214,-0.223214l0,-6.73536c0,-0.119846 0.096626,-0.223214 0.223214,-0.223214l2.947469,0c0.08539,-0.017228 0.155051,-0.080147 0.166287,-0.172279l0,-9.700057c-0.005992,-0.102618 -0.102618,-0.19475 -0.211978,-0.19475l-2.901028,0c-0.119846,0 -0.223214,-0.102618 -0.223214,-0.223214l0,-6.386307c0,-0.125839 0.096626,-0.229206 0.223214,-0.229206l26.799121,0c0.125839,0 0.223214,0.096626 0.223214,0.229206l0,8.389238l0.005243,0zm-29.72337,-8.389987c0,-0.125839 -0.102618,-0.229206 -0.223214,-0.229206l-26.799121,0c-0.119846,0 -0.217221,0.096626 -0.217221,0.229206l0,6.386307c0,0.119846 0.097375,0.223214 0.217221,0.223214l2.907021,0c0.108611,0 0.200742,0.091383 0.205986,0.19475l0,9.7053c-0.011236,0.091383 -0.080147,0.149059 -0.166287,0.172279l-2.947469,0c-0.119846,0 -0.217221,0.102618 -0.217221,0.223214l0,6.729367c0,0.119846 0.097375,0.223214 0.217221,0.223214l17.493808,0c0.119846,0 0.223214,-0.097375 0.223214,-0.223214l0,-6.73536c0,-0.119846 -0.097375,-0.223214 -0.223214,-0.223214l-4.205855,0c-0.074155,-0.011236 -0.137823,-0.062919 -0.166287,-0.131082l0,-2.483814c0,-0.113854 0.097375,-0.205986 0.211978,-0.217221l4.063537,-0.005992c0.113854,0 0.217221,-0.097375 0.217221,-0.217221l0,-3.868787c0,-0.119846 -0.102618,-0.223214 -0.217221,-0.223214l-4.057545,-0.005992c-0.113854,0 -0.205986,-0.08539 -0.217221,-0.200742l0,-2.501042c0.005992,-0.113854 0.091383,-0.205986 0.205986,-0.211978l6.163094,0c0.108611,0 0.19475,0.08539 0.205986,0.19475l0,1.584967c0,0.125839 0.102618,0.229206 0.223214,0.229206l6.884418,0c0.113854,0 0.223214,-0.097375 0.223214,-0.229206l-0.005992,-8.389238l0.000749,0.000749zm-32.9742,6.61027l2.929492,0c0.119846,0 0.217221,-0.102618 0.217221,-0.223214l0,-6.386307c0,-0.125839 -0.097375,-0.229206 -0.217221,-0.229206l-17.505044,0c-0.125839,0 -0.223214,0.096626 -0.223214,0.229206l0,6.386307c0,0.119846 0.097375,0.223214 0.223214,0.223214l2.907021,0c0.113854,0 0.200742,0.091383 0.211978,0.19475l0,9.7053c-0.017228,0.091383 -0.080147,0.149059 -0.166287,0.172279l-2.953461,0c-0.125839,0 -0.223214,0.102618 -0.223214,0.223214l0,6.729367c0,0.119846 0.097375,0.223214 0.223214,0.223214l17.499801,0c0.119846,0 0.217221,-0.097375 0.217221,-0.223214l0,-6.73536c0,-0.119846 -0.097375,-0.223214 -0.217221,-0.223214l-2.970689,0c-0.074155,-0.011236 -0.131082,-0.062919 -0.160294,-0.131082l0,-9.722528c0,-0.113854 0.091383,-0.205986 0.205986,-0.211978l0.001498,-0.000749z" id="svg_1" fill="#ffffff"/>
 </g>
</svg>