<?xml version="1.0" encoding="utf-8"?>
<!-- Generator: Adobe Illustrator 22.0.1, SVG Export Plug-In . SVG Version: 6.00 Build 0)  -->
<svg version="1.1" id="Layer_1" xmlns="http://www.w3.org/2000/svg" xmlns:xlink="http://www.w3.org/1999/xlink" x="0px" y="0px"
	 viewBox="0 0 8 14" style="enable-background:new 0 0 8 14;" xml:space="preserve">
<style type="text/css">
	.st0{fill:#FFF;}
</style>
<path class="st0" d="M7.5,10.2C7.3,9.4,6.7,8.7,6.4,8.5C6.2,8.4,6.1,8.6,6,8.7C5.9,8.9,6.1,9,6.1,9c0.1,0.1,0.5,0.5,0.6,1.2
	c0.1,0.1,0.1,0.3,0.1,0.4c-0.1,0.2-0.1,0.4-0.4,0.5c-0.1,0-0.3,0.1-0.7-0.1c-0.4-0.2-0.9-0.5-1.3-0.6c-0.6-0.2-1.2-0.2-1.5-0.1
	c-0.3,0.2-0.5,0.3-0.5,0.5c0,0.1,0,0.3,0.2,0.4c0.2,0.1,0.6,0.1,0.8,0.1c0.6-0.1,1.4-0.1,1.9,0.1c0.2,0.1,0.4,0.1,0.7,0.2
	c-0.1,0.1-0.3,0.1-0.4,0C5,11.5,4.4,11.5,4,11.5c-0.2,0-1,0.1-1.6,0.1c-0.5-0.1-0.7-0.2-0.8-0.3c-0.2-0.1-0.3-0.3-0.5-0.6
	c-0.2-0.5,0.1-1.2,0.1-1.2l0.4-0.9l1.2-2C4.4,4,4.9,2.9,4.9,2.9C5,2.7,5.1,2.4,5.2,2.2c0-0.1,0-0.4,0-0.5c0-0.3,0-0.6-0.1-0.8
	c0-0.1-0.1-0.1-0.3-0.1L4.6,0.9C4.5,1,4.5,1,4.6,1.3c0,0.3,0,0.5-0.1,0.9c0,0.2-0.8,1.5-1.1,2S1,8.3,0.9,8.5c0,0.1-0.3,0.7-0.5,1.2
	c-0.1,0.2-0.1,0.9,0.3,1.4C1,11.6,1.3,11.8,2,12c0.5,0.2,1.7-0.1,2.2-0.1c0.4,0,0.9,0.1,1.6,0.1c0.6,0.1,1.1,0,1.5-0.5
	C7.6,11.3,7.7,10.8,7.5,10.2z"/>
</svg>
