<?xml version="1.0" encoding="iso-8859-1"?>
<!-- Generator: Adobe Illustrator 18.0.0, SVG Export Plug-In . SVG Version: 6.00 Build 0)  -->
<!DOCTYPE svg PUBLIC "-//W3C//DTD SVG 1.1//EN" "http://www.w3.org/Graphics/SVG/1.1/DTD/svg11.dtd">
<svg version="1.1" id="Layer_1" xmlns="http://www.w3.org/2000/svg" xmlns:xlink="http://www.w3.org/1999/xlink" x="0px" y="0px"
	 viewBox="0 0 65 65" style="enable-background:new 0 0 65 65;" xml:space="preserve">
<g>
	<circle style="fill:#D587B9;stroke:#D587B8;stroke-width:5;" cx="32.269" cy="32.5" r="27.5"/>
	<g>
		<ellipse style="fill:#FFFFFF;" cx="27.365" cy="22.221" rx="2.836" ry="2.74"/>
		<ellipse style="fill:#FFFFFF;" cx="31.89" cy="17.524" rx="2.836" ry="2.74"/>
		<ellipse style="fill:#FFFFFF;" cx="22.841" cy="25.94" rx="2.836" ry="2.74"/>
		<ellipse style="fill:#FFFFFF;" cx="18.316" cy="30.441" rx="2.836" ry="2.74"/>
		<ellipse style="fill:#FFFFFF;" cx="33.781" cy="40.423" rx="3.242" ry="3.131"/>
		<ellipse style="fill:#FFFFFF;" cx="41.547" cy="32.985" rx="3.242" ry="3.132"/>
		<ellipse style="fill:#FFFFFF;" cx="49.313" cy="25.353" rx="3.242" ry="3.131"/>
		<ellipse style="fill:#FFFFFF;" cx="26.015" cy="47.469" rx="3.241" ry="3.131"/>
		<ellipse style="fill:#FFFFFF;" cx="21.963" cy="38.465" rx="2.836" ry="2.74"/>
		<ellipse style="fill:#FFFFFF;" cx="28.243" cy="33.181" rx="2.836" ry="2.74"/>
		<ellipse style="fill:#FFFFFF;" cx="34.523" cy="27.31" rx="2.836" ry="2.74"/>
		<ellipse style="fill:#FFFFFF;" cx="40.804" cy="22.221" rx="2.836" ry="2.74"/>
		<polygon style="fill:#FFFFFF;" points="25.284,9.899 19.567,12.312 18.819,11.591 16.849,9.662 16.833,9.677 16.804,9.649 
			13.216,13.124 13.216,13.124 13.126,13.211 13.035,13.298 13.035,13.298 9.419,16.746 9.447,16.774 9.432,16.789 11.418,18.703 
			12.16,19.429 9.632,24.939 13.566,28.759 21.263,21.289 21.264,21.29 21.354,21.202 21.445,21.116 21.445,21.116 29.217,13.719 		
			"/>
	</g>
</g>
<g>
</g>
<g>
</g>
<g>
</g>
<g>
</g>
<g>
</g>
<g>
</g>
<g>
</g>
<g>
</g>
<g>
</g>
<g>
</g>
<g>
</g>
<g>
</g>
<g>
</g>
<g>
</g>
<g>
</g>
</svg>
