<?xml version="1.0" encoding="iso-8859-1"?>
<!-- Generator: Adobe Illustrator 18.0.0, SVG Export Plug-In . SVG Version: 6.00 Build 0)  -->
<!DOCTYPE svg PUBLIC "-//W3C//DTD SVG 1.1//EN" "http://www.w3.org/Graphics/SVG/1.1/DTD/svg11.dtd">
<svg version="1.1" id="Layer_1" xmlns="http://www.w3.org/2000/svg" xmlns:xlink="http://www.w3.org/1999/xlink" x="0px" y="0px"
	 viewBox="0 0 65 65" style="enable-background:new 0 0 65 65;" xml:space="preserve">
<g>
	<circle style="fill:#F5A31F;stroke:#F5A31F;stroke-width:5;" cx="32.248" cy="32.5" r="27.5"/>
	<g>
		<path style="fill:#FFFFFF;" d="M39.692,22.249H24.805c-1.348,0-2.433,1.223-2.433,2.739v26.953c0,1.516,1.085,2.735,2.433,2.735
			h14.887c1.347,0,2.432-1.219,2.432-2.735V24.988C42.124,23.472,41.039,22.249,39.692,22.249z M38.654,37.287
			c0.032-0.049,0.066-0.097,0.097-0.147v0.337C38.72,37.414,38.688,37.35,38.654,37.287z"/>
		<path style="fill:#FFFFFF;" d="M24.979,21.128v0.716h14.538v-0.716c-0.007,0.001-0.014,0-0.02,0H25
			C24.992,21.128,24.985,21.128,24.979,21.128L24.979,21.128z"/>
		<path style="fill:#FFFFFF;" d="M24.999,16.482h14.499c0.475,0,0.857,0.452,0.857,1.013v2.183c0,0.561-0.383,1.013-0.857,1.013
			H24.999c-0.475,0-0.858-0.452-0.858-1.013v-2.183C24.142,16.934,24.524,16.482,24.999,16.482L24.999,16.482z"/>
		<path style="fill:#FFFFFF;" d="M32.249,10.324c-3.339,0-6.11,2.448-6.62,5.644h13.239C38.36,12.771,35.589,10.324,32.249,10.324
			L32.249,10.324z"/>
	</g>
	<g>
		<g>
			<path style="fill:#F5A31F;" d="M33.87,34.745c0.098-0.458,0.156-0.919,0.161-1.375c0.001-0.007,0.002-0.014,0.003-0.021
				c0-0.013-0.002-0.025-0.002-0.038c0-0.138-0.004-0.276-0.015-0.412c-0.002-0.031-0.006-0.06-0.009-0.09
				c-0.007-0.076-0.014-0.151-0.025-0.227c-0.005-0.042-0.008-0.087-0.014-0.129c-0.042-0.279-0.102-0.542-0.178-0.785
				c-0.077-0.243-0.17-0.466-0.277-0.664c-0.32-0.594-0.762-0.961-1.25-0.961c-0.005,0-0.011,0.001-0.016,0.002
				c-0.005,0-0.01-0.002-0.016-0.002c-0.488,0-0.931,0.367-1.25,0.961c-0.107,0.198-0.2,0.421-0.277,0.664s-0.137,0.506-0.179,0.785
				c-0.006,0.04-0.009,0.083-0.014,0.124c-0.012,0.087-0.021,0.174-0.029,0.261c-0.002,0.019-0.004,0.037-0.005,0.056
				c-0.011,0.14-0.016,0.281-0.016,0.422c0,0.011-0.001,0.022-0.001,0.033c0.001,0.006,0.002,0.012,0.002,0.018
				c0.005,0.458,0.064,0.92,0.163,1.38c0.099,0.677,0.265,1.363,0.67,2.048c0.004,0.01,0.008,0.02,0.013,0.029
				c0.235,0.352,0.587,0.528,0.939,0.527c0.353,0.001,0.705-0.175,0.94-0.527c0.004-0.01,0.008-0.02,0.013-0.029
				C33.605,36.11,33.771,35.423,33.87,34.745z"/>
			<path style="fill:#F5A31F;" d="M33.87,40.876c0.098,0.458,0.156,0.919,0.161,1.375c0.001,0.007,0.002,0.014,0.003,0.021
				c0,0.013-0.002,0.025-0.002,0.038c0,0.138-0.004,0.276-0.015,0.413c-0.002,0.031-0.006,0.06-0.009,0.09
				c-0.007,0.076-0.014,0.152-0.025,0.227c-0.005,0.042-0.008,0.087-0.014,0.129c-0.042,0.279-0.102,0.542-0.178,0.785
				c-0.077,0.243-0.17,0.466-0.277,0.664c-0.32,0.594-0.762,0.961-1.251,0.961c-0.005,0-0.01-0.001-0.016-0.002
				c-0.005,0-0.01,0.002-0.016,0.002c-0.488,0-0.931-0.367-1.25-0.961c-0.107-0.198-0.2-0.421-0.277-0.664s-0.137-0.506-0.179-0.785
				c-0.006-0.04-0.009-0.083-0.014-0.124c-0.012-0.087-0.021-0.174-0.029-0.261c-0.002-0.019-0.004-0.037-0.005-0.056
				c-0.011-0.14-0.016-0.281-0.016-0.422c0-0.011-0.001-0.022-0.001-0.033c0.001-0.006,0.002-0.012,0.002-0.018
				c0.005-0.458,0.064-0.92,0.163-1.38c0.099-0.677,0.265-1.363,0.67-2.048c0.004-0.01,0.008-0.02,0.012-0.029
				c0.235-0.352,0.588-0.528,0.94-0.527c0.353-0.001,0.705,0.175,0.94,0.527c0.004,0.01,0.008,0.02,0.013,0.029
				C33.605,39.512,33.771,40.198,33.87,40.876z"/>
		</g>
		<g>
			<path style="fill:#F5A31F;" d="M35.716,37.725c0.447-0.139,0.878-0.313,1.278-0.532c0.007-0.003,0.013-0.005,0.02-0.008
				c0.011-0.006,0.021-0.013,0.032-0.02c0.12-0.067,0.238-0.139,0.353-0.215c0.026-0.017,0.048-0.035,0.074-0.052
				c0.063-0.043,0.125-0.087,0.186-0.132c0.034-0.025,0.072-0.05,0.105-0.075c0.223-0.173,0.423-0.354,0.597-0.54
				c0.175-0.186,0.323-0.376,0.444-0.566c0.361-0.57,0.465-1.135,0.226-1.561c-0.003-0.005-0.006-0.009-0.009-0.013
				c-0.003-0.005-0.004-0.01-0.006-0.015c-0.239-0.426-0.776-0.631-1.45-0.62c-0.225,0.004-0.465,0.032-0.714,0.084
				c-0.25,0.052-0.509,0.128-0.772,0.229c-0.038,0.014-0.077,0.033-0.115,0.048c-0.081,0.032-0.162,0.067-0.242,0.103
				c-0.017,0.008-0.034,0.015-0.052,0.023c-0.127,0.059-0.252,0.124-0.375,0.193c-0.01,0.005-0.02,0.009-0.029,0.015
				c-0.005,0.003-0.01,0.007-0.015,0.01c-0.396,0.229-0.771,0.507-1.124,0.818c-0.543,0.417-1.059,0.898-1.458,1.586
				c-0.006,0.009-0.013,0.017-0.019,0.025c-0.192,0.377-0.173,0.77,0,1.077c0.172,0.308,0.497,0.529,0.919,0.562
				c0.01-0.001,0.021-0.003,0.032-0.004C34.396,38.161,35.076,37.971,35.716,37.725z"/>
			<path style="fill:#F5A31F;" d="M30.369,40.725c-0.351,0.31-0.725,0.587-1.12,0.814c-0.006,0.004-0.011,0.008-0.017,0.012
				c-0.011,0.006-0.022,0.011-0.034,0.017c-0.12,0.068-0.243,0.131-0.367,0.189c-0.028,0.013-0.055,0.024-0.083,0.036
				c-0.069,0.031-0.139,0.062-0.21,0.089c-0.039,0.016-0.08,0.035-0.119,0.05c-0.264,0.1-0.523,0.177-0.772,0.229
				c-0.25,0.052-0.49,0.08-0.714,0.084c-0.674,0.011-1.211-0.195-1.45-0.621c-0.003-0.005-0.004-0.01-0.006-0.015
				c-0.003-0.005-0.007-0.009-0.009-0.013c-0.239-0.426-0.135-0.991,0.226-1.561c0.12-0.19,0.269-0.381,0.443-0.566
				c0.175-0.186,0.374-0.367,0.598-0.54c0.032-0.025,0.068-0.048,0.101-0.072c0.07-0.053,0.141-0.103,0.214-0.153
				c0.016-0.01,0.03-0.021,0.046-0.032c0.117-0.078,0.237-0.151,0.36-0.22c0.01-0.006,0.018-0.012,0.028-0.017
				c0.006-0.002,0.011-0.005,0.017-0.007c0.402-0.22,0.834-0.395,1.283-0.534c0.639-0.246,1.318-0.436,2.114-0.419
				c0.01-0.001,0.021-0.003,0.032-0.004c0.422,0.032,0.748,0.254,0.919,0.562c0.174,0.307,0.193,0.7,0.001,1.078
				c-0.007,0.008-0.014,0.016-0.02,0.025C31.429,39.826,30.912,40.307,30.369,40.725z"/>
		</g>
		<g>
			<path style="fill:#F5A31F;" d="M28.781,37.725c-0.447-0.139-0.878-0.313-1.278-0.532c-0.007-0.003-0.013-0.005-0.02-0.008
				c-0.011-0.006-0.021-0.013-0.032-0.02c-0.12-0.067-0.238-0.139-0.353-0.215c-0.026-0.017-0.048-0.035-0.074-0.052
				c-0.063-0.043-0.125-0.087-0.186-0.132c-0.034-0.025-0.072-0.05-0.105-0.075c-0.223-0.173-0.423-0.354-0.597-0.54
				c-0.175-0.186-0.323-0.376-0.443-0.566c-0.361-0.57-0.465-1.135-0.226-1.561c0.003-0.005,0.006-0.009,0.009-0.013
				c0.003-0.005,0.004-0.01,0.006-0.015c0.239-0.426,0.776-0.631,1.45-0.62c0.225,0.004,0.465,0.032,0.714,0.084
				c0.25,0.052,0.509,0.128,0.772,0.229c0.038,0.014,0.077,0.033,0.115,0.048c0.081,0.032,0.162,0.067,0.242,0.103
				c0.017,0.008,0.034,0.015,0.052,0.023c0.127,0.059,0.252,0.124,0.375,0.193c0.01,0.005,0.02,0.009,0.029,0.015
				c0.005,0.003,0.01,0.007,0.015,0.01c0.396,0.229,0.771,0.507,1.124,0.818c0.543,0.417,1.059,0.898,1.458,1.586
				c0.007,0.009,0.013,0.017,0.02,0.025c0.192,0.377,0.173,0.77,0,1.077c-0.172,0.308-0.497,0.529-0.919,0.562
				c-0.01-0.001-0.021-0.003-0.032-0.004C30.101,38.161,29.421,37.971,28.781,37.725z"/>
			<path style="fill:#F5A31F;" d="M34.128,40.725c0.351,0.31,0.725,0.587,1.12,0.814c0.005,0.004,0.011,0.008,0.017,0.012
				c0.011,0.006,0.022,0.011,0.033,0.017c0.12,0.068,0.243,0.131,0.367,0.189c0.028,0.013,0.056,0.024,0.083,0.036
				c0.069,0.031,0.139,0.062,0.21,0.089c0.04,0.016,0.08,0.035,0.119,0.05c0.264,0.1,0.523,0.177,0.773,0.229s0.49,0.08,0.715,0.084
				c0.674,0.011,1.211-0.195,1.45-0.621c0.003-0.005,0.004-0.01,0.007-0.015s0.007-0.009,0.009-0.013
				c0.239-0.426,0.135-0.991-0.226-1.561c-0.12-0.19-0.269-0.381-0.444-0.566c-0.174-0.186-0.374-0.367-0.598-0.54
				c-0.032-0.025-0.068-0.048-0.101-0.072c-0.07-0.053-0.142-0.103-0.214-0.153c-0.016-0.01-0.03-0.021-0.046-0.032
				c-0.117-0.078-0.237-0.151-0.361-0.22c-0.009-0.006-0.018-0.012-0.028-0.017c-0.006-0.002-0.011-0.005-0.017-0.007
				c-0.402-0.22-0.834-0.395-1.283-0.534c-0.639-0.246-1.318-0.436-2.114-0.419c-0.01-0.001-0.021-0.003-0.032-0.004
				c-0.422,0.032-0.748,0.254-0.919,0.562c-0.174,0.307-0.193,0.7-0.001,1.078c0.007,0.008,0.014,0.016,0.02,0.025
				C33.068,39.826,33.585,40.307,34.128,40.725z"/>
		</g>
		<ellipse style="fill:#F5A31F;" cx="32.35" cy="37.661" rx="1.925" ry="1.164"/>
	</g>
</g>
<g>
</g>
<g>
</g>
<g>
</g>
<g>
</g>
<g>
</g>
<g>
</g>
<g>
</g>
<g>
</g>
<g>
</g>
<g>
</g>
<g>
</g>
<g>
</g>
<g>
</g>
<g>
</g>
<g>
</g>
</svg>
