<?xml version="1.0" encoding="UTF-8"?>
<svg width="24px" height="24px" viewBox="0 0 24 24" version="1.1" xmlns="http://www.w3.org/2000/svg" xmlns:xlink="http://www.w3.org/1999/xlink">
    <!-- Generator: Sketch 50 (54983) - http://www.bohemiancoding.com/sketch -->
    <title>icon-filter@1x</title>
    <desc>Created with Sketch.</desc>
    <defs></defs>
    <g id="icon-filter" stroke="none" stroke-width="1" fill="none" fill-rule="evenodd">
        <g transform="translate(3.000000, 3.000000)" fill="#ffffff" fill-rule="nonzero" id="Shape">
            <path d="M18,8.28 L11.5767,8.28 C11.26188,7.1514 10.22886,6.3225 9,6.3225 C7.77114,6.3225 6.73812,7.1514 6.4233,8.28 L0,8.28 L0,9.72 L6.4233,9.72 C6.73812,10.84842 7.77114,11.6775 9,11.6775 C10.22886,11.6775 11.26188,10.84842 11.5767,9.72 L18,9.72 L18,8.28 Z"></path>
            <path d="M15.3225,12.645 C14.09364,12.645 13.06062,13.4739 12.7458,14.6025 L0,14.6025 L0,16.0425 L12.7458,16.0425 C13.06062,17.17092 14.09364,18 15.3225,18 C16.8012,18 18,16.8012 18,15.3225 C18,13.8438 16.8012,12.645 15.3225,12.645 Z"></path>
            <path d="M2.6775,5.355 C3.90636,5.355 4.93938,4.5261 5.2542,3.3975 L18,3.3975 L18,1.9575 L5.2542,1.9575 C4.93938,0.82908 3.90636,0 2.6775,0 C1.1988,0 0,1.1988 0,2.6775 C0,4.1562 1.1988,5.355 2.6775,5.355 Z"></path>
        </g>
    </g>
</svg>