<?xml version="1.0" encoding="utf-8"?>
<!-- Generator: Adobe Illustrator 22.0.1, SVG Export Plug-In . SVG Version: 6.00 Build 0)  -->
<svg version="1.1" id="Layer_1" fill="#fff" xmlns="http://www.w3.org/2000/svg" xmlns:xlink="http://www.w3.org/1999/xlink" x="0px" y="0px"
	 viewBox="0 0 30.8 26" style="enable-background:new 0 0 30.8 26;" xml:space="preserve">
<g>
	<path d="M30.1,12H0.7C0.3,12,0,11.7,0,11.3V0.7C0,0.3,0.3,0,0.7,0l29.5,0c0.4,0,0.7,0.3,0.7,0.7v10.7C30.8,11.7,30.5,12,30.1,12z"
		/>
</g>
<g>
	<path d="M30.1,26H0.7C0.3,26,0,25.7,0,25.3V14.7C0,14.3,0.3,14,0.7,14h29.5c0.4,0,0.7,0.3,0.7,0.7v10.7C30.8,25.7,30.5,26,30.1,26z
		"/>
</g>
</svg>
