<?xml version="1.0" encoding="utf-8"?>
<!-- Generator: Adobe Illustrator 22.0.1, SVG Export Plug-In . SVG Version: 6.00 Build 0)  -->
<svg version="1.1" id="Layer_1" fill="#005870" xmlns="http://www.w3.org/2000/svg" xmlns:xlink="http://www.w3.org/1999/xlink" x="0px" y="0px"
	 viewBox="0 0 30.8 26" style="enable-background:new 0 0 30.8 26;" xml:space="preserve">
<g>
	<path d="M30.1,5H0.7C0.3,5,0,4.7,0,4.3V0.7C0,0.3,0.3,0,0.7,0l29.5,0c0.4,0,0.7,0.3,0.7,0.7v3.7C30.8,4.7,30.5,5,30.1,5z
		 M30.8,11.3V7.7c0-0.4-0.3-0.7-0.7-0.7H0.7C0.3,7,0,7.3,0,7.7v3.7C0,11.7,0.3,12,0.7,12h29.5C30.5,12,30.8,11.7,30.8,11.3z
		 M30.8,18.3v-3.7c0-0.4-0.3-0.7-0.7-0.7H0.7C0.3,14,0,14.3,0,14.7v3.7C0,18.7,0.3,19,0.7,19h29.5C30.5,19,30.8,18.7,30.8,18.3z
		 M30.8,25.3v-3.7c0-0.4-0.3-0.7-0.7-0.7H0.7C0.3,21,0,21.3,0,21.7v3.7C0,25.7,0.3,26,0.7,26h29.5C30.5,26,30.8,25.7,30.8,25.3z"/>
</g>
</svg>
