<?xml version="1.0" encoding="UTF-8"?>
<svg width="24px" height="24px" viewBox="0 0 24 24" version="1.1" xmlns="http://www.w3.org/2000/svg" xmlns:xlink="http://www.w3.org/1999/xlink">
    <!-- Generator: Sketch 50 (54983) - http://www.bohemiancoding.com/sketch -->
    <title>icon-notes-GE</title>
    <desc>Created with Sketch.</desc>
    <defs></defs>
    <g id="icon-notes-GE" stroke="none" stroke-width="1" fill="none" fill-rule="evenodd">
        <path d="M7.21140715,0.501988192 C7.0353664,0.504430709 6.89471863,0.642633624 6.89723349,0.810700631 L6.89723349,2.14563509 L3.31877117,2.14563509 C3.14273631,2.14567104 3.00004048,2.28190082 3,2.44996161 L3,23.6956948 C3.0000528,23.8637473 3.14274502,23.999964 3.31877117,24 L20.6812288,24 C20.857255,23.999964 20.9999472,23.8637473 21,23.6956948 L21,2.44996161 C20.9999595,2.28190082 20.8572637,2.14567104 20.6812288,2.14563509 L16.9333216,2.14563509 L16.9333216,0.810700631 C16.9357105,0.700472575 16.8754809,0.597627472 16.7758704,0.541844546 C16.6762599,0.486061619 16.5528409,0.486061619 16.4532304,0.541844546 C16.3536199,0.597627472 16.2933904,0.700472575 16.2957792,0.810700631 L16.2957792,2.14563509 L12.3244192,2.14563509 L12.3244192,0.810700631 C12.3268109,0.700470876 12.266582,0.597623015 12.1669704,0.541838435 C12.0673587,0.486053855 11.9439376,0.486053855 11.8443259,0.541838435 C11.7447143,0.597623015 11.6844854,0.700470876 11.6868771,0.810700631 L11.6868771,2.14563509 L7.53477584,2.14563509 L7.53477584,0.810700631 C7.53600603,0.72846915 7.50233183,0.649261443 7.44141946,0.591109849 C7.38050709,0.532958255 7.29754028,0.500811541 7.21140715,0.501988192 Z M3.63754235,2.75429117 L6.89723349,2.75429117 L6.89723349,4.10000932 C6.89484461,4.21023738 6.95507417,4.31308248 7.05468468,4.3688654 C7.15429518,4.42464833 7.27771416,4.42464833 7.37732466,4.3688654 C7.47693517,4.31308248 7.53716472,4.21023738 7.53477584,4.10000932 L7.53477584,2.75429117 L11.6868771,2.75429117 L11.6868771,4.10000932 C11.6844854,4.21023907 11.7447143,4.31308694 11.8443259,4.36887152 C11.9439376,4.4246561 12.0673587,4.4246561 12.1669704,4.36887152 C12.266582,4.31308694 12.3268109,4.21023907 12.3244192,4.10000932 L12.3244192,2.75429117 L16.2957792,2.75429117 L16.2957792,4.10000932 C16.2933904,4.21023738 16.3536199,4.31308248 16.4532304,4.3688654 C16.5528409,4.42464833 16.6762599,4.42464833 16.7758704,4.3688654 C16.8754809,4.31308248 16.9357105,4.21023738 16.9333216,4.10000932 L16.9333216,2.75429117 L20.362458,2.75429117 L20.362458,23.3913591 L3.63754235,23.3913591 L3.63754235,2.75429117 Z" id="Shape" stroke="#7F7F70" stroke-width="0.5" fill="#7F7F70"></path>
        <g id="icon-group-evaluation" transform="translate(6.000000, 7.000000)" fill="#7F7F70" fill-rule="nonzero">
            <path d="M4.984,1.0906 C4.984,0.501422629 5.43887869,0.0238 6,0.0238 C6.56112131,0.0238 7.016,0.501422629 7.016,1.0906 C7.016,1.67977737 6.56112131,2.1574 6,2.1574 C5.43887869,2.1574 4.984,1.67977737 4.984,1.0906 Z M6,5.7106 C6.41093364,5.7106 6.78140411,5.45068252 6.93866161,5.05204669 C7.0959191,4.65341085 7.00899445,4.19456115 6.71842049,3.88945849 C6.42784653,3.58435582 5.99084681,3.49308494 5.61119363,3.65820531 C5.23154045,3.82332569 4.984,4.21231968 4.984,4.6438 C4.98258164,4.92783082 5.0889551,5.20075974 5.27960751,5.40225832 C5.47025992,5.6037569 5.72949096,5.71723164 6,5.7176 L6,5.7106 Z M4.43066667,8.9768 C4.46222296,9.26499733 4.64589505,9.50985906 4.90533333,9.6096 L5.32666667,13.6696 C5.3456996,13.8469153 5.48872621,13.9808089 5.65866667,13.9804 L6.32533333,13.9804 C6.49476463,13.9800961 6.63702391,13.8463838 6.656,13.6696 L7.076,9.618 C7.34399106,9.52332985 7.53572133,9.27454814 7.568,8.9796 L7.81866667,7 C7.84599416,6.74455729 7.76834578,6.48899235 7.60518295,6.29735874 C7.44202011,6.10572514 7.20880881,5.99618757 6.964,5.9962 L6.612,5.9962 C6.56973484,6.00115907 6.52982493,6.01918814 6.49733333,6.048 L6.23066667,6.293 C6.10072998,6.40892568 5.90993668,6.40892568 5.78,6.293 L5.51333333,6.048 C5.48079938,6.01926015 5.44091116,6.00124088 5.39866667,5.9962 L5.036,5.9962 C4.79119119,5.99618757 4.55797989,6.10572514 4.39481705,6.29735874 C4.23165422,6.48899235 4.15400584,6.74455729 4.18133333,7 L4.43066667,8.9768 Z M10.0693333,5.7176 C10.480267,5.7176 10.8507374,5.45768252 11.0079949,5.05904669 C11.1652524,4.66041085 11.0783278,4.20156115 10.7877538,3.89645849 C10.4971799,3.59135582 10.0601801,3.50008494 9.68052697,3.66520531 C9.30087379,3.83032569 9.05333333,4.21931968 9.05333333,4.6508 C9.05406787,5.23965761 9.50851656,5.71682874 10.0693333,5.7176 Z M8.25066667,7 L8.5,8.974 C8.53155629,9.26219733 8.71522839,9.50705906 8.97466667,9.6068 L9.396,13.6668 C9.41586924,13.845711 9.56181747,13.9795738 9.73333333,13.9762 L10.4,13.9762 C10.5694313,13.9758961 10.7116906,13.8421838 10.7306667,13.6654 L11.1466667,9.6152 C11.4146577,9.52052985 11.606388,9.27174814 11.6386667,8.9768 L11.888,7 C11.9153275,6.74455729 11.8376791,6.48899235 11.6745163,6.29735874 C11.5113534,6.10572514 11.2781421,5.99618757 11.0333333,5.9962 L10.6813333,5.9962 C10.6390682,6.00115907 10.5991583,6.01918814 10.5666667,6.048 L10.3,6.293 C10.1700633,6.40892568 9.97927002,6.40892568 9.84933333,6.293 L9.58266667,6.048 C9.55013271,6.01926015 9.51024449,6.00124088 9.468,5.9962 L9.10533333,5.9962 C8.86052453,5.99618757 8.62731322,6.10572514 8.46415039,6.29735874 C8.30098755,6.48899235 8.22333917,6.74455729 8.25066667,7 Z M1.93066667,5.7148 C2.49178797,5.7148 2.94666667,5.23717737 2.94666667,4.648 C2.94666667,4.05882263 2.49178797,3.5812 1.93066667,3.5812 C1.36954536,3.5812 0.914666667,4.05882263 0.914666667,4.648 C0.914312813,4.93130433 1.02115663,5.20315282 1.21169364,5.40374178 C1.40223065,5.60433075 1.66085302,5.71722894 1.93066667,5.7176 L1.93066667,5.7148 Z M0.112,7 L0.361333333,8.974 C0.392889622,9.26219733 0.57656172,9.50705906 0.836,9.6068 L1.25733333,13.6668 C1.27636627,13.8441153 1.41939288,13.9780089 1.58933333,13.9776 L2.256,13.9776 C2.42543129,13.9772961 2.56769058,13.8435838 2.58666667,13.6668 L3.00666667,9.6152 C3.27465773,9.52052985 3.466388,9.27174814 3.49866667,8.9768 L3.74933333,7 C3.77666083,6.74455729 3.69901245,6.48899235 3.53584961,6.29735874 C3.37268678,6.10572514 3.13947547,5.99618757 2.89466667,5.9962 L2.54266667,5.9962 C2.50040151,6.00115907 2.46049159,6.01918814 2.428,6.048 L2.16133333,6.293 C2.03139665,6.40892568 1.84060335,6.40892568 1.71066667,6.293 L1.444,6.048 C1.41146605,6.01926015 1.37157783,6.00124088 1.32933333,5.9962 L0.965333333,5.9962 C0.720756954,5.99658569 0.48790581,6.10629552 0.325039188,6.2978801 C0.162172566,6.48946469 0.084698144,6.74479956 0.112,7 Z M4.98133333,2.87 C4.98133333,2.28082263 4.52645464,1.8032 3.96533333,1.8032 C3.40421203,1.8032 2.94933333,2.28082263 2.94933333,2.87 C2.94933333,3.45917737 3.40421203,3.9368 3.96533333,3.9368 C4.23479329,3.9368 4.49321686,3.82440532 4.68375382,3.62434151 C4.87429078,3.42427771 4.98133333,3.15293295 4.98133333,2.87 Z M8.03466667,1.8032 C7.47354536,1.8032 7.01866667,2.28082263 7.01866667,2.87 C7.01866667,3.45917737 7.47354536,3.9368 8.03466667,3.9368 C8.59578797,3.9368 9.05066667,3.45917737 9.05066667,2.87 C9.05066667,2.28082263 8.59578797,1.8032 8.03466667,1.8032 Z" id="Shape"></path>
        </g>
    </g>
</svg>