<?xml version="1.0" encoding="UTF-8"?>
<svg width="24px" height="24px" viewBox="0 0 24 24" version="1.1" xmlns="http://www.w3.org/2000/svg" xmlns:xlink="http://www.w3.org/1999/xlink">
    <!-- Generator: Sketch 50 (54983) - http://www.bohemiancoding.com/sketch -->
    <title>icon-notes-CRS</title>
    <desc>Created with Sketch.</desc>
    <defs></defs>
    <g id="icon-notes-CRS" stroke="none" stroke-width="1" fill="none" fill-rule="evenodd">
        <path d="M7.21140715,0.501988192 C7.0353664,0.504430709 6.89471863,0.642633624 6.89723349,0.810700631 L6.89723349,2.14563509 L3.31877117,2.14563509 C3.14273631,2.14567104 3.00004048,2.28190082 3,2.44996161 L3,23.6956948 C3.0000528,23.8637473 3.14274502,23.999964 3.31877117,24 L20.6812288,24 C20.857255,23.999964 20.9999472,23.8637473 21,23.6956948 L21,2.44996161 C20.9999595,2.28190082 20.8572637,2.14567104 20.6812288,2.14563509 L16.9333216,2.14563509 L16.9333216,0.810700631 C16.9357105,0.700472575 16.8754809,0.597627472 16.7758704,0.541844546 C16.6762599,0.486061619 16.5528409,0.486061619 16.4532304,0.541844546 C16.3536199,0.597627472 16.2933904,0.700472575 16.2957792,0.810700631 L16.2957792,2.14563509 L12.3244192,2.14563509 L12.3244192,0.810700631 C12.3268109,0.700470876 12.266582,0.597623015 12.1669704,0.541838435 C12.0673587,0.486053855 11.9439376,0.486053855 11.8443259,0.541838435 C11.7447143,0.597623015 11.6844854,0.700470876 11.6868771,0.810700631 L11.6868771,2.14563509 L7.53477584,2.14563509 L7.53477584,0.810700631 C7.53600603,0.72846915 7.50233183,0.649261443 7.44141946,0.591109849 C7.38050709,0.532958255 7.29754028,0.500811541 7.21140715,0.501988192 Z M3.63754235,2.75429117 L6.89723349,2.75429117 L6.89723349,4.10000932 C6.89484461,4.21023738 6.95507417,4.31308248 7.05468468,4.3688654 C7.15429518,4.42464833 7.27771416,4.42464833 7.37732466,4.3688654 C7.47693517,4.31308248 7.53716472,4.21023738 7.53477584,4.10000932 L7.53477584,2.75429117 L11.6868771,2.75429117 L11.6868771,4.10000932 C11.6844854,4.21023907 11.7447143,4.31308694 11.8443259,4.36887152 C11.9439376,4.4246561 12.0673587,4.4246561 12.1669704,4.36887152 C12.266582,4.31308694 12.3268109,4.21023907 12.3244192,4.10000932 L12.3244192,2.75429117 L16.2957792,2.75429117 L16.2957792,4.10000932 C16.2933904,4.21023738 16.3536199,4.31308248 16.4532304,4.3688654 C16.5528409,4.42464833 16.6762599,4.42464833 16.7758704,4.3688654 C16.8754809,4.31308248 16.9357105,4.21023738 16.9333216,4.10000932 L16.9333216,2.75429117 L20.362458,2.75429117 L20.362458,23.3913591 L3.63754235,23.3913591 L3.63754235,2.75429117 Z" id="Shape" stroke="#7F7F70" stroke-width="0.5" fill="#7F7F70"></path>
        <g id="icon-group-evaluation" transform="translate(8.000000, 7.000000)" fill="#7F7F70" stroke="#000000" stroke-width="0.5">
            <g id="icon-nose">
                <path stroke="#7F7F70" d="M6.63365871,0 L4.5519765,2.78593808 C1.52082903,6.79807629 -0.669379556,9.69709253 0.187304085,11.4761508 C0.675672804,12.4912907 2.05024659,12.9755045 4.5126146,13 L4.52048698,12.1944962 C2.45173797,12.1739883 1.23433063,11.8133915 0.90200373,11.1229596 C0.260685914,9.79108696 2.54198918,6.77215661 5.18345384,3.27556364 L7.27272727,0.479656449 L6.63365871,0 Z" id="Shape"></path>
                <path stroke="#7F7F70" d="M6.54545455,10.6912852 C6.90222,10.9378392 7.09769041,11.2482949 7.09673223,11.564342 C7.09513525,11.8742652 6.90062302,12.1769995 6.54832911,12.4166308 L7.12004814,13 C7.68505985,12.6147261 7.99774864,12.1061751 7.99998442,11.5667384 C8.00253958,11.0211777 7.69080898,10.5043728 7.12260331,10.1111111 L6.54545455,10.6912852 Z" id="Shape"></path>
                <path stroke="#7F7F70" d="M3.83867244,12.2861449 C4.15353535,12.2174671 4.44473304,12.2538983 4.65858586,12.3880539 C4.86782107,12.5192555 4.98701299,12.7309505 5.0031746,13 L5.81818182,12.9635688 C5.78903319,12.4862705 5.54891775,12.0823269 5.14199134,11.8270622 C4.72727273,11.5668743 4.19249639,11.4905657 3.63636364,11.6116749 L3.83867244,12.2861449 Z" id="Shape"></path>
            </g>
        </g>
    </g>
</svg>