<?xml version="1.0" encoding="UTF-8"?>
<svg width="24px" height="24px" viewBox="0 0 24 24" version="1.1" xmlns="http://www.w3.org/2000/svg" xmlns:xlink="http://www.w3.org/1999/xlink">
    <!-- Generator: Sketch 50 (54983) - http://www.bohemiancoding.com/sketch -->
    <title>icon-edit-CSP-svg</title>
    <desc>Created with Sketch.</desc>
    <defs></defs>
    <g id="icon-edit-CSP" stroke="none" stroke-width="1" fill="none" fill-rule="evenodd">
        <g id="noun_4607" transform="translate(12.000000, 20.000000) scale(-1, 1) translate(-12.000000, -20.000000) translate(0.000000, 16.000000)" fill="#7F7F74" fill-rule="nonzero">
            <path d="M23.6182041,0.531733333 C23.620898,0.535466667 23.8836735,0.7096 23.9054694,1.21653333 C23.9169796,1.49546667 23.6982857,1.85893333 22.9537959,2.16346667 C22.9537959,2.16346667 19.816898,3.5664 16.1380408,6.1272 C16.1380408,6.1272 15.7158367,6.4152 15.2228571,6.37733333 C12.7709388,6.05653333 10.1157551,6.0568 9.84293878,6.06773333 C8.25918367,6.13066667 6.4077551,6.3336 4.73706122,7.97733333 C4.73706122,7.97733333 0.806204082,7.01733333 0.0940408163,4.452 C0.0937959184,4.44906667 4.8124898,2.97546667 7.42408163,0.622666667 C8.28538776,-0.1536 9.1917551,0.0312 9.54171429,0.068 C10.0498776,0.120533333 11.0466122,0.545866667 12.434449,0.737333333 C13.1542041,0.836266667 14.1869388,0.906133333 15.1486531,0.993066667 C16.6447347,1.1288 17.1269388,1.43733333 17.1117551,2.36586667 C17.1066122,2.69493333 16.8244898,3.52186667 15.6411429,3.47386667 C15.3822857,3.46346667 14.7629388,3.4048 14.3319184,3.37813333 C13.9378776,3.3536 13.255102,3.34693333 12.3869388,3.37813333 C11.6916735,3.40346667 11.1783673,3.66106667 11.1783673,3.66106667 C11.1783673,3.66106667 11.9071837,3.7664 12.1697143,3.8016 C12.9781224,3.9112 14.0277551,4.07573333 14.9958367,4.09653333 C15.9651429,4.11733333 16.7118367,3.98 17.1964898,3.5184 C17.906449,2.7584 17.7102857,2.01546667 17.5910204,1.60906667 C17.5910204,1.60906667 21.7836735,0.263733333 22.0702041,0.216266667 C22.6474286,0.120533333 23.3647347,0.219466667 23.6182041,0.531733333 Z" id="Shape"></path>
        </g>
        <g id="noun_403641" transform="translate(3.000000, 0.000000)" fill="#EE2F2E" fill-rule="nonzero">
            <path d="M10.9679727,3.13544794 L10.2280245,4.03694703 C11.8227473,5.21394119 12.6185028,7.11955985 12.3047374,9.01051845 C11.8297734,11.8751341 8.98581096,13.8399642 5.96539313,13.3883579 C2.94517606,12.9371324 0.874284769,10.2396796 1.34904804,7.37525431 C1.57910246,5.98749785 2.36542285,4.76804661 3.56287017,3.9411806 C4.60815235,3.21960055 5.85799426,2.87251864 7.1313234,2.94124962 L6.09005613,3.9773548 L6.86252508,4.67627838 L8.5062298,3.03968151 L8.50663129,3.04025268 L9.24296603,2.30686842 L8.47109932,1.60851601 L8.47069783,1.6087064 L6.74569116,0.0495984786 L6.00875418,0.782982741 L7.13292936,1.79852575 C5.60465335,1.72998516 4.10869737,2.15131937 2.85383682,3.01759621 C1.39642399,4.02400047 0.439469868,5.50847532 0.159229054,7.19781035 C-0.418717438,10.6844319 2.10164318,13.9677163 5.77789677,14.5168025 C6.13181121,14.5695407 6.4833167,14.595053 6.83080728,14.595053 C10.0937258,14.5948626 12.971815,12.3389254 13.4945564,9.18796241 C13.8765752,6.88671225 12.9083794,4.56756539 10.9679727,3.13544794 Z" id="Shape"></path>
        </g>
    </g>
</svg>