<?xml version="1.0" encoding="UTF-8"?>
<svg width="24px" height="24px" viewBox="0 0 24 24" version="1.1" xmlns="http://www.w3.org/2000/svg" xmlns:xlink="http://www.w3.org/1999/xlink">
    <!-- Generator: Sketch 50.2 (55047) - http://www.bohemiancoding.com/sketch -->
    <title>icon-task</title>
    <desc>Created with Sketch.</desc>
    <defs></defs>
    <g id="icon-task" stroke="none" stroke-width="1" fill="none" fill-rule="evenodd">
        <g transform="translate(4.000000, 5.000000)" fill="#002976" fill-rule="nonzero" id="Shape" stroke="#002976">
            <path d="M5.95707317,6.09560976 L2.61463415,9.07707317 L0.723902439,7.18634146 C0.625262281,7.08770131 0.481491118,7.04917794 0.346746157,7.08528274 C0.212001195,7.12138755 0.106753399,7.22663534 0.0706485958,7.3613803 C0.0345437922,7.49612526 0.0730671591,7.63989643 0.171707317,7.73853659 L2.31804878,9.88487805 C2.46435849,10.0318112 2.70003026,10.0386671 2.85463415,9.9004878 L6.47609756,6.67707317 C6.58066311,6.58435839 6.62782291,6.44290135 6.59981232,6.30598755 C6.57180174,6.16907374 6.47287625,6.05750364 6.34030012,6.01330462 C6.207724,5.96910559 6.06163871,5.99899253 5.95707317,6.09170732 L5.95707317,6.09560976 Z"></path>
            <path d="M15.9414634,7.59219512 L8.7804878,7.59219512 C8.56496205,7.59219512 8.3902439,7.76691327 8.3902439,7.98243902 C8.3902439,8.19796478 8.56496205,8.37268293 8.7804878,8.37268293 L15.9414634,8.37268293 C16.1569892,8.37268293 16.3317073,8.19796478 16.3317073,7.98243902 C16.3317073,7.76691327 16.1569892,7.59219512 15.9414634,7.59219512 Z"></path>
            <path d="M2.32390244,15.742439 C2.47021215,15.8893721 2.70588392,15.896228 2.8604878,15.7580488 L6.47609756,12.5307317 C6.58066311,12.4380169 6.62782291,12.2965599 6.59981232,12.1596461 C6.57180174,12.0227323 6.47287625,11.9111622 6.34030012,11.8669632 C6.207724,11.8227641 6.06163871,11.8526511 5.95707317,11.9453659 L2.61463415,14.9307317 L0.723902439,13.04 C0.571417967,12.8875155 0.324191789,12.8875155 0.171707317,13.04 C0.0192228447,13.1924845 0.0192228447,13.4397106 0.171707317,13.5921951 L2.32390244,15.742439 Z"></path>
            <path d="M15.9414634,13.4458537 L8.7804878,13.4458537 C8.56496205,13.4458537 8.3902439,13.6205718 8.3902439,13.8360976 C8.3902439,14.0516233 8.56496205,14.2263415 8.7804878,14.2263415 L15.9414634,14.2263415 C16.1569892,14.2263415 16.3317073,14.0516233 16.3317073,13.8360976 C16.3317073,13.6205718 16.1569892,13.4458537 15.9414634,13.4458537 Z"></path>
            <path d="M6.50731707,0.273170732 C6.36385345,0.11289249 6.11774533,0.0989289082 5.95707317,0.24195122 L2.61463415,3.22341463 L0.723902439,1.33268293 C0.571417965,1.18019846 0.324191794,1.18019847 0.171707325,1.33268294 C0.0192228561,1.4851674 0.0192228524,1.73239358 0.171707317,1.88487805 L2.31804878,4.03121951 C2.46435849,4.17815263 2.70003026,4.18500854 2.85463415,4.04682927 L6.47609756,0.823414634 C6.6363758,0.679951015 6.65033938,0.433842893 6.50731707,0.273170732 Z"></path>
            <path d="M15.9414634,1.73853659 L8.7804878,1.73853659 C8.56496205,1.73853659 8.3902439,1.91325473 8.3902439,2.12878049 C8.3902439,2.34430624 8.56496205,2.51902439 8.7804878,2.51902439 L15.9414634,2.51902439 C16.1569892,2.51902439 16.3317073,2.34430624 16.3317073,2.12878049 C16.3317073,1.91325473 16.1569892,1.73853659 15.9414634,1.73853659 Z"></path>
        </g>
    </g>
</svg>