<?xml version="1.0" encoding="utf-8"?>
<!-- Generator: Adobe Illustrator 22.0.1, SVG Export Plug-In . SVG Version: 6.00 Build 0)  -->
<svg version="1.1" id="Layer_1" xmlns="http://www.w3.org/2000/svg" xmlns:xlink="http://www.w3.org/1999/xlink" x="0px" y="0px"
	 viewBox="0 0 24 24" style="enable-background:new 0 0 24 24;" xml:space="preserve">
<style type="text/css">
	.st0{fill:#fff;}
</style>
<title>icon-overwrite</title>
<desc>Created with Sketch.</desc>
<g id="icon-overwrite">
	<g id="Overwrite" transform="translate(5.000000, 4.000000)">
		<path id="Shape" class="st0" d="M4.2,19.9h13.9V8L14,4H9.8v-4l-4.2-4h-9.7V12h8.3V19.9z M14,6.8L15.2,8H14V6.8z M12.6,6v3.3H16
			v8.6H6.3V6H12.6z M5.6-1.1l1.2,1.2H5.6V-1.1z M-2,10V-1.9h6.3v3.3h3.5V4H4.2V10H-2z"/>
		<polygon id="Shape_1_" class="st0" points="0,8.7 1.1,8.7 2.1,8.7 2.1,6.7 0,6.7 		"/>
		<rect id="Rectangle-path" x="0" y="-0.6" class="st0" width="2.1" height="5.9"/>
		<path id="Shape_2_" class="st0" d="M14-3.9l-2.8,2.6L14,1.4v-2c1.5,0,2.8,1.2,2.8,2.6v1.3h1.4V2.1c0-2.2-1.9-4-4.2-4V-3.9z"/>
	</g>
</g>
</svg>
