<?xml version="1.0" encoding="UTF-8"?>
<svg width="24px" height="24px" viewBox="0 0 24 24" version="1.1" xmlns="http://www.w3.org/2000/svg" xmlns:xlink="http://www.w3.org/1999/xlink">
    <!-- Generator: Sketch 50.2 (55047) - http://www.bohemiancoding.com/sketch -->
    <title>icon-notes-Rework</title>
    <desc>Created with Sketch.</desc>
    <defs></defs>
    <g id="icon-notes-Rework" stroke="none" stroke-width="1" fill="none" fill-rule="evenodd">
        <path d="M7.21140715,0.501988192 C7.0353664,0.504430709 6.89471863,0.642633624 6.89723349,0.810700631 L6.89723349,2.14563509 L3.31877117,2.14563509 C3.14273631,2.14567104 3.00004048,2.28190082 3,2.44996161 L3,23.6956948 C3.0000528,23.8637473 3.14274502,23.999964 3.31877117,24 L20.6812288,24 C20.857255,23.999964 20.9999472,23.8637473 21,23.6956948 L21,2.44996161 C20.9999595,2.28190082 20.8572637,2.14567104 20.6812288,2.14563509 L16.9333216,2.14563509 L16.9333216,0.810700631 C16.9357105,0.700472575 16.8754809,0.597627472 16.7758704,0.541844546 C16.6762599,0.486061619 16.5528409,0.486061619 16.4532304,0.541844546 C16.3536199,0.597627472 16.2933904,0.700472575 16.2957792,0.810700631 L16.2957792,2.14563509 L12.3244192,2.14563509 L12.3244192,0.810700631 C12.3268109,0.700470876 12.266582,0.597623015 12.1669704,0.541838435 C12.0673587,0.486053855 11.9439376,0.486053855 11.8443259,0.541838435 C11.7447143,0.597623015 11.6844854,0.700470876 11.6868771,0.810700631 L11.6868771,2.14563509 L7.53477584,2.14563509 L7.53477584,0.810700631 C7.53600603,0.72846915 7.50233183,0.649261443 7.44141946,0.591109849 C7.38050709,0.532958255 7.29754028,0.500811541 7.21140715,0.501988192 Z M3.63754235,2.75429117 L6.89723349,2.75429117 L6.89723349,4.10000932 C6.89484461,4.21023738 6.95507417,4.31308248 7.05468468,4.3688654 C7.15429518,4.42464833 7.27771416,4.42464833 7.37732466,4.3688654 C7.47693517,4.31308248 7.53716472,4.21023738 7.53477584,4.10000932 L7.53477584,2.75429117 L11.6868771,2.75429117 L11.6868771,4.10000932 C11.6844854,4.21023907 11.7447143,4.31308694 11.8443259,4.36887152 C11.9439376,4.4246561 12.0673587,4.4246561 12.1669704,4.36887152 C12.266582,4.31308694 12.3268109,4.21023907 12.3244192,4.10000932 L12.3244192,2.75429117 L16.2957792,2.75429117 L16.2957792,4.10000932 C16.2933904,4.21023738 16.3536199,4.31308248 16.4532304,4.3688654 C16.5528409,4.42464833 16.6762599,4.42464833 16.7758704,4.3688654 C16.8754809,4.31308248 16.9357105,4.21023738 16.9333216,4.10000932 L16.9333216,2.75429117 L20.362458,2.75429117 L20.362458,23.3913591 L3.63754235,23.3913591 L3.63754235,2.75429117 Z" id="Shape" stroke="#7F7F70" stroke-width="0.5" fill="#7F7F70"></path>
        <g id="noun_1152932" transform="translate(6.000000, 6.500000)" fill="#7F7F70" fill-rule="nonzero" stroke="#7F7F70" stroke-width="0.5">
            <path d="M11.7896371,6.02777778 C11.2555554,4.44534863 10.0557291,3.16540141 8.49596774,2.51416667 C6.93669484,1.87871166 5.18107091,1.89908781 3.63745968,2.57055556 L4.42778226,0.431666667 L3.68685484,0.161388889 L2.40258065,3.57972222 L5.72983871,5.17611111 L6.08153226,4.47222222 L3.75403226,3.36972222 C4.91580645,2.83694444 6.57153226,2.55888889 8.1758871,3.22972222 C9.52990844,3.79105332 10.5734441,4.8980579 11.0408065,6.26888889 C11.4736371,7.49116172 11.4455876,8.82582919 10.9617742,10.0294444 C10.4173669,11.2085008 9.46007148,12.1554323 8.26479839,12.6972222 C6.93713953,13.3171792 5.40273336,13.3455104 4.05237903,12.775 C2.22870968,12.0108333 1.04717742,10.3502778 0.89108871,8.33388889 L0.100766129,8.39027778 C0.274637097,10.7022222 1.63201613,12.6097222 3.73427419,13.4886111 C5.29017433,14.1467153 7.05846096,14.1148432 8.58883065,13.4011111 C9.96807856,12.7862458 11.0713298,11.6963572 11.6908468,10.3366667 C12.2547556,8.95990948 12.2898741,7.42816436 11.7896371,6.02777778 Z" id="Shape"></path>
        </g>
    </g>
</svg>