<?xml version="1.0" encoding="UTF-8"?>
<svg width="24px" height="24px" viewBox="0 0 24 24" version="1.1" xmlns="http://www.w3.org/2000/svg" xmlns:xlink="http://www.w3.org/1999/xlink">
    <!-- Generator: Sketch 50.2 (55047) - http://www.bohemiancoding.com/sketch -->
    <title>icon-information</title>
    <desc>Created with Sketch.</desc>
    <defs></defs>
    <g id="icon-information" stroke="none" stroke-width="1" fill="none" fill-rule="evenodd">
        <path d="M11.8933633,4.00072013 C7.47548642,4.05938812 3.94118488,7.6896918 4.00074178,12.1075687 C4.05940976,16.5236678 7.68971345,20.0570804 12.1075904,19.9993014 C16.5245784,19.9397445 20.0597688,16.3094408 20.0002119,11.8924528 C19.9415439,7.47546477 16.3121292,3.94205215 11.8933633,4.00072013 Z M12.6871589,6.69855845 C13.5298445,6.69855845 13.7778501,7.17679141 13.7778501,7.72258143 C13.7778501,8.40526342 13.2187264,9.03638869 12.266705,9.03638869 C11.4702427,9.03638869 11.0897897,8.64349099 11.1120125,7.99547644 C11.1129014,7.44968642 11.5795785,6.69855845 12.6871589,6.69855845 Z M10.8462287,17.3334638 C10.2959942,17.3334638 9.89242954,16.9761224 10.278216,15.4036427 L10.9111191,12.6160246 C11.0204549,12.1689034 11.0391219,11.9902328 10.9111191,11.9902328 C10.745782,11.9902328 10.0302104,12.299573 9.60797872,12.6026909 L9.33330589,12.1209024 C10.6737804,10.9235422 12.2133705,10.2221931 12.8738298,10.2221931 C13.4249533,10.2221931 13.5165109,10.9190976 13.2409491,11.9911217 L12.5173773,14.9218541 C12.3893745,15.439199 12.4444868,15.6178697 12.5716008,15.6178697 C12.7369378,15.6178697 13.2782833,15.4027538 13.8107397,14.9556326 L14.1227467,15.4027538 C12.8196063,16.7965628 11.3973522,17.3334638 10.8462287,17.3334638 Z" id="Shape" fill="#7f7f74" fill-rule="nonzero"></path>
    </g>
</svg>