<?xml version="1.0" encoding="UTF-8"?>
<svg width="24px" height="24px" viewBox="0 0 24 24" version="1.1" xmlns="http://www.w3.org/2000/svg" xmlns:xlink="http://www.w3.org/1999/xlink">
    <!-- Generator: Sketch 49.1 (51147) - http://www.bohemiancoding.com/sketch -->
    <title>icon-Archived</title>
    <desc>Created with Sketch.</desc>
    <defs></defs>
    <g id="icon-Archived" stroke="none" stroke-width="1" fill="none" fill-rule="evenodd">
        <path d="M2.83211679,21 L20.8321168,21 L20.8321168,7.59854015 L21.6642336,7.59854015 L21.6642336,3 L2,3 L2,7.59854015 L2.83211679,7.59854015 L2.83211679,21 Z M19.6058394,19.7737226 L4.05839416,19.7737226 L4.05839416,7.59854015 L19.5839416,7.59854015 L19.5839416,19.7737226 L19.6058394,19.7737226 Z M9.18248175,9.70072993 C8.83211679,9.74452555 8.59124088,10.0291971 8.6350365,10.379562 C8.65693431,10.729927 8.96350365,10.9708029 9.31386861,10.9489051 L14.3722628,10.9489051 C14.7007299,10.9489051 15.0072993,10.6861314 15.0072993,10.3357664 C15.0072993,10.1605839 14.9416058,10.0072993 14.8321168,9.89781022 C14.7226277,9.78832117 14.5693431,9.72262774 14.3941606,9.70072993 L9.31386861,9.70072993 C9.2919708,9.70072993 9.27007299,9.70072993 9.24817518,9.70072993 C9.20437956,9.70072993 9.18248175,9.70072993 9.18248175,9.70072993 Z M20.4379562,6.35036496 L3.22627737,6.35036496 L3.22627737,4.22627737 L20.4379562,4.22627737 L20.4379562,6.35036496 Z" id="Shape" fill="#999990" fill-rule="nonzero"></path>
    </g>
</svg>