<?xml version="1.0" encoding="UTF-8"?>
<svg width="24px" height="24px" viewBox="0 0 24 24" version="1.1" xmlns="http://www.w3.org/2000/svg" xmlns:xlink="http://www.w3.org/1999/xlink">
    <!-- Generator: Sketch 49.1 (51147) - http://www.bohemiancoding.com/sketch -->
    <title>icon-exclusivity</title>
    <desc>Created with Sketch.</desc>
    <defs></defs>
    <g id="icon-exclusivity" stroke="none" stroke-width="1" fill="none" fill-rule="evenodd">
        <g id="EXCLUSIVE" transform="translate(4.000000, 2.000000)" fill="#B62E00">
            <path d="M11.6578528,20 L3.40566485,20 C1.50635176,20 0,18.4321608 0,16.6030151 L0,10.3969849 C0,8.50251256 1.57184532,7 3.40566485,7 L11.5923592,7 C13.4916723,7 14.998024,8.5678392 14.998024,10.3969849 L14.998024,16.6030151 C15.0635176,18.4321608 13.4916723,20 11.6578528,20 Z M3.40566485,8.24120603 C2.22678086,8.24120603 1.3098711,9.22110553 1.3098711,10.3316583 L1.3098711,16.5376884 C1.3098711,17.7135678 2.29227442,18.6281407 3.40566485,18.6281407 L11.5923592,18.6281407 C12.7712432,18.6281407 13.688153,17.6482412 13.688153,16.5376884 L13.688153,10.3316583 C13.688153,9.15577889 12.7057496,8.24120603 11.5923592,8.24120603 L3.40566485,8.24120603 Z" id="Shape" fill-rule="nonzero"></path>
            <path d="M11.3081481,8.25396825 C10.9597037,8.25396825 10.7274074,8.01508722 10.7274074,7.65676568 L10.7274074,4.06097753 C10.7274074,2.50825083 9.50785185,1.19440515 7.93985185,1.19440515 L7.12681481,1.19440515 C5.61688889,1.19440515 4.33925926,2.44853057 4.33925926,4.06097753 L4.33925926,7.59704542 C4.33925926,7.95536697 4.10696296,8.194248 3.75851852,8.194248 C3.41007407,8.194248 3.17777778,7.95536697 3.17777778,7.59704542 L3.17777778,4.06097753 C3.17777778,1.85132799 4.92,0 7.12681481,0 L7.93985185,0 C10.0885926,0 11.8888889,1.79160773 11.8888889,4.06097753 L11.8888889,7.59704542 C11.8888889,7.95536697 11.6565926,8.25396825 11.3081481,8.25396825 Z" id="Shape" fill-rule="nonzero"></path>
            <rect id="Rectangle" transform="translate(7.809260, 13.309260) rotate(45.000000) translate(-7.809260, -13.309260) " x="3.80925974" y="12.6292597" width="8" height="1.36000001"></rect>
            <rect id="Rectangle" transform="translate(7.809260, 13.309260) scale(-1, 1) rotate(45.000000) translate(-7.809260, -13.309260) " x="3.80925974" y="12.6292597" width="8" height="1.36000001"></rect>
        </g>
    </g>
</svg>