<?xml version="1.0" encoding="UTF-8"?>
<svg width="24px" height="24px" viewBox="0 0 24 24" version="1.1" xmlns="http://www.w3.org/2000/svg" xmlns:xlink="http://www.w3.org/1999/xlink">
    <!-- Generator: Sketch 49.1 (51147) - http://www.bohemiancoding.com/sketch -->
    <title>icon-library</title>
    <desc>Created with Sketch.</desc>
    <defs></defs>
    <g id="icon-library" stroke="none" stroke-width="1" fill="none" fill-rule="evenodd">
        <g id="noun_751617" transform="translate(2.000000, 2.000000)" fill="#0138A0" fill-rule="nonzero" stroke="#0138A0" stroke-width="0.5">
            <path d="M5.51219512,19.0731707 L5.51219512,1.43902439 C5.51219512,1.02439024 5.19512195,0.682926829 4.80487805,0.682926829 L0.707317073,0.682926829 C0.317073171,0.682926829 0,1.02439024 0,1.43902439 L0,19.0731707 C0,19.4878049 0.317073171,19.8292683 0.707317073,19.8292683 L4.80487805,19.8292683 C5.19512195,19.8292683 5.51219512,19.4878049 5.51219512,19.0731707 Z M0.512195122,4.97560976 L5.02439024,4.97560976 L5.02439024,15.5609756 L0.512195122,15.5609756 L0.512195122,4.97560976 Z M5.02439024,4.48780488 L0.512195122,4.48780488 L0.512195122,3.41463415 L5.02439024,3.41463415 L5.02439024,4.48780488 Z M0.512195122,16.0487805 L5.02439024,16.0487805 L5.02439024,17.1219512 L0.512195122,17.1219512 L0.512195122,16.0487805 Z M0.707317073,1.17073171 L4.80487805,1.17073171 C4.92682927,1.17073171 5.02439024,1.29268293 5.02439024,1.43902439 L5.02439024,2.92682927 L0.512195122,2.92682927 L0.512195122,1.43902439 C0.512195122,1.29268293 0.585365854,1.17073171 0.707317073,1.17073171 Z M0.512195122,19.0731707 L0.512195122,17.6097561 L5.02439024,17.6097561 L5.02439024,19.0731707 C5.02439024,19.2195122 4.92682927,19.3414634 4.80487805,19.3414634 L0.707317073,19.3414634 C0.585365854,19.3414634 0.512195122,19.2195122 0.512195122,19.0731707 Z" id="Shape"></path>
            <path d="M16.902439,0.853658537 C16.8536585,0.658536585 16.7560976,0.487804878 16.6097561,0.365853659 C16.4634146,0.243902439 16.2682927,0.195121951 16.0731707,0.243902439 L12.0487805,1 C11.8536585,1.02439024 11.7073171,1.14634146 11.6097561,1.31707317 C11.5609756,0.951219512 11.2682927,0.658536585 10.9268293,0.658536585 L6.82926829,0.658536585 C6.43902439,0.658536585 6.12195122,1 6.12195122,1.41463415 L6.12195122,19.0487805 C6.12195122,19.4634146 6.43902439,19.804878 6.82926829,19.804878 L10.9268293,19.804878 C11.3170732,19.804878 11.6341463,19.4634146 11.6341463,19.0487805 L11.6341463,2.43902439 L14.8292683,19.195122 C14.902439,19.5609756 15.195122,19.8292683 15.5365854,19.8292683 C15.5853659,19.8292683 15.6097561,19.8292683 15.6585366,19.8292683 L19.6829268,19.0731707 C19.8780488,19.0487805 20.0243902,18.9268293 20.1219512,18.7560976 C20.2195122,18.5853659 20.2439024,18.3902439 20.2195122,18.195122 L16.902439,0.853658537 Z M11.1219512,15.5365854 L6.6097561,15.5365854 L6.6097561,4.97560976 L11.1219512,4.97560976 L11.1219512,15.5365854 Z M11.1219512,4.48780488 L6.6097561,4.48780488 L6.6097561,3.41463415 L11.1219512,3.41463415 L11.1219512,4.48780488 Z M6.6097561,16.0243902 L11.1219512,16.0243902 L11.1219512,17.097561 L6.6097561,17.097561 L6.6097561,16.0243902 Z M6.82926829,1.17073171 L10.9268293,1.17073171 C11.0487805,1.17073171 11.1463415,1.29268293 11.1463415,1.43902439 L11.1463415,2.92682927 L6.6097561,2.92682927 L6.6097561,1.43902439 C6.6097561,1.29268293 6.70731707,1.17073171 6.82926829,1.17073171 Z M10.9268293,19.3414634 L6.82926829,19.3414634 C6.70731707,19.3414634 6.6097561,19.2195122 6.6097561,19.0731707 L6.6097561,17.5853659 L11.1219512,17.5853659 L11.1219512,19.0731707 C11.1219512,19.2195122 11.0243902,19.3414634 10.9268293,19.3414634 Z M13.5853659,10.2195122 L18.0243902,9.36585366 L19.3658537,16.3414634 L14.9268293,17.195122 L13.5853659,10.2195122 Z M12.6585366,5.26829268 L17.097561,4.41463415 L17.9512195,8.87804878 L13.5121951,9.73170732 L12.6585366,5.26829268 Z M12.3658537,3.73170732 L16.804878,2.87804878 L17,3.92682927 L12.5609756,4.7804878 L12.3658537,3.73170732 Z M12.1463415,1.48780488 L16.1707317,0.731707317 C16.1707317,0.731707317 16.195122,0.731707317 16.195122,0.731707317 C16.2439024,0.731707317 16.2926829,0.756097561 16.3170732,0.780487805 C16.3658537,0.829268293 16.4146341,0.902439024 16.4146341,0.975609756 L16.6829268,2.43902439 L12.2439024,3.29268293 L11.9756098,1.82926829 C11.9512195,1.63414634 12.0243902,1.51219512 12.1463415,1.48780488 Z M19.7073171,18.4878049 C19.6829268,18.5121951 19.6585366,18.5609756 19.5853659,18.5853659 L15.5609756,19.3414634 C15.4390244,19.3658537 15.3414634,19.2682927 15.2926829,19.1219512 L15.0243902,17.6829268 L19.4634146,16.8292683 L19.7317073,18.2682927 C19.7317073,18.3414634 19.7317073,18.4146341 19.7073171,18.4878049 Z" id="Shape"></path>
        </g>
    </g>
</svg>