<?xml version="1.0" encoding="UTF-8"?>
<svg width="24px" height="24px" viewBox="0 0 24 24" version="1.1" xmlns="http://www.w3.org/2000/svg" xmlns:xlink="http://www.w3.org/1999/xlink">
    <!-- Generator: Sketch 49.1 (51147) - http://www.bohemiancoding.com/sketch -->
    <title>icon-NNU</title>
    <desc>Created with Sketch.</desc>
    <defs></defs>
    <g id="icon-NNU" stroke="none" stroke-width="1" fill="none" fill-rule="evenodd">
        <g id="NNU" transform="translate(5.000000, 1.000000)" fill-rule="nonzero">
            <path d="M8.79157075,14.8076992 C8.79157075,14.8076992 6.63183991,15.240376 5.04489109,14.8076992 L5.91154595,10.3514743 C5.36337879,10.0250236 5,9.46237109 5,8.82173315 C5,7.81595406 5.896051,7 7.00026563,7 C8.10483443,7 9,7.81595406 9,8.82181952 C9,9.45753478 8.64290774,10.0178555 8.10235523,10.3433562 L8.79157075,14.8076992 Z" id="Shape" fill="#E8503E"></path>
            <path d="M6.99962388,21.0651519 L7.27252747,20.862024 C7.47453844,20.7115671 7.80884435,20.4405982 8.23472025,20.0579268 C8.93303461,19.4304555 9.63088779,18.7180222 10.2824611,17.9345227 C12.1091857,15.7383434 13.25,13.3621941 13.25,10.9996576 C13.25,8.63712119 12.1091857,6.26097193 10.2824173,4.06473994 C9.63093796,3.28135345 8.93316911,2.56905783 8.23474287,1.94153717 C7.98754933,1.7194392 7.7571738,1.5233446 7.54905601,1.35463756 C7.4213572,1.25112076 7.33590929,1.18484042 7.27307934,1.13770188 L7.00019566,0.934848057 L6.72747253,1.13797596 C6.52546156,1.28843293 6.19115565,1.55940181 5.76527975,1.94207318 C5.06696539,2.56954449 4.36911221,3.28197783 3.71753886,4.06547732 C1.89081433,6.26165665 0.75,8.63780591 0.75,11.0003424 C0.75,13.3628788 1.89081433,15.7390281 3.71765558,17.9353478 C4.36896272,18.7187695 5.06666331,19.4311128 5.76489961,20.0584628 C6.19079139,20.4411172 6.52501926,20.711962 6.72711132,20.8624399 L6.99962388,21.0651519 Z" id="Shape" stroke="#E8503E" stroke-width="1.5"></path>
        </g>
    </g>
</svg>