<?xml version="1.0" encoding="UTF-8"?>
<svg width="24px" height="24px" viewBox="0 0 24 24" version="1.1" xmlns="http://www.w3.org/2000/svg" xmlns:xlink="http://www.w3.org/1999/xlink">
    <!-- Generator: Sketch 49.1 (51147) - http://www.bohemiancoding.com/sketch -->
    <title>icon-restricted</title>
    <desc>Created with Sketch.</desc>
    <defs>
        <rect id="path-1" x="0.998504736" y="11" width="22" height="1.5"></rect>
    </defs>
    <g id="icon-restricted" stroke="none" stroke-width="1" fill="none" fill-rule="evenodd">
        <path d="M20.8028478,11.5846154 C20.1522453,10.7340659 19.0876232,10.1010989 17.8849945,9.84395604 L17.8258488,9.84395604 C17.7075575,9.84395604 17.5892662,9.82417582 17.4709748,9.82417582 C17.4709748,9.82417582 17.4709748,9.82417582 17.4512596,9.82417582 C17.6681271,9.56703297 17.8455641,9.30989011 17.9835706,9.01318681 C18.713034,7.43076923 18.4173056,5.92747253 18.4173056,5.84835165 L18.3581599,5.49230769 L18.0032859,5.45274725 C16.9386637,5.31428571 15.736035,5.63076923 14.7108434,6.28351648 L14.6516977,6.32307692 C14.4742607,6.48131868 14.3165389,6.63956044 14.1588171,6.7978022 C13.9025192,4.72087912 12.3647317,3.33626374 12.2858708,3.27692308 L11.9901424,3 L11.6549836,3.25714286 C10.4917853,4.14725275 9.80175246,5.49230769 9.72289157,6.77802198 C8.34282585,5.70989011 6.68674699,5.61098901 6.15443593,5.61098901 C6.07557503,5.61098901 6.03614458,5.61098901 6.03614458,5.61098901 L5.64184009,5.63076923 L5.58269441,6.02637363 C5.36582694,7.50989011 5.81927711,8.97362637 6.68674699,9.96263736 C4.67579409,10.2593407 3.33515882,11.7626374 3.27601314,11.821978 L3,12.1186813 L3.25629792,12.4351648 C4.10405257,13.5428571 5.46440307,14.2747253 6.76560789,14.3736264 C5.52354874,16.0351648 5.62212486,18.0527473 5.64184009,18.1516484 L5.66155531,18.5472527 L6.0558598,18.6065934 C6.25301205,18.6263736 6.46987952,18.6461538 6.68674699,18.6461538 C7.86966046,18.6461538 8.97371303,18.2505495 9.78203724,17.578022 C9.82146769,17.8153846 9.88061336,18.0527473 9.95947426,18.2703297 C10.5706462,19.9120879 11.8324206,20.7626374 11.871851,20.8021978 L12.1675794,21 L12.4435926,20.7824176 C13.2913472,20.1296703 13.9222344,19.0615385 14.1785323,17.8549451 L14.1785323,17.7956044 C14.1785323,17.6769231 14.1785323,17.5582418 14.1785323,17.4593407 C14.3953998,17.6373626 14.6319825,17.7956044 14.8685652,17.9142857 C15.7951807,18.3494505 16.7020811,18.4483516 17.2935378,18.4483516 C17.7075575,18.4483516 17.9835706,18.4087912 18.0230011,18.389011 L18.3778751,18.3296703 L18.4370208,17.9736264 C18.5947426,16.9054945 18.3187295,15.6989011 17.6681271,14.6703297 L17.6089814,14.6307692 C17.5104053,14.5120879 17.3921139,14.3934066 17.2738226,14.2747253 C17.6286966,14.2549451 17.9638554,14.1956044 18.279299,14.0769231 C19.9156627,13.4637363 20.7634173,12.1978022 20.8028478,12.1582418 L21,11.8615385 L20.8028478,11.5846154 Z M15.2628697,7.09450549 C15.9529025,6.63956044 16.7415115,6.42197802 17.4709748,6.42197802 C17.4709748,6.42197802 17.4709748,6.42197802 17.49069,6.42197802 C17.5104053,6.81758242 17.49069,7.72747253 17.0963855,8.5978022 C16.6232202,9.66593407 15.2628697,10.3978022 13.8236583,10.3582418 C13.8630887,9.64615385 14.0996714,8.12307692 15.2628697,7.09450549 Z M11.9309967,4.30549451 C12.4238773,4.85934066 13.3110624,6.08571429 13.2124863,7.64835165 C13.0350493,8.45934066 12.6407448,9.19120879 12.128149,9.70549451 C11.7732749,9.38901099 11.2015334,8.77582418 10.8663746,7.88571429 C10.4523549,6.77802198 10.905805,5.29450549 11.9309967,4.30549451 Z M6.50930997,6.61978022 C7.21905805,6.67912088 8.73713034,6.93626374 9.74260679,8.12307692 C10.1763417,8.83516484 10.4129244,9.62637363 10.3932092,10.3582418 C9.92004381,10.378022 9.07228916,10.3384615 8.2245345,9.92307692 C7.14019715,9.40879121 6.45016429,8.04395604 6.50930997,6.61978022 Z M7.65279299,10.8923077 C8.4611172,11.0703297 9.1905805,11.4461538 9.70317634,11.9802198 C9.38773275,12.3362637 8.77656079,12.9098901 7.88937568,13.2461538 C7.61336254,13.3450549 7.31763417,13.4043956 7.00219058,13.4043956 C6.0558598,13.4043956 5.05038335,12.9296703 4.32092004,12.178022 C4.85323111,11.7032967 6.09529025,10.7934066 7.65279299,10.8923077 Z M6.60788609,17.6769231 C6.64731654,16.9450549 6.88389923,15.4417582 8.06681271,14.4131868 C8.75684556,13.9582418 9.54545455,13.7406593 10.2749179,13.7406593 C10.2749179,13.7406593 10.2749179,13.7406593 10.2946331,13.7406593 C10.3143483,13.9384615 10.2946331,14.6901099 10.0974808,15.3626374 C10.0383352,15.5010989 9.97918949,15.6593407 9.93975904,15.7978022 C9.92004381,15.8373626 9.92004381,15.8769231 9.90032859,15.8967033 C9.40744797,16.9648352 8.04709748,17.6967033 6.60788609,17.6769231 Z M13.2124863,17.7164835 C13.0350493,18.5274725 12.66046,19.2593407 12.128149,19.7736264 C11.7732749,19.4571429 11.2015334,18.843956 10.8663746,17.9538462 C10.6692223,17.4 10.6692223,16.767033 10.8466594,16.1340659 C10.905805,15.9956044 10.9649507,15.8571429 11.0043812,15.7186813 C11.2212486,15.2241758 11.5366922,14.7692308 11.9309967,14.3736264 C12.4238773,14.9274725 13.3110624,16.1538462 13.2124863,17.7164835 Z M17.49069,17.4791209 C17.0175246,17.4989011 16.16977,17.4593407 15.3220153,17.043956 C14.2573932,16.5296703 13.5673604,15.1648352 13.6067908,13.7208791 C14.3165389,13.7802198 15.8346112,14.0373626 16.8400876,15.2241758 C17.2738226,15.956044 17.5104053,16.7472527 17.49069,17.4791209 Z M13.271632,12.7318681 C13.1927711,12.7318681 13.1533406,12.7318681 13.1533406,12.7318681 L12.7590361,12.7516484 L12.6801752,13.1472527 C12.66046,13.3252747 12.6407448,13.5032967 12.6407448,13.6615385 C12.4633078,13.4637363 12.3253012,13.3252747 12.305586,13.3252747 L12.0098576,13.0483516 L11.694414,13.3054945 C11.5564074,13.4241758 11.4184009,13.5428571 11.3001095,13.6615385 C11.2803943,13.3648352 11.2409639,13.1868132 11.2409639,13.167033 L11.1818182,12.810989 L10.8269441,12.7714286 C10.6889376,12.7516484 10.5312158,12.7516484 10.3932092,12.7318681 C10.6495071,12.4549451 10.7875137,12.2571429 10.7875137,12.2373626 L10.9846659,11.9406593 L10.7677985,11.6637363 C10.6889376,11.5450549 10.5903614,11.4461538 10.4917853,11.3274725 C10.7677985,11.3076923 10.9452355,11.2879121 10.9846659,11.2879121 L11.33954,11.2285714 L11.3986857,10.8725275 C11.4184009,10.6945055 11.4381161,10.5164835 11.4381161,10.3384615 C11.7141292,10.5956044 11.9112815,10.7340659 11.9309967,10.7538462 L12.2267251,10.9516484 L12.5027382,10.7340659 C12.6407448,10.6351648 12.7590361,10.5164835 12.8773275,10.3978022 C12.8576123,10.6549451 12.8773275,10.8131868 12.8773275,10.8527473 L12.8970427,11.2483516 L13.2913472,11.3076923 C13.449069,11.3274725 13.6067908,11.3472527 13.7842278,11.3472527 C13.5476451,11.5648352 13.4096386,11.7032967 13.3899233,11.7428571 L13.0744797,12.0395604 L13.3307777,12.356044 C13.4293538,12.4945055 13.5476451,12.6131868 13.6659365,12.7516484 C13.5082147,12.7318681 13.3702081,12.7318681 13.271632,12.7318681 Z M17.9638554,13.1472527 C17.6878423,13.2461538 17.3921139,13.3054945 17.0766703,13.3054945 C16.1303395,13.3054945 15.1248631,12.8307692 14.3953998,12.0791209 C14.9474261,11.5846154 16.1894852,10.6945055 17.7272727,10.7934066 C18.5355969,10.9714286 19.2650602,11.367033 19.7776561,11.8813187 C19.4622125,12.2373626 18.8510405,12.810989 17.9638554,13.1472527 Z" id="Shape" fill="#999990" fill-rule="nonzero"></path>
        <g id="Rectangle-4" transform="translate(11.998505, 11.750000) rotate(46.000000) translate(-11.998505, -11.750000) ">
            <use fill="#E8503E" fill-rule="evenodd" xlink:href="#path-1"></use>
            <rect stroke="#FFFFFF" stroke-width="1.25" x="0.373504736" y="10.375" width="23.25" height="2.75"></rect>
        </g>
        <circle id="Oval" stroke="#E8503E" stroke-width="1.5" cx="12" cy="12" r="11"></circle>
    </g>
</svg>