<?xml version="1.0" encoding="UTF-8"?>
<svg width="24px" height="24px" viewBox="0 0 24 24" version="1.1" xmlns="http://www.w3.org/2000/svg" xmlns:xlink="http://www.w3.org/1999/xlink">
    <!-- Generator: Sketch 49.1 (51147) - http://www.bohemiancoding.com/sketch -->
    <title>icon-Save-for-Later</title>
    <desc>Created with Sketch.</desc>
    <defs></defs>
    <g id="icon-Save-for-Later" stroke="none" stroke-width="1" fill="none" fill-rule="evenodd">
        <g id="Group" transform="translate(4.000000, 4.000000)">
            <path fill="#363630" d="M0.636473702,16 L15.3642679,16 C15.7174524,16 16,15.7180617 16,15.3656388 L16,0.651982379 C16,0.299559471 15.7174524,0.0176211454 15.3642679,0.0176211454 L12.3798587,0.0176211454 L12.3798587,1.37444934 L14.6402396,1.37444934 L14.6402396,14.660793 L1.34284273,14.660793 L1.34284273,1.35682819 L3.60322361,1.35682819 L3.60322361,0 L0.636473702,0 C0.28328919,0 0.000741579458,0.281938326 0.000741579458,0.634361233 L0.000741579458,15.3303965 C-0.0169176462,15.7004405 0.28328919,16 0.636473702,16 Z" id="Shape" fill-rule="nonzero"></path>
            <path fill="#E8503E" d="M4.94532476,12 L4.94532476,0.0176211454 L11.0554168,0.0176211454 L11.0554168,12 C11.0554168,12.3348018 10.6669139,12.4933921 10.4196847,12.2819383 L8.24759995,10.3436123 C8.10632614,10.2202643 7.87675621,10.2202643 7.73548241,10.3436123 L5.56339765,12.2819383 C5.33382772,12.4933921 4.94532476,12.3171806 4.94532476,12 Z" id="Path"></path>
        </g>
    </g>
</svg>