<?xml version="1.0" encoding="UTF-8"?>
<svg width="24px" height="24px" viewBox="0 0 24 24" version="1.1" xmlns="http://www.w3.org/2000/svg" xmlns:xlink="http://www.w3.org/1999/xlink">
    <!-- Generator: Sketch 49.1 (51147) - http://www.bohemiancoding.com/sketch -->
    <title>icon-Scent-Portfolio</title>
    <desc>Created with Sketch.</desc>
    <defs></defs>
    <g id="icon-Scent-Portfolio" stroke="none" stroke-width="1" fill="none" fill-rule="evenodd">
        <path d="M22.7590361,11.4923077 C21.9638554,10.4527473 20.6626506,9.67912088 19.1927711,9.36483516 L19.1204819,9.36483516 C18.9759036,9.36483516 18.8313253,9.34065934 18.686747,9.34065934 C18.686747,9.34065934 18.686747,9.34065934 18.6626506,9.34065934 C18.9277108,9.02637363 19.1445783,8.71208791 19.313253,8.34945055 C20.2048193,6.41538462 19.8433735,4.57802198 19.8433735,4.48131868 L19.7710843,4.04615385 L19.3373494,3.9978022 C18.0361446,3.82857143 16.5662651,4.21538462 15.313253,5.01318681 L15.2409639,5.06153846 C15.0240964,5.25494505 14.8313253,5.44835165 14.6385542,5.64175824 C14.3253012,3.1032967 12.4457831,1.41098901 12.3493976,1.33846154 L11.9879518,1 L11.5783133,1.31428571 C10.1566265,2.4021978 9.31325301,4.04615385 9.21686747,5.61758242 C7.53012048,4.31208791 5.5060241,4.19120879 4.85542169,4.19120879 C4.75903614,4.19120879 4.71084337,4.19120879 4.71084337,4.19120879 L4.22891566,4.21538462 L4.15662651,4.6989011 C3.89156627,6.51208791 4.44578313,8.3010989 5.5060241,9.50989011 C3.04819277,9.87252747 1.40963855,11.7098901 1.3373494,11.7824176 L1,12.1450549 L1.31325301,12.5318681 C2.34939759,13.8857143 4.01204819,14.7802198 5.60240964,14.9010989 C4.08433735,16.9318681 4.20481928,19.3978022 4.22891566,19.5186813 L4.25301205,20.0021978 L4.73493976,20.0747253 C4.97590361,20.0989011 5.24096386,20.1230769 5.5060241,20.1230769 C6.95180723,20.1230769 8.30120482,19.6395604 9.28915663,18.8175824 C9.3373494,19.1076923 9.40963855,19.3978022 9.5060241,19.6637363 C10.253012,21.6703297 11.7951807,22.7098901 11.8433735,22.7582418 L12.2048193,23 L12.5421687,22.7340659 C13.5783133,21.9362637 14.3493976,20.6307692 14.6626506,19.156044 L14.6626506,19.0835165 C14.6626506,18.9384615 14.6626506,18.7934066 14.6626506,18.6725275 C14.9277108,18.8901099 15.2168675,19.0835165 15.5060241,19.2285714 C16.6385542,19.7604396 17.746988,19.8813187 18.4698795,19.8813187 C18.9759036,19.8813187 19.313253,19.832967 19.3614458,19.8087912 L19.7951807,19.7362637 L19.8674699,19.3010989 C20.060241,17.9956044 19.7228916,16.5208791 18.9277108,15.2637363 L18.8554217,15.2153846 C18.7349398,15.0703297 18.5903614,14.9252747 18.4457831,14.7802198 C18.8795181,14.756044 19.2891566,14.6835165 19.6746988,14.5384615 C21.6746988,13.789011 22.7108434,12.2417582 22.7590361,12.1934066 L23,11.8307692 L22.7590361,11.4923077 Z M15.9879518,6.0043956 C16.8313253,5.44835165 17.7951807,5.18241758 18.686747,5.18241758 C18.686747,5.18241758 18.686747,5.18241758 18.7108434,5.18241758 C18.7349398,5.66593407 18.7108434,6.77802198 18.2289157,7.84175824 C17.6506024,9.14725275 15.9879518,10.0417582 14.2289157,9.99340659 C14.2771084,9.12307692 14.5662651,7.26153846 15.9879518,6.0043956 Z M11.9156627,2.5956044 C12.5180723,3.27252747 13.6024096,4.77142857 13.4819277,6.68131868 C13.2650602,7.67252747 12.7831325,8.56703297 12.1566265,9.1956044 C11.7228916,8.80879121 11.0240964,8.05934066 10.6144578,6.97142857 C10.1084337,5.61758242 10.6626506,3.8043956 11.9156627,2.5956044 Z M5.28915663,5.42417582 C6.15662651,5.4967033 8.01204819,5.81098901 9.24096386,7.26153846 C9.77108434,8.13186813 10.060241,9.0989011 10.0361446,9.99340659 C9.45783133,10.0175824 8.42168675,9.96923077 7.38554217,9.46153846 C6.06024096,8.83296703 5.21686747,7.16483516 5.28915663,5.42417582 Z M6.68674699,10.6461538 C7.6746988,10.8637363 8.56626506,11.3230769 9.19277108,11.9758242 C8.80722892,12.410989 8.06024096,13.1120879 6.97590361,13.5230769 C6.63855422,13.643956 6.27710843,13.7164835 5.89156627,13.7164835 C4.73493976,13.7164835 3.5060241,13.1362637 2.61445783,12.2175824 C3.26506024,11.6373626 4.78313253,10.5252747 6.68674699,10.6461538 Z M5.40963855,18.9384615 C5.45783133,18.043956 5.74698795,16.2065934 7.19277108,14.9494505 C8.03614458,14.3934066 9,14.1274725 9.89156627,14.1274725 C9.89156627,14.1274725 9.89156627,14.1274725 9.91566265,14.1274725 C9.93975904,14.3692308 9.91566265,15.2879121 9.6746988,16.1098901 C9.60240964,16.2791209 9.53012048,16.4725275 9.48192771,16.6417582 C9.45783133,16.6901099 9.45783133,16.7384615 9.43373494,16.7626374 C8.8313253,18.0681319 7.1686747,18.9626374 5.40963855,18.9384615 Z M13.4819277,18.9868132 C13.2650602,19.978022 12.8072289,20.8725275 12.1566265,21.5010989 C11.7228916,21.1142857 11.0240964,20.3648352 10.6144578,19.2769231 C10.373494,18.6 10.373494,17.8263736 10.5903614,17.0527473 C10.6626506,16.8835165 10.7349398,16.7142857 10.7831325,16.5450549 C11.0481928,15.9406593 11.4337349,15.3846154 11.9156627,14.9010989 C12.5180723,15.578022 13.6024096,17.0769231 13.4819277,18.9868132 Z M18.7108434,18.6967033 C18.1325301,18.7208791 17.0963855,18.6725275 16.060241,18.1648352 C14.7590361,17.5362637 13.9156627,15.8681319 13.9638554,14.1032967 C14.8313253,14.1758242 16.686747,14.4901099 17.9156627,15.9406593 C18.4457831,16.8351648 18.7349398,17.8021978 18.7108434,18.6967033 Z M13.5542169,12.8945055 C13.4578313,12.8945055 13.4096386,12.8945055 13.4096386,12.8945055 L12.9277108,12.9186813 L12.8313253,13.4021978 C12.8072289,13.6197802 12.7831325,13.8373626 12.7831325,14.0307692 C12.5662651,13.789011 12.3975904,13.6197802 12.373494,13.6197802 L12.0120482,13.2813187 L11.626506,13.5956044 C11.4578313,13.7406593 11.2891566,13.8857143 11.1445783,14.0307692 C11.1204819,13.6681319 11.0722892,13.4505495 11.0722892,13.4263736 L11,12.9912088 L10.5662651,12.9428571 C10.3975904,12.9186813 10.2048193,12.9186813 10.0361446,12.8945055 C10.3493976,12.556044 10.5180723,12.3142857 10.5180723,12.2901099 L10.7590361,11.9274725 L10.4939759,11.589011 C10.3975904,11.443956 10.2771084,11.3230769 10.1566265,11.178022 C10.4939759,11.1538462 10.7108434,11.1296703 10.7590361,11.1296703 L11.1927711,11.0571429 L11.2650602,10.621978 C11.2891566,10.4043956 11.313253,10.1868132 11.313253,9.96923077 C11.6506024,10.2835165 11.8915663,10.4527473 11.9156627,10.4769231 L12.2771084,10.7186813 L12.6144578,10.4527473 C12.7831325,10.3318681 12.9277108,10.1868132 13.0722892,10.0417582 C13.0481928,10.356044 13.0722892,10.5494505 13.0722892,10.5978022 L13.0963855,11.0813187 L13.5783133,11.1538462 C13.7710843,11.178022 13.9638554,11.2021978 14.1807229,11.2021978 C13.8915663,11.4681319 13.7228916,11.6373626 13.6987952,11.6857143 L13.313253,12.0483516 L13.626506,12.4351648 C13.746988,12.6043956 13.8915663,12.7494505 14.0361446,12.9186813 C13.8433735,12.8945055 13.6746988,12.8945055 13.5542169,12.8945055 Z M19.2891566,13.4021978 C18.9518072,13.5230769 18.5903614,13.5956044 18.2048193,13.5956044 C17.0481928,13.5956044 15.8192771,13.0153846 14.9277108,12.0967033 C15.6024096,11.4923077 17.1204819,10.4043956 19,10.5252747 C19.9879518,10.7428571 20.8795181,11.2263736 21.5060241,11.8549451 C21.1204819,12.2901099 20.373494,12.9912088 19.2891566,13.4021978 Z" id="Shape" fill="#0138A0" fill-rule="nonzero"></path>
    </g>
</svg>