<?xml version="1.0" encoding="UTF-8"?>
<svg width="24px" height="24px" viewBox="0 0 24 24" version="1.1" xmlns="http://www.w3.org/2000/svg" xmlns:xlink="http://www.w3.org/1999/xlink">
    <!-- Generator: Sketch 49.1 (51147) - http://www.bohemiancoding.com/sketch -->
    <title>icon-Submitted</title>
    <desc>Created with Sketch.</desc>
    <defs></defs>
    <g id="icon-Submitted" stroke="none" stroke-width="1" fill="none" fill-rule="evenodd">
        <g id="noun_1432632" transform="translate(3.000000, 4.000000)" stroke="#0138A0" stroke-width="1.25">
            <path d="M0.817977528,0.0179775281 C0.375280899,0.0179775281 0.0179775281,0.37752809 0.0179775281,0.817977528 C0.0179775281,0.896629213 0.0292134831,0.973033708 0.0516853933,1.04494382 L0.0853932584,1.13707865 L2.58876404,8 L0.0898876404,14.847191 L0.0471910112,14.9685393 C0.0269662921,15.0359551 0.0179775281,15.1078652 0.0179775281,15.1820225 C0.0179775281,15.6247191 0.375280899,15.9820225 0.817977528,15.9820225 C0.907865169,15.9820225 0.995505618,15.9662921 1.07640449,15.9393258 C1.08764045,15.9370787 1.09662921,15.9325843 1.10561798,15.9280899 L1.17977528,15.894382 L17.1011236,8.75955056 L17.2337079,8.6988764 C17.4764045,8.56179775 17.6426966,8.3011236 17.6426966,8 C17.6426966,7.7011236 17.4786517,7.43820225 17.2337079,7.3011236 L17.1011236,7.24044944 L1.21797753,0.125842697 L1.07191011,0.0606741573 C0.991011236,0.0337078652 0.907865169,0.0179775281 0.817977528,0.0179775281 Z" id="Shape"></path>
            <path d="M2.58426966,8 L8.29855538,8" id="Shape"></path>
        </g>
    </g>
</svg>