<?xml version="1.0" encoding="UTF-8"?>
<svg width="24px" height="24px" viewBox="0 0 24 24" version="1.1" xmlns="http://www.w3.org/2000/svg" xmlns:xlink="http://www.w3.org/1999/xlink">
    <!-- Generator: Sketch 49.1 (51147) - http://www.bohemiancoding.com/sketch -->
    <title>icon-temp-exclusivity</title>
    <desc>Created with Sketch.</desc>
    <defs></defs>
    <g id="icon-temp-exclusivity" stroke="none" stroke-width="1" fill="none" fill-rule="evenodd">
        <g id="EXCLUSIVE" transform="translate(4.000000, 2.000000)" fill="#E8503E" fill-rule="nonzero">
            <path d="M11.6578528,20.3015873 L3.40566485,20.3015873 C1.50635176,20.3015873 0,18.7337481 0,16.9046024 L0,10.6985722 C0,8.80409986 1.57184532,7.3015873 3.40566485,7.3015873 L11.5923592,7.3015873 C13.4916723,7.3015873 14.998024,8.8694265 14.998024,10.6985722 L14.998024,16.9046024 C15.0635176,18.7337481 13.4916723,20.3015873 11.6578528,20.3015873 Z M3.40566485,8.54279333 C2.22678086,8.54279333 1.3098711,9.52269283 1.3098711,10.6332456 L1.3098711,16.8392757 C1.3098711,18.0151551 2.29227442,18.929728 3.40566485,18.929728 L11.5923592,18.929728 C12.7712432,18.929728 13.688153,17.9498285 13.688153,16.8392757 L13.688153,10.6332456 C13.688153,9.4573662 12.7057496,8.54279333 11.5923592,8.54279333 L3.40566485,8.54279333 Z" id="Shape"></path>
            <path d="M11.3081481,8.25396825 C10.9597037,8.25396825 10.7274074,8.01508722 10.7274074,7.65676568 L10.7274074,4.06097753 C10.7274074,2.50825083 9.50785185,1.19440515 7.93985185,1.19440515 L7.12681481,1.19440515 C5.61688889,1.19440515 4.33925926,2.44853057 4.33925926,4.06097753 L4.33925926,7.59704542 C4.33925926,7.95536697 4.10696296,8.194248 3.75851852,8.194248 C3.41007407,8.194248 3.17777778,7.95536697 3.17777778,7.59704542 L3.17777778,4.06097753 C3.17777778,1.85132799 4.92,0 7.12681481,0 L7.93985185,0 C10.0885926,0 11.8888889,1.79160773 11.8888889,4.06097753 L11.8888889,7.59704542 C11.8888889,7.95536697 11.6565926,8.25396825 11.3081481,8.25396825 Z" id="Shape"></path>
            <g id="noun_62332" transform="translate(4.866667, 9.285714)" stroke="#E8503E" stroke-width="0.25">
                <path d="M3.0801364,0.714285714 L2.96083275,0.714285714 C2.65395475,0.714285714 2.41353295,0.998213256 2.41353295,1.32909522 L2.41353295,4.86681772 L0.807016386,6.59630573 C0.569089536,6.85186498 0.582244691,7.26662907 0.805882321,7.52096554 C1.03110764,7.77872577 1.42553547,7.77872577 1.66300869,7.52096554 L3.43782052,5.60659448 C3.45165611,5.59069845 3.46276995,5.57455787 3.4759251,5.56012916 C3.57368151,5.45154706 3.63333333,5.30383626 3.63333333,5.14096309 L3.63333333,1.32909522 C3.63310652,0.998213256 3.38633396,0.714285714 3.0801364,0.714285714 Z" id="Shape"></path>
            </g>
        </g>
    </g>
</svg>