<?xml version="1.0" encoding="UTF-8"?>
<svg width="24px" height="24px" viewBox="0 0 24 24" version="1.1" xmlns="http://www.w3.org/2000/svg" xmlns:xlink="http://www.w3.org/1999/xlink">
    <!-- Generator: Sketch 50 (54983) - http://www.bohemiancoding.com/sketch -->
    <title>icon-approve@2x</title>
    <desc>Created with Sketch.</desc>
    <defs></defs>
    <g id="icon-approve" stroke="none" stroke-width="1" fill="#ff0000" fill-rule="evenodd">
        <g id="noun_1672728" transform="translate(4.000000, 4.000000)" fill="#CCCCC7" fill-rule="nonzero" stroke="#CCCCC7" stroke-width="0.25">
            <path d="M7.99507692,10.5403077 C7.87221635,10.5406013 7.75368597,10.4949452 7.66276923,10.4123077 L4.89846154,7.87692308 C4.76654809,7.75820097 4.70799253,7.57812224 4.74485216,7.40452079 C4.78171179,7.23091934 4.90838677,7.09016937 5.07715985,7.03529002 C5.24593293,6.98041067 5.43116347,7.01973943 5.56307692,7.13846154 L7.96307692,9.35384615 L14.8972308,1.74030769 C15.0800795,1.53638717 15.3936179,1.51930511 15.5975385,1.70215385 C15.801459,1.88500258 15.818541,2.19854102 15.6356923,2.40246154 L8.36923077,10.3803077 C8.28098934,10.477012 8.15786515,10.5345881 8.02707692,10.5403077 L7.99507692,10.5403077 Z M14.2769231,5.33907692 C15.5862294,8.60672581 14.2296048,12.3363344 11.1268764,13.9991299 C8.02414799,15.6619254 4.16734171,14.7262672 2.17147379,11.8265563 C0.175605875,8.92684531 0.678809084,4.99019732 3.33989839,2.68576331 C6.0009877,0.381329299 9.96914113,0.445898938 12.5538462,2.83569231 L13.216,2.09723077 C10.2320735,-0.638505099 5.65883748,-0.662197135 2.64672646,2.04247575 C-0.365384556,4.74714864 -0.832291157,9.29654937 1.56765169,12.5566633 C3.96759454,15.8167771 8.45030737,16.7225003 11.9277158,14.6498935 C15.4051242,12.5772868 16.7411326,8.20348631 15.0153846,4.54153846 L14.2769231,5.33907692 Z" id="Shape"></path>
        </g>
    </g>
</svg>