<svg width="24" height="24" xmlns="http://www.w3.org/2000/svg">
 <!-- Generator: Sketch 50 (54983) - http://www.bohemiancoding.com/sketch -->
 <title>icon-rework@2x</title>
 <desc>Created with Sketch.</desc>

 <g>
  <title>background</title>
  <rect fill="none" id="canvas_background" height="402" width="582" y="-1" x="-1"/>
 </g>
 <g>
  <title>Layer 1</title>
  <g fill-rule="evenodd" fill="none" id="icon-rework">
   <g stroke-width="0.25" stroke="#000000" fill-rule="nonzero" fill="#000000" id="noun_1152932">
    <path stroke="#ffffff" fill="#ffffff" id="Shape" d="m18.473871,10.388889c-0.610379,-1.808491 -1.981609,-3.271287 -3.764194,-4.015556c-1.782026,-0.726234 -3.788453,-0.702947 -5.55258,0.064445l0.903226,-2.444445l-0.846775,-0.308889l-1.467742,3.906667l3.802581,1.824445l0.401936,-0.804445l-2.66,-1.26c1.327742,-0.608889 3.22,-0.926667 5.053548,-0.16c1.547453,0.641521 2.740065,1.906669 3.274193,3.473333c0.494664,1.396884 0.462607,2.922218 -0.090322,4.297778c-0.62218,1.347493 -1.716232,2.429701 -3.082258,3.048889c-1.517325,0.708522 -3.270932,0.740901 -4.814194,0.088889c-2.084193,-0.873333 -3.434516,-2.771111 -3.612903,-5.075556l-0.903226,0.064445c0.19871,2.642222 1.75,4.822222 4.152581,5.826667c1.778172,0.752119 3.799071,0.715693 5.548064,-0.1c1.576284,-0.702704 2.837142,-1.948291 3.545162,-3.502223c0.644467,-1.573436 0.684602,-3.324002 0.112903,-4.924444z"/>
   </g>
  </g>
 </g>
</svg>