<?xml version="1.0" encoding="UTF-8"?>
<svg width="24px" height="24px" viewBox="0 0 24 24" version="1.1" xmlns="http://www.w3.org/2000/svg" xmlns:xlink="http://www.w3.org/1999/xlink">
    <!-- Generator: Sketch 50 (54983) - http://www.bohemiancoding.com/sketch -->
    <title>icon-request-sample@2x</title>
    <desc>Created with Sketch.</desc>
    <defs></defs>
    <g id="icon-request-sample" stroke="none" stroke-width="1" fill="none" fill-rule="evenodd">
        <g id="icon-request" transform="translate(5.000000, 1.000000)" fill-rule="nonzero" stroke="#CCCCC7">
            <path d="M6.99962388,21.0651519 L7.27252747,20.862024 C7.47453844,20.7115671 7.80884435,20.4405982 8.23472025,20.0579268 C8.93303461,19.4304555 9.63088779,18.7180222 10.2824611,17.9345227 C12.1091857,15.7383434 13.25,13.3621941 13.25,10.9996576 C13.25,8.63712119 12.1091857,6.26097193 10.2824173,4.06473994 C9.63093796,3.28135345 8.93316911,2.56905783 8.23474287,1.94153717 C7.98754933,1.7194392 7.7571738,1.5233446 7.54905601,1.35463756 C7.4213572,1.25112076 7.33590929,1.18484042 7.27307934,1.13770188 L7.00019566,0.934848057 L6.72747253,1.13797596 C6.52546156,1.28843293 6.19115565,1.55940181 5.76527975,1.94207318 C5.06696539,2.56954449 4.36911221,3.28197783 3.71753886,4.06547732 C1.89081433,6.26165665 0.75,8.63780591 0.75,11.0003424 C0.75,13.3628788 1.89081433,15.7390281 3.71765558,17.9353478 C4.36896272,18.7187695 5.06666331,19.4311128 5.76489961,20.0584628 C6.19079139,20.4411172 6.52501926,20.711962 6.72711132,20.8624399 L6.99962388,21.0651519 Z" id="Shape" stroke-width="1.5"></path>
            <path d="M7.06786759,14.9931651 L10.1892342,11.7380184 C10.2810867,11.6423889 10.1432104,11.4988431 10.0513579,11.5944726 L7.16755538,14.5966592 C7.12862564,14.6371871 7.09745054,14.6240949 7.09745054,14.5679098 L7.09745054,7.10151756 C7.09745054,7.04547986 7.05376695,7 6.99994254,7 C6.94611813,7 6.90243456,7.04547986 6.90243456,7.10151756 L6.90243456,14.5679098 C6.90243456,14.6250803 6.87104962,14.6369665 6.83233434,14.5966592 L3.94872222,11.5944726 C3.8568697,11.4988431 3.71879836,11.6423889 3.81084591,11.7380184 L6.92871401,14.9931651 C6.96670492,15.0328287 7.02941984,15.0332607 7.06786759,14.9931651 Z M3.09756098,17 C3.04367953,17 3,16.9545451 3,16.8984736 C3,16.8424022 3.04367953,16.7969472 3.09756098,16.7969472 L10.902439,16.7969472 C10.9563205,16.7969472 11,16.8424022 11,16.8984736 C11,16.9545451 10.9563205,17 10.902439,17 L3.09756098,17 Z" id="Shape" fill="#CCCCC7"></path>
        </g>
    </g>
</svg>