<?xml version="1.0" encoding="UTF-8"?>
<svg width="24px" height="24px" viewBox="0 0 24 24" version="1.1" xmlns="http://www.w3.org/2000/svg" xmlns:xlink="http://www.w3.org/1999/xlink">
    <!-- Generator: Sketch 50 (54983) - http://www.bohemiancoding.com/sketch -->
    <title>icon-reject@2x</title>
    <desc>Created with Sketch.</desc>
    <defs></defs>
    <g id="icon-reject" stroke="none" stroke-width="1" fill="none" fill-rule="evenodd">
        <g id="noun_1214839" transform="translate(4.000000, 4.000000)" fill="#CCCCC7" fill-rule="nonzero" stroke="#CCCCC7" stroke-width="0.5">
            <path d="M8,0 C3.58602909,0 0,3.58602545 0,8 C0,12.4139636 3.58602909,16 8,16 C12.4139709,16 16,12.4139636 16,8 C16,3.58602545 12.4139709,0 8,0 Z M8,0.727272727 C12.0209236,0.727272727 15.2727273,3.97907273 15.2727273,8 C15.2727273,12.0209273 12.0209236,15.2727273 8,15.2727273 C3.97907636,15.2727273 0.727272727,12.0209273 0.727272727,8 C0.727272727,3.97907273 3.97907636,0.727272727 8,0.727272727 Z M5.23295455,4.90340909 C5.09140749,4.91718461 4.97087764,5.01220419 4.9244413,5.14662518 C4.87800496,5.28104616 4.91418352,5.43020137 5.01704545,5.52840909 L7.48863636,8 L5.01704545,10.4659091 C4.92166728,10.556617 4.88274598,10.6917819 4.91527869,10.8193222 C4.94781141,10.9468625 5.04672,11.0468701 5.17389308,11.0808101 C5.30106616,11.1147501 5.43665289,11.0773246 5.52840909,10.9829545 L8,8.51136364 L10.4715909,10.9829545 C10.5633471,11.0773246 10.6989338,11.1147501 10.8261069,11.0808101 C10.95328,11.0468701 11.0521886,10.9468625 11.0847213,10.8193222 C11.117254,10.6917819 11.0783327,10.556617 10.9829545,10.4659091 L8.51136364,8 L10.9829545,5.52840909 C11.0986876,5.41971298 11.1305286,5.24850069 11.0616111,5.10546444 C10.9926936,4.9624282 10.8389496,4.88063414 10.6818182,4.90340909 C10.6016784,4.91498695 10.5276946,4.95297866 10.4715909,5.01136364 L8,7.48295455 L5.52840909,5.01136364 C5.45138544,4.93244472 5.34271317,4.89273755 5.23295455,4.90340909 Z" id="Shape"></path>
        </g>
    </g>
</svg>