<?xml version="1.0" encoding="UTF-8"?>
<svg width="24px" height="24px" viewBox="0 0 24 24" version="1.1" xmlns="http://www.w3.org/2000/svg" xmlns:xlink="http://www.w3.org/1999/xlink">
    <!-- Generator: Sketch 50 (54983) - http://www.bohemiancoding.com/sketch -->
    <title>icon-private-message@2x</title>
    <desc>Created with Sketch.</desc>
    <defs></defs>
    <g id="icon-private-message" stroke="none" stroke-width="1" fill="none" fill-rule="evenodd">
        <path d="M20.8569494,11.5531389 C21.0275488,11.8062284 21.055982,12.1542264 20.8853826,12.4073159 C20.7147833,12.6604053 17.1037638,18.0385566 11.9289169,18.0385566 C11.3602525,18.0385566 10.791588,17.9752842 10.1944902,17.8487395 C9.85329156,17.7538309 9.62582576,17.4058329 9.71112543,16.9945625 C9.79642511,16.5832921 10.1091906,16.3618389 10.4788225,16.4567474 C14.9428387,17.5007415 18.525425,13.3564014 19.5774543,11.9960455 C18.8381905,11.0153238 18.0704934,10.192783 17.3027964,9.52842313 C17.0184641,9.27533366 16.9900309,8.83242709 17.1890635,8.54770143 C17.4165293,8.23133959 17.8145944,8.19970341 18.0704934,8.4211567 C19.0087898,9.24369748 19.9470862,10.3193277 20.8569494,11.5531389 Z M19.0087898,4.21354424 C19.2646888,4.4982699 19.2646888,4.94117647 19.0087898,5.22590213 L5.90107336,19.7785467 C5.78734046,19.9050914 5.61674111,20 5.44614177,20 C5.27554242,20 5.1333763,19.9367276 4.99121018,19.7785467 C4.73531116,19.4938211 4.73531116,19.0509145 4.99121018,18.7661888 L7.09526879,16.4251112 C5.73047401,15.5076619 4.42254569,14.147306 3.14305059,12.4073159 C2.97245124,12.1542264 2.94401802,11.8062284 3.11461736,11.5531389 C3.19991704,11.4898665 4.53627859,9.46515077 6.75407009,7.88334157 C9.71112543,5.73208107 12.8387801,5.38408304 15.738969,6.8393475 L18.0989266,4.21354424 C18.3548257,3.92881859 18.7528908,3.92881859 19.0087898,4.21354424 Z M8.03356519,15.4127533 L9.42679319,13.8625803 C8.65909613,12.5338606 8.77282903,10.7305981 9.82485833,9.56005932 C10.8768876,8.38952051 12.4975814,8.23133959 13.6917769,9.11715274 L14.7722394,7.91497776 C12.3838485,6.87098369 9.93859123,7.25061789 7.4649007,9.02224419 C6.01480626,10.0662383 4.96277695,11.3316856 4.47941214,11.9644093 C5.64517434,13.4829461 6.83936977,14.6534849 8.03356519,15.4127533 Z M12.7534804,10.1611468 C12.0995163,9.81314879 11.2749528,9.97132971 10.7347215,10.5724172 C10.1944902,11.1735047 10.0807574,12.090954 10.3650896,12.8185863 L12.7534804,10.1611468 Z" id="Shape" fill="#7F7F74" fill-rule="nonzero"></path>
    </g>
</svg>