<svg width="24" height="24" xmlns="http://www.w3.org/2000/svg">
 <!-- Generator: Sketch 50 (54983) - http://www.bohemiancoding.com/sketch -->
 <title>icon-private-message@2x</title>
 <desc>Created with Sketch.</desc>

 <g>
  <title>background</title>
  <rect fill="none" id="canvas_background" height="402" width="582" y="-1" x="-1"/>
 </g>
 <g>
  <title>Layer 1</title>
  <g fill-rule="evenodd" fill="none" id="icon-private-message">
   <path fill-rule="nonzero" fill="#ffffff" id="Shape" d="m20.856949,11.553139c0.1706,0.253089 0.199033,0.601087 0.028434,0.854177c-0.1706,0.253089 -3.781619,5.631241 -8.956466,5.631241c-0.568665,0 -1.137329,-0.063273 -1.734427,-0.189817c-0.341198,-0.094909 -0.568664,-0.442907 -0.483365,-0.854177c0.0853,-0.411271 0.398066,-0.632724 0.767697,-0.537816c4.464017,1.043995 8.046603,-3.100346 9.098632,-4.460702c-0.739264,-0.980721 -1.506961,-1.803262 -2.274658,-2.467622c-0.284332,-0.253089 -0.312765,-0.695996 -0.113733,-0.980722c0.227466,-0.316361 0.625531,-0.347998 0.88143,-0.126544c0.938297,0.82254 1.876593,1.898171 2.786456,3.131982zm-1.848159,-7.339595c0.255899,0.284726 0.255899,0.727632 0,1.012358l-13.107717,14.552645c-0.113733,0.126544 -0.284332,0.221453 -0.454931,0.221453c-0.1706,0 -0.312766,-0.063272 -0.454932,-0.221453c-0.255899,-0.284726 -0.255899,-0.727632 0,-1.012358l2.104059,-2.341078c-1.364795,-0.917449 -2.672723,-2.277805 -3.952218,-4.017795c-0.1706,-0.25309 -0.199033,-0.601088 -0.028434,-0.854177c0.0853,-0.063273 1.421662,-2.087988 3.639453,-3.669797c2.957055,-2.151261 6.08471,-2.499259 8.984899,-1.043995l2.359958,-2.625803c0.255899,-0.284725 0.653964,-0.284725 0.909863,0zm-10.975225,11.199209l1.393228,-1.550173c-0.767697,-1.328719 -0.653964,-3.131982 0.398065,-4.302521c1.05203,-1.170538 2.672723,-1.328719 3.866919,-0.442906l1.080462,-1.202175c-2.38839,-1.043994 -4.833648,-0.66436 -7.307338,1.107266c-1.450095,1.043994 -2.502124,2.309442 -2.985489,2.942165c1.165762,1.518537 2.359958,2.689076 3.554153,3.448344zm4.719915,-5.251606c-0.653964,-0.347998 -1.478527,-0.189817 -2.018758,0.41127c-0.540232,0.601088 -0.653965,1.518537 -0.369632,2.246169l2.38839,-2.657439z"/>
  </g>
  <ellipse id="svg_1" cy="20.101266" cx="15.48101" stroke-width="1.5" stroke="#ffffff" fill="#ffffff"/>
 </g>
</svg>