<svg width="24" height="24" xmlns="http://www.w3.org/2000/svg">
 <!-- Generator: Sketch 50 (54983) - http://www.bohemiancoding.com/sketch -->
 <title>icon-approve@2x</title>
 <desc>Created with Sketch.</desc>

 <g>
  <title>background</title>
  <rect fill="none" id="canvas_background" height="402" width="582" y="-1" x="-1"/>
 </g>
 <g>
  <title>Layer 1</title>
  <g fill-rule="evenodd" fill="#ff0000" id="icon-approve">
   <g stroke-width="0.25" stroke="#000000" fill-rule="nonzero" fill="#000000" id="noun_1672728">
    <path stroke="#ffffff" fill="#ffffff" id="Shape" d="m11.99508,14.54031c-0.12286,0.00029 -0.24139,-0.04536 -0.33231,-0.128l-2.76431,-2.53539c-0.13191,-0.11872 -0.19047,-0.2988 -0.15361,-0.4724c0.03686,-0.1736 0.16354,-0.31435 0.33231,-0.36923c0.16877,-0.05488 0.354,-0.01555 0.48592,0.10317l2.4,2.21539l6.93415,-7.61354c0.18285,-0.20392 0.49639,-0.221 0.70031,-0.03816c0.20392,0.18285 0.221,0.49639 0.03815,0.70031l-7.26646,7.97785c-0.08824,0.0967 -0.21136,0.15428 -0.34215,0.16l-0.032,0zm6.28184,-5.20123c1.30931,3.26765 -0.04732,6.99725 -3.15004,8.66005c-3.10273,1.6628 -6.95954,0.72714 -8.95541,-2.17257c-1.99586,-2.89971 -1.49266,-6.83636 1.16843,-9.1408c2.66109,-2.30443 6.62924,-2.23986 9.21395,0.14993l0.66215,-0.73846c-2.98393,-2.73574 -7.55716,-2.75943 -10.56927,-0.05475c-3.01211,2.70467 -3.47902,7.25407 -1.07908,10.51418c2.39994,3.26012 6.88266,4.16584 10.36007,2.09323c3.4774,-2.0726 4.81341,-6.4464 3.08766,-10.10835l-0.73846,0.79754z"/>
   </g>
  </g>
 </g>
</svg>