<svg width="24" height="24" xmlns="http://www.w3.org/2000/svg">
 <!-- Generator: Sketch 50 (54983) - http://www.bohemiancoding.com/sketch -->
 <title>icon-reject@2x</title>
 <desc>Created with Sketch.</desc>

 <g>
  <title>background</title>
  <rect fill="none" id="canvas_background" height="402" width="582" y="-1" x="-1"/>
 </g>
 <g>
  <title>Layer 1</title>
  <g fill-rule="evenodd" fill="none" id="icon-reject">
   <g stroke-width="0.5" stroke="#000000" fill-rule="nonzero" fill="#000000" id="noun_1214839">
    <path stroke="#ffffff" fill="#ffffff" id="Shape" d="m12,4c-4.413971,0 -8,3.586025 -8,8c0,4.413964 3.586029,8 8,8c4.413971,0 8,-3.586036 8,-8c0,-4.413975 -3.586029,-8 -8,-8zm0,0.727273c4.020924,0 7.272727,3.2518 7.272727,7.272727c0,4.020927 -3.251803,7.272727 -7.272727,7.272727c-4.020924,0 -7.272727,-3.2518 -7.272727,-7.272727c0,-4.020927 3.251803,-7.272727 7.272727,-7.272727zm-2.767045,4.176136c-0.141548,0.013776 -0.262077,0.108795 -0.308514,0.243216c-0.046436,0.134421 -0.010257,0.283576 0.092604,0.381784l2.471591,2.471591l-2.471591,2.465909c-0.095378,0.090708 -0.134299,0.225873 -0.101766,0.353413c0.032532,0.12754 0.131441,0.227548 0.258614,0.261488c0.127173,0.03394 0.26276,-0.003485 0.354516,-0.097856l2.471591,-2.47159l2.471591,2.47159c0.091756,0.094371 0.227343,0.131796 0.354516,0.097856c0.127173,-0.03394 0.226082,-0.133948 0.258614,-0.261488c0.032533,-0.12754 -0.006388,-0.262705 -0.101767,-0.353413l-2.47159,-2.465909l2.47159,-2.471591c0.115734,-0.108696 0.147575,-0.279908 0.078657,-0.422945c-0.068917,-0.143036 -0.222661,-0.22483 -0.379793,-0.202055c-0.08014,0.011578 -0.154123,0.04957 -0.210227,0.107955l-2.471591,2.471591l-2.471591,-2.471591c-0.077024,-0.078919 -0.185696,-0.118626 -0.295454,-0.107955z"/>
   </g>
  </g>
 </g>
</svg>