<?xml version="1.0" encoding="UTF-8"?>
<svg width="24px" height="24px" viewBox="0 0 24 24" version="1.1" xmlns="http://www.w3.org/2000/svg" xmlns:xlink="http://www.w3.org/1999/xlink">
    <!-- Generator: Sketch 50 (54983) - http://www.bohemiancoding.com/sketch -->
    <title>icon-rework@2x</title>
    <desc>Created with Sketch.</desc>
    <defs></defs>
    <g id="icon-rework" stroke="none" stroke-width="1" fill="none" fill-rule="evenodd">
        <g id="noun_1152932" transform="translate(5.000000, 3.500000)" fill="#CCCCC7" fill-rule="nonzero" stroke="#CCCCC7" stroke-width="0.25">
            <path d="M13.473871,6.88888889 C12.8634919,5.08039844 11.4922619,3.61760161 9.70967742,2.87333333 C7.92765124,2.14709904 5.92122389,2.17038606 4.15709677,2.93777778 L5.06032258,0.493333333 L4.21354839,0.184444444 L2.74580645,4.09111111 L6.5483871,5.91555556 L6.95032258,5.11111111 L4.29032258,3.85111111 C5.61806452,3.24222222 7.51032258,2.92444444 9.34387097,3.69111111 C10.8913239,4.33263236 12.0839361,5.59778046 12.6180645,7.16444444 C13.1127281,8.56132768 13.0806715,10.0866619 12.5277419,11.4622222 C11.9055621,12.8097153 10.8115103,13.8919227 9.44548387,14.5111111 C7.92815946,15.2196334 6.17455241,15.2520118 4.63129032,14.6 C2.54709677,13.7266667 1.19677419,11.8288889 1.0183871,9.52444444 L0.11516129,9.58888889 C0.313870968,12.2311111 1.86516129,14.4111111 4.26774194,15.4155556 C6.04591352,16.1676747 8.06681253,16.1312494 9.81580645,15.3155556 C11.3920898,14.6128524 12.6529483,13.3672654 13.3609677,11.8133333 C14.005435,10.2398965 14.0455704,8.4893307 13.473871,6.88888889 Z" id="Shape"></path>
        </g>
    </g>
</svg>