<svg width="24" height="24" xmlns="http://www.w3.org/2000/svg">
 <!-- Generator: Sketch 50 (54983) - http://www.bohemiancoding.com/sketch -->
 <title>icon-request-sample@2x</title>
 <desc>Created with Sketch.</desc>

 <g>
  <title>background</title>
  <rect fill="none" id="canvas_background" height="402" width="582" y="-1" x="-1"/>
 </g>
 <g>
  <title>Layer 1</title>
  <g fill-rule="evenodd" fill="none" id="icon-request-sample">
   <g stroke="#000000" fill-rule="nonzero" id="icon-request">
    <path stroke="#ffffff" stroke-width="1.5" id="Shape" d="m11.999624,22.065152l0.272903,-0.203128c0.202011,-0.150457 0.536317,-0.421426 0.962193,-0.804097c0.698315,-0.627471 1.396168,-1.339905 2.047741,-2.123404c1.826725,-2.19618 2.967539,-4.572329 2.967539,-6.934865c0,-2.362537 -1.140814,-4.738686 -2.967583,-6.934918c-0.651479,-0.783387 -1.349248,-1.495682 -2.047674,-2.123203c-0.247194,-0.222098 -0.477569,-0.418192 -0.685687,-0.586899c-0.127699,-0.103517 -0.213147,-0.169798 -0.275977,-0.216936l-0.272883,-0.202854l-0.272723,0.203128c-0.202011,0.150457 -0.536317,0.421426 -0.962193,0.804097c-0.698315,0.627471 -1.396168,1.339905 -2.047741,2.123404c-1.826725,2.19618 -2.967539,4.572329 -2.967539,6.934865c0,2.362537 1.140814,4.738686 2.967656,6.935006c0.651307,0.783422 1.349007,1.495765 2.047244,2.123115c0.425891,0.382654 0.760119,0.653499 0.962211,0.803977l0.272513,0.202712z"/>
    <path stroke="#ffffff" fill="#000000" id="Shape" d="m12.067868,15.993165l3.121366,-3.255147c0.091853,-0.095629 -0.046024,-0.239175 -0.137876,-0.143545l-2.883803,3.002186c-0.038929,0.040528 -0.070104,0.027436 -0.070104,-0.028749l0,-7.466392c0,-0.056038 -0.043684,-0.101518 -0.097508,-0.101518c-0.053825,0 -0.097508,0.04548 -0.097508,0.101518l0,7.466392c0,0.05717 -0.031385,0.069056 -0.070101,0.028749l-2.883612,-3.002186c-0.091852,-0.09563 -0.229924,0.047916 -0.137876,0.143545l3.117868,3.255147c0.037991,0.039664 0.100706,0.040096 0.139154,0zm-3.970307,2.006835c-0.053881,0 -0.097561,-0.045455 -0.097561,-0.101526c0,-0.056072 0.04368,-0.101527 0.097561,-0.101527l7.804878,0c0.053882,0 0.097561,0.045455 0.097561,0.101527c0,0.056071 -0.043679,0.101526 -0.097561,0.101526l-7.804878,0z"/>
   </g>
  </g>
 </g>
</svg>