<?xml version="1.0" encoding="UTF-8"?>
<svg width="24px" height="24px" viewBox="0 0 24 24" version="1.1" xmlns="http://www.w3.org/2000/svg" xmlns:xlink="http://www.w3.org/1999/xlink">
    <!-- Generator: Sketch 50.2 (55047) - http://www.bohemiancoding.com/sketch -->
    <title>icon-download</title>
    <desc>Created with Sketch.</desc>
    <defs></defs>
    <g id="icon-download" stroke="none" stroke-width="1" fill="none" fill-rule="evenodd">
        <path d="M12.1018014,16.1904311 L16.7838513,11.6332258 C16.9216301,11.4993444 16.7148156,11.2983803 16.5770368,11.4322616 L12.2513331,15.6353229 C12.1929385,15.6920619 12.1461758,15.6737329 12.1461758,15.5950737 L12.1461758,5.14212458 C12.1461758,5.06367181 12.0806504,5 11.9999138,5 C11.9191772,5 11.8536518,5.06367181 11.8536518,5.14212458 L11.8536518,15.5950737 C11.8536518,15.6751124 11.8065744,15.691753 11.7485015,15.6353229 L7.42308334,11.4322616 C7.28530455,11.2983803 7.07819754,11.4993444 7.21626887,11.6332258 L11.893071,16.1904311 C11.9500574,16.2459602 12.0441298,16.2465649 12.1018014,16.1904311 Z M6.14634146,19 C6.0655193,19 6,18.9363631 6,18.8578631 C6,18.779363 6.0655193,18.7157261 6.14634146,18.7157261 L17.8536585,18.7157261 C17.9344807,18.7157261 18,18.779363 18,18.8578631 C18,18.9363631 17.9344807,19 17.8536585,19 L6.14634146,19 Z" id="Shape" stroke="#000000" fill="#000000" fill-rule="nonzero"></path>
    </g>
</svg>