<?xml version="1.0" standalone="no"?>
<!DOCTYPE svg PUBLIC "-//W3C//DTD SVG 1.1//EN" "http://www.w3.org/Graphics/SVG/1.1/DTD/svg11.dtd" >
<svg xmlns="http://www.w3.org/2000/svg">
<metadata>Generated by IcoMoon</metadata>
<defs>
<font id="icomoon" horiz-adv-x="1024">
<font-face units-per-em="1024" ascent="960" descent="-64" />
<missing-glyph horiz-adv-x="1024" />
<glyph unicode="&#x20;" horiz-adv-x="512" d="" />
<glyph unicode="&#xe900;" glyph-name="iff-logo" horiz-adv-x="3296" d="M3303.392 594.304c0-5.376-4.128-9.792-9.536-9.792h-293.856c-5.12 0-9.536 4.16-9.536 9.792v67.712c-0.48 4.64-4.384 8.32-9.056 8.32h-263.072c-4.864-0.256-8.8-4.16-8.8-9.056v-106.848c0.48-4.864 4.384-8.576 9.28-8.576l173.344-0.256c4.864 0 9.28-4.384 9.28-9.536v-165.28c0-5.12-4.384-9.28-9.28-9.28l-173.344-0.256c-5.12-0.48-9.056-4.384-9.056-9.28v-106.112c1.216-2.912 3.648-5.12 7.104-5.6h179.68c5.12 0 9.28-4.384 9.28-9.536v-287.744c0-5.12-4.384-9.536-9.28-9.536h-747.84c-5.12 0-9.536 4.16-9.536 9.536v287.744c0 5.12 4.128 9.536 9.536 9.536h125.92c3.648 0.736 6.624 3.424 7.104 7.36v414.4c-0.256 4.384-4.384 8.32-9.056 8.32h-123.936c-5.12 0-9.536 4.384-9.536 9.536v272.832c0 5.376 4.128 9.792 9.536 9.792h1144.896c5.376 0 9.536-4.128 9.536-9.792v-358.4h0.224zM2033.568 952.736c0 5.376-4.384 9.792-9.536 9.792h-1144.896c-5.12 0-9.28-4.128-9.28-9.792v-272.832c0-5.12 4.16-9.536 9.28-9.536h124.192c4.64 0 8.576-3.904 8.8-8.32v-414.624c-0.48-3.904-3.424-6.368-7.104-7.36h-125.92c-5.12 0-9.28-4.384-9.28-9.536v-287.488c0-5.12 4.16-9.536 9.28-9.536h747.36c5.12 0 9.536 4.16 9.536 9.536v287.744c0 5.12-4.16 9.536-9.536 9.536h-179.68c-3.168 0.48-5.888 2.688-7.104 5.6v106.112c0 4.864 4.16 8.8 9.056 9.28l173.6 0.256c4.864 0 9.28 4.16 9.28 9.28v165.28c0 5.12-4.384 9.536-9.28 9.536l-173.344 0.256c-4.864 0-8.8 3.648-9.28 8.576v106.848c0.256 4.864 3.904 8.8 8.8 9.056h263.296c4.64 0 8.32-3.648 8.8-8.32v-67.712c0-5.376 4.384-9.792 9.536-9.792h294.112c4.864 0 9.536 4.16 9.536 9.792l-0.256 358.4 0.032-0.032zM624.864 670.336h125.152c5.12 0 9.28 4.384 9.28 9.536v272.832c0 5.376-4.16 9.792-9.28 9.792h-747.84c-5.376 0-9.536-4.128-9.536-9.792v-272.832c0-5.12 4.16-9.536 9.536-9.536h124.192c4.864 0 8.576-3.904 9.056-8.32v-414.624c-0.736-3.904-3.424-6.368-7.104-7.36h-126.176c-5.376 0-9.536-4.384-9.536-9.536v-287.488c0-5.12 4.16-9.536 9.536-9.536h747.616c5.12 0 9.28 4.16 9.28 9.536v287.744c0 5.12-4.16 9.536-9.28 9.536h-126.912c-3.168 0.48-5.6 2.688-6.848 5.6v415.36c0 4.864 3.904 8.8 8.8 9.056l0.064 0.032z" />
<glyph unicode="&#xe901;" glyph-name="projects" d="M584.793 944.95c-16.668 16.658-43.682 16.658-60.34 0-16.668-16.668-16.668-43.671 0-60.34l33.837-33.837-484.043-484.043c-99-99-99-260.039 0-359.039 49.474-49.495 114.513-74.227 179.52-74.227s130.035 24.732 179.52 74.227l484.043 484.043 33.837-33.837c8.345-8.345 19.242-12.501 30.17-12.501 10.918 0 21.825 4.157 30.17 12.501 16.658 16.668 16.658 43.671 0 60.34zM372.947 68.031c-65.716-65.716-172.644-65.716-238.359 0s-65.716 172.644 0 238.359l137.505 137.515 354.153-122.576zM693.326 388.431l-354.132 122.597 279.437 279.406 238.359-238.359z" />
<glyph unicode="&#xe902;" glyph-name="queue-assignment" d="M752 720c0 132.336-107.664 240-240 240s-240-107.664-240-240 107.664-240 240-240 240 107.664 240 240zM332 720c0 99.25 80.75 180 180 180s180-80.75 180-180-80.75-180-180-180-180 80.75-180 180zM152 58v-122h720v122c0 199.609-161.492 362-360 362s-360-162.391-360-362zM512 360c165.422 0 300-135.477 300-302v-62h-600v62c0 166.523 134.578 302 300 302zM610.789 801.211l-128.789-128.781-68.789 68.781-42.422-42.422 111.211-111.219 171.211 171.219z" />
<glyph unicode="&#xe903;" glyph-name="task-remainder" d="M998.784 732.309c-47.918 79.227-149.083 106.834-230.143 64.861-71.761 53.308-160.582 84.891-256.641 84.891-96.061 0-184.88-31.582-256.641-84.891-81.058 41.973-182.226 14.366-230.143-64.861-49.616-82.038-23.721-188.954 57.578-239.332-1.354-13.886-2.067-27.957-2.067-42.19 0-124.276 52.86-236.423 137.251-315.199l-65.015-65.015c-12.957-12.957-12.954-33.96 0-46.917 6.478-6.478 14.969-9.716 23.459-9.716s16.98 3.241 23.459 9.716l70.243 70.246c69.025-46.933 152.302-74.389 241.877-74.389s172.852 27.461 241.877 74.389l70.243-70.246c6.476-6.476 14.971-9.716 23.461-9.716 8.487 0 16.978 3.238 23.459 9.716 12.954 12.954 12.957 33.96 0 46.917l-65.015 65.015c84.392 78.776 137.251 190.923 137.251 315.199 0 14.236-0.717 28.307-2.067 42.19 81.297 50.378 107.192 157.294 57.576 239.332zM81.99 697.971c24.889 41.15 72.918 59.871 117.423 49.64-47.867-50.383-83.702-112.296-102.89-181.079-33.156 34.616-40.497 88.511-14.533 131.439zM512 85.863c-201.22 0-364.924 163.703-364.924 364.924s163.703 364.924 364.924 364.924c201.22 0 364.924-163.703 364.924-364.924s-163.703-364.924-364.924-364.924zM927.477 566.533c-19.186 68.783-55.017 130.696-102.89 181.079 44.505 10.228 92.534-8.49 117.423-49.64 25.964-42.928 18.623-96.823-14.533-131.439zM545.281 460.338v265.935c0 18.321-14.854 33.175-33.175 33.175s-33.175-14.854-33.175-33.175v-299.11c0-18.321 14.854-33.175 33.175-33.175h245.316c18.321 0 33.175 14.854 33.175 33.175s-14.854 33.175-33.175 33.175h-212.141z" />
<glyph unicode="&#xe904;" glyph-name="tasks" d="M502.656 566.592c-12.48 12.48-32.768 12.544-45.312 0.064l-105.344-105.408-41.344 41.408c-12.48 12.48-32.768 12.48-45.248 0s-12.48-32.768 0-45.248l64-64c6.208-6.272 14.4-9.408 22.592-9.408s16.384 3.136 22.656 9.344l128 128c12.48 12.48 12.48 32.768 0 45.248zM502.656 310.592c-12.48 12.48-32.768 12.544-45.312 0.064l-105.344-105.408-41.344 41.344c-12.48 12.48-32.768 12.48-45.248 0s-12.48-32.768 0-45.248l64-64c6.208-6.208 14.4-9.344 22.592-9.344s16.384 3.136 22.656 9.344l128 128c12.48 12.48 12.48 32.768 0 45.248zM736 512h-128c-17.664 0-32-14.336-32-32s14.336-32 32-32h128c17.664 0 32 14.336 32 32s-14.336 32-32 32zM736 256h-128c-17.664 0-32-14.336-32-32s14.336-32 32-32h128c17.664 0 32 14.336 32 32s-14.336 32-32 32zM832 832h-128v32c0 17.664-14.336 32-32 32h-69.44c-13.248 37.248-48.832 64-90.56 64s-77.312-26.752-90.56-64h-69.44c-17.664 0-32-14.336-32-32v-32h-128c-35.264 0-64-28.736-64-64v-768c0-35.264 28.736-64 64-64h640c35.264 0 64 28.736 64 64v768c0 35.264-28.736 64-64 64zM384 832h64c17.664 0 32 14.336 32 32s14.336 32 32 32c17.664 0 32-14.336 32-32s14.336-32 32-32h64v-64h-256v64zM832 0h-640v768h128v-32c0-17.664 14.336-32 32-32h320c17.664 0 32 14.336 32 32v32h128v-768z" />
<glyph unicode="&#xe905;" glyph-name="users" d="M1023.997 236.858c0 59.92-17.943 117.778-51.895 167.32-24.42 35.634-55.868 65.226-92.31 87.216 42.905 40.632 69.751 98.061 69.751 161.678 0 122.842-99.941 222.783-222.78 222.783-72.841 0-141.074-36.024-182.519-95.161-10.532 1.534-21.292 2.361-32.244 2.361s-21.71-0.83-32.242-2.361c-41.448 59.136-109.682 95.161-182.519 95.161-122.842 0-222.783-99.941-222.783-222.783 0-63.617 26.845-121.046 69.753-161.678-36.445-21.987-67.892-51.582-92.31-87.213-33.952-49.545-51.898-107.403-51.898-167.322v-123.917h214.764v-92.797h594.475v92.797h214.761v123.917h-0.003zM726.763 820.87c92.524 0 167.798-75.274 167.798-167.801s-75.274-167.801-167.798-167.801c-1.658 0-3.315 0.025-4.976 0.074 0.126 0.352 0.231 0.712 0.355 1.064 2.865 8.121 5.254 16.462 7.17 24.981 0.135 0.605 0.289 1.204 0.418 1.812 0.498 2.298 0.935 4.619 1.361 6.944 0.201 1.1 0.407 2.197 0.591 3.299 0.346 2.076 0.66 4.159 0.948 6.251 0.201 1.454 0.382 2.909 0.555 4.366 0.217 1.847 0.429 3.698 0.602 5.559 0.176 1.9 0.308 3.802 0.434 5.707 0.099 1.501 0.223 2.997 0.291 4.506 0.151 3.236 0.236 6.477 0.247 9.721 0 0.239 0.019 0.473 0.019 0.715 0 0.129-0.011 0.258-0.011 0.388-0.005 3.313-0.102 6.606-0.25 9.889-0.044 0.954-0.102 1.905-0.157 2.856-0.162 2.79-0.374 5.567-0.635 8.33-0.060 0.627-0.11 1.254-0.173 1.878-8.308 80.299-59.037 149.030-132.219 180.821 31.535 35.428 77.149 56.442 125.429 56.442zM453.94 717.717c0.536 0.195 1.078 0.379 1.614 0.572 1.669 0.597 3.351 1.163 5.042 1.71 1.281 0.41 2.57 0.805 3.868 1.185 0.943 0.278 1.889 0.544 2.837 0.808 1.693 0.465 3.395 0.918 5.113 1.333 12.701 3.085 25.946 4.759 39.579 4.759 13.644-0.011 26.895-1.688 39.598-4.772 1.707-0.412 3.398-0.863 5.083-1.325 0.962-0.267 1.924-0.536 2.878-0.819 1.281-0.377 2.557-0.767 3.824-1.171 1.713-0.553 3.414-1.124 5.102-1.729 0.52-0.184 1.039-0.36 1.556-0.55 56.118-20.753 98.193-70.696 107.716-131.306 0.074-0.484 0.146-0.97 0.217-1.457 0.305-2.054 0.561-4.124 0.789-6.199 0.082-0.764 0.17-1.526 0.245-2.293 0.181-1.894 0.316-3.802 0.437-5.715 0.049-0.819 0.118-1.636 0.157-2.458 0.115-2.444 0.179-4.902 0.187-7.373 0-0.214 0.014-0.423 0.014-0.638 0-0.099-0.005-0.201-0.005-0.3-0.005-2.392-0.077-4.767-0.181-7.134-0.033-0.745-0.066-1.49-0.11-2.232-0.129-2.287-0.3-4.564-0.52-6.823-0.085-0.874-0.201-1.746-0.3-2.617-0.168-1.463-0.355-2.922-0.558-4.374-0.159-1.13-0.319-2.263-0.5-3.387-0.278-1.713-0.586-3.414-0.915-5.111-0.294-1.509-0.616-3.013-0.951-4.514-0.201-0.904-0.41-1.809-0.627-2.708-0.536-2.23-1.124-4.445-1.751-6.653-0.25-0.877-0.484-1.759-0.748-2.628-0.382-1.265-0.794-2.518-1.204-3.772-0.33-1.003-0.668-2.001-1.017-2.997-0.396-1.13-0.786-2.263-1.204-3.384-0.712-1.905-1.46-3.794-2.238-5.666-0.346-0.836-0.715-1.663-1.075-2.496-0.679-1.559-1.377-3.109-2.103-4.643-0.085-0.181-0.17-0.363-0.256-0.544-0.261-0.544-0.52-1.091-0.786-1.636-0.814-1.66-1.66-3.302-2.529-4.929-0.338-0.632-0.665-1.273-1.012-1.902-0.022-0.041-0.044-0.080-0.066-0.118-0.951-1.732-1.944-3.436-2.953-5.13-0.401-0.671-0.797-1.344-1.207-2.007-1.1-1.784-2.23-3.549-3.392-5.287-0.723-1.080-1.479-2.139-2.227-3.203-0.635-0.902-1.267-1.806-1.919-2.694-0.844-1.149-1.704-2.285-2.579-3.414-0.594-0.767-1.193-1.529-1.798-2.287-0.924-1.155-1.856-2.304-2.807-3.434-0.591-0.701-1.199-1.388-1.801-2.078-0.99-1.135-1.977-2.274-2.994-3.381-0.605-0.657-1.232-1.289-1.847-1.938-1.655-1.746-3.348-3.453-5.075-5.127-1.025-0.992-2.045-1.988-3.096-2.953-0.726-0.668-1.471-1.317-2.21-1.974-1.204-1.069-2.416-2.128-3.651-3.161-0.627-0.525-1.259-1.045-1.894-1.561-1.493-1.215-3.005-2.405-4.542-3.571-0.418-0.316-0.83-0.638-1.251-0.951-27.931-20.764-62.504-33.072-99.903-33.072-37.402 0-71.98 12.311-99.911 33.080-0.412 0.308-0.816 0.624-1.226 0.935-1.542 1.168-3.063 2.367-4.561 3.588-0.63 0.514-1.259 1.028-1.88 1.551-1.24 1.039-2.455 2.103-3.665 3.175-0.734 0.654-1.476 1.298-2.199 1.963-1.053 0.968-2.076 1.966-3.104 2.958-1.735 1.68-3.431 3.392-5.091 5.144-0.608 0.641-1.229 1.265-1.825 1.913-1.020 1.111-2.007 2.252-2.997 3.387-0.602 0.69-1.207 1.375-1.798 2.076-0.954 1.13-1.883 2.279-2.807 3.431-0.605 0.759-1.207 1.52-1.801 2.29-0.871 1.127-1.732 2.263-2.576 3.412-0.652 0.891-1.287 1.798-1.922 2.702-0.748 1.061-1.501 2.117-2.221 3.194-1.168 1.746-2.304 3.516-3.406 5.306-0.404 0.657-0.794 1.32-1.19 1.982-1.025 1.718-2.029 3.445-2.994 5.201-0.355 0.646-0.69 1.303-1.039 1.952-0.869 1.633-1.718 3.28-2.535 4.943-0.291 0.591-0.575 1.188-0.858 1.781-0.044 0.091-0.085 0.181-0.126 0.272-0.762 1.605-1.49 3.227-2.202 4.863-0.338 0.778-0.682 1.553-1.006 2.334-0.797 1.913-1.559 3.843-2.287 5.79-0.393 1.050-0.756 2.111-1.127 3.17-0.382 1.086-0.751 2.18-1.111 3.277-0.388 1.188-0.778 2.375-1.141 3.568-0.542 1.784-1.053 3.579-1.534 5.386-0.338 1.267-0.643 2.546-0.954 3.821-0.242 1.003-0.476 2.007-0.698 3.016-0.275 1.237-0.553 2.471-0.8 3.714-0.382 1.935-0.731 3.882-1.045 5.839-0.17 1.056-0.319 2.114-0.47 3.17-0.223 1.564-0.423 3.137-0.602 4.715-0.088 0.778-0.19 1.556-0.269 2.334-0.228 2.318-0.401 4.652-0.533 6.994-0.038 0.674-0.069 1.347-0.099 2.021-0.113 2.504-0.192 5.017-0.192 7.546 0 2.711 0.077 5.402 0.206 8.082 0.036 0.729 0.096 1.452 0.137 2.177 0.121 2.012 0.267 4.019 0.459 6.015 0.066 0.696 0.146 1.388 0.22 2.081 0.236 2.161 0.503 4.311 0.822 6.447 0.060 0.415 0.121 0.833 0.187 1.248 9.493 60.646 51.576 110.622 107.716 131.389zM129.437 653.069c0 92.524 75.274 167.801 167.801 167.801 48.283 0 93.893-21.017 125.429-56.437-73.206-31.802-123.947-100.566-132.23-180.898-0.058-0.544-0.099-1.091-0.151-1.638-0.275-2.862-0.492-5.735-0.657-8.624-0.049-0.88-0.104-1.757-0.146-2.639-0.157-3.439-0.264-6.889-0.264-10.364 0-3.508 0.102-7.008 0.267-10.504 0.066-1.408 0.181-2.801 0.272-4.201 0.135-2.012 0.272-4.025 0.459-6.032 0.165-1.784 0.368-3.557 0.577-5.331 0.181-1.545 0.374-3.085 0.588-4.624 0.28-2.021 0.583-4.033 0.915-6.037 0.201-1.19 0.421-2.378 0.638-3.566 0.412-2.243 0.833-4.481 1.311-6.7 0.159-0.731 0.341-1.457 0.506-2.186 1.867-8.256 4.184-16.338 6.944-24.22 0.176-0.509 0.33-1.023 0.509-1.529-1.658-0.049-3.318-0.074-4.973-0.074-92.522 0.003-167.795 75.276-167.795 167.801zM260.858 302.554c-0.605-0.954-1.182-1.924-1.776-2.884-1.256-2.029-2.502-4.063-3.706-6.117-0.674-1.146-1.322-2.301-1.977-3.456-1.083-1.905-2.153-3.816-3.192-5.743-0.654-1.212-1.298-2.43-1.935-3.648-1.001-1.916-1.977-3.843-2.933-5.776-0.602-1.215-1.201-2.427-1.784-3.648-0.973-2.037-1.911-4.091-2.837-6.147-0.503-1.119-1.020-2.23-1.507-3.354-1.072-2.463-2.095-4.946-3.098-7.436-0.294-0.729-0.608-1.449-0.893-2.177-1.273-3.236-2.491-6.493-3.645-9.768-0.264-0.751-0.5-1.509-0.762-2.26-0.869-2.524-1.715-5.056-2.515-7.599-0.366-1.168-0.704-2.342-1.056-3.513-0.646-2.155-1.281-4.313-1.878-6.485-0.355-1.292-0.693-2.587-1.031-3.885-0.544-2.084-1.067-4.173-1.561-6.271-0.316-1.328-0.624-2.656-0.918-3.986-0.473-2.125-0.915-4.258-1.342-6.394-0.256-1.284-0.52-2.568-0.759-3.857-0.432-2.326-0.819-4.663-1.196-7.002-0.176-1.1-0.371-2.194-0.536-3.293-0.511-3.436-0.976-6.881-1.366-10.342-0.005-0.041-0.008-0.082-0.011-0.124-0.355-3.148-0.66-6.301-0.915-9.465h-160.746v68.934c0 94.179 54.141 178.728 138.962 218.915 30.9-16.242 66.026-25.487 103.29-25.487 10.777 0 21.586 0.797 32.313 2.375 1.671-2.383 3.37-4.742 5.13-7.057 0.594-0.778 1.21-1.537 1.814-2.307 1.737-2.221 3.5-4.418 5.32-6.57 0.745-0.882 1.509-1.746 2.268-2.617 1.704-1.957 3.436-3.89 5.207-5.784 0.929-0.998 1.875-1.979 2.821-2.961 1.619-1.669 3.26-3.313 4.929-4.932 0.627-0.608 1.218-1.251 1.85-1.853-2.389-1.443-4.756-2.922-7.101-4.432-0.382-0.245-0.756-0.503-1.135-0.751-2.345-1.523-4.665-3.079-6.964-4.665-0.794-0.55-1.586-1.105-2.378-1.66-2.048-1.443-4.074-2.911-6.084-4.404-0.635-0.473-1.278-0.935-1.908-1.413-2.557-1.933-5.083-3.901-7.577-5.913-0.544-0.44-1.078-0.893-1.622-1.339-1.985-1.625-3.95-3.277-5.891-4.954-0.753-0.649-1.501-1.303-2.249-1.96-1.944-1.713-3.863-3.45-5.762-5.212-0.495-0.459-1.001-0.91-1.493-1.375-2.331-2.194-4.627-4.429-6.889-6.702-0.588-0.591-1.163-1.193-1.746-1.787-1.732-1.768-3.445-3.555-5.135-5.366-0.671-0.72-1.342-1.441-2.007-2.169-1.902-2.078-3.777-4.184-5.622-6.32-0.289-0.335-0.588-0.66-0.877-0.998-2.103-2.455-4.159-4.957-6.188-7.483-0.566-0.704-1.119-1.419-1.677-2.131-1.526-1.938-3.030-3.896-4.509-5.872-0.572-0.764-1.146-1.523-1.71-2.293-1.935-2.639-3.846-5.3-5.702-8.008-1.993-2.909-3.923-5.853-5.803-8.819zM269.746 75.125v68.934c0 3.052 0.058 6.092 0.17 9.124 0.036 0.998 0.115 1.988 0.165 2.983 0.099 2.023 0.192 4.049 0.341 6.065 0.091 1.223 0.228 2.436 0.338 3.656 0.159 1.776 0.302 3.555 0.5 5.32 0.146 1.292 0.335 2.576 0.5 3.865 0.214 1.68 0.415 3.362 0.663 5.034 0.201 1.331 0.443 2.65 0.663 3.975 0.269 1.611 0.52 3.227 0.822 4.83 0.256 1.355 0.553 2.697 0.83 4.047 0.319 1.556 0.624 3.118 0.973 4.663 0.308 1.364 0.66 2.713 0.99 4.071 0.371 1.512 0.726 3.032 1.124 4.536 0.363 1.366 0.764 2.719 1.149 4.074 0.418 1.476 0.825 2.955 1.27 4.421 0.415 1.364 0.871 2.716 1.309 4.071 0.467 1.438 0.921 2.878 1.413 4.305 0.467 1.35 0.97 2.689 1.46 4.027 0.517 1.413 1.023 2.832 1.564 4.234 0.517 1.333 1.067 2.65 1.603 3.975 0.564 1.383 1.119 2.774 1.707 4.146 0.569 1.322 1.168 2.631 1.759 3.939 0.608 1.35 1.21 2.705 1.842 4.041 0.619 1.306 1.267 2.595 1.908 3.89 0.654 1.32 1.3 2.642 1.977 3.948 0.668 1.287 1.364 2.557 2.054 3.83 0.698 1.289 1.388 2.579 2.109 3.854 0.715 1.265 1.457 2.51 2.191 3.761 0.742 1.259 1.479 2.521 2.246 3.769 0.762 1.24 1.548 2.46 2.331 3.687 0.786 1.229 1.567 2.458 2.375 3.673s1.638 2.414 2.469 3.612c0.827 1.196 1.652 2.392 2.499 3.574 0.852 1.188 1.729 2.359 2.606 3.533 0.869 1.163 1.735 2.326 2.623 3.472 0.896 1.157 1.814 2.298 2.733 3.442 0.91 1.133 1.823 2.263 2.752 3.379 0.937 1.122 1.894 2.23 2.851 3.335 0.954 1.102 1.911 2.205 2.887 3.293s1.974 2.161 2.969 3.233c0.995 1.069 1.99 2.133 3.005 3.183 1.017 1.056 2.054 2.095 3.093 3.131 1.036 1.036 2.078 2.067 3.134 3.087 1.053 1.014 2.122 2.015 3.197 3.013 1.078 1.001 2.161 1.999 3.258 2.983 1.094 0.979 2.199 1.944 3.313 2.903 1.116 0.965 2.241 1.924 3.376 2.87 1.13 0.94 2.271 1.867 3.42 2.788 1.157 0.929 2.323 1.85 3.5 2.76 1.163 0.896 2.337 1.781 3.516 2.661 1.199 0.893 2.405 1.776 3.626 2.647 1.193 0.855 2.397 1.696 3.61 2.532 1.243 0.855 2.491 1.699 3.75 2.532 1.223 0.808 2.458 1.608 3.698 2.397 1.284 0.816 2.576 1.622 3.876 2.414 1.254 0.764 2.515 1.52 3.786 2.263 1.32 0.773 2.65 1.534 3.989 2.285 1.284 0.72 2.576 1.432 3.876 2.131 1.361 0.731 2.733 1.449 4.113 2.158 1.309 0.674 2.623 1.336 3.948 1.988 1.042 0.511 2.095 1.006 3.148 1.504 30.897-16.242 66.028-25.484 103.29-25.484 37.264 0 72.393 9.243 103.29 25.484 1.045-0.495 2.089-0.987 3.123-1.493 1.342-0.66 2.669-1.331 3.994-2.010 1.364-0.701 2.722-1.41 4.069-2.133 1.314-0.707 2.62-1.427 3.917-2.155 1.322-0.742 2.636-1.493 3.939-2.257 1.289-0.753 2.568-1.52 3.838-2.296 1.284-0.783 2.557-1.575 3.821-2.381 1.259-0.8 2.507-1.608 3.747-2.43 1.245-0.822 2.48-1.658 3.706-2.502 1.223-0.844 2.441-1.693 3.648-2.557s2.4-1.737 3.588-2.623c1.193-0.885 2.378-1.779 3.552-2.686 1.166-0.902 2.32-1.814 3.469-2.735 1.155-0.926 2.304-1.858 3.442-2.804 1.13-0.94 2.246-1.894 3.357-2.854 1.119-0.965 2.232-1.935 3.332-2.922 1.089-0.976 2.164-1.966 3.233-2.958 1.083-1.006 2.164-2.018 3.227-3.043 1.047-1.009 2.078-2.032 3.104-3.057 1.045-1.045 2.089-2.092 3.115-3.153 1.006-1.045 1.999-2.1 2.986-3.161 1.006-1.080 2.010-2.164 2.994-3.26 0.968-1.078 1.916-2.169 2.862-3.263 0.965-1.113 1.93-2.23 2.873-3.362 0.926-1.108 1.831-2.232 2.735-3.357 0.924-1.149 1.847-2.296 2.749-3.461 0.885-1.141 1.746-2.298 2.609-3.456 0.88-1.177 1.759-2.356 2.617-3.549 0.844-1.174 1.666-2.367 2.488-3.557 0.833-1.204 1.669-2.408 2.48-3.629 0.803-1.207 1.578-2.427 2.359-3.648 0.789-1.234 1.581-2.466 2.348-3.714 0.759-1.234 1.49-2.488 2.227-3.736 0.742-1.259 1.49-2.515 2.208-3.788 0.718-1.27 1.405-2.557 2.1-3.838 0.693-1.278 1.391-2.554 2.059-3.843 0.676-1.303 1.32-2.625 1.974-3.942 0.641-1.295 1.292-2.587 1.911-3.896 0.632-1.336 1.232-2.686 1.836-4.033 0.594-1.317 1.196-2.625 1.765-3.953 0.586-1.361 1.133-2.738 1.693-4.113 0.544-1.336 1.1-2.667 1.619-4.014 0.539-1.394 1.042-2.804 1.556-4.212 0.492-1.344 0.995-2.683 1.463-4.038 0.495-1.432 0.951-2.881 1.419-4.324 0.437-1.35 0.891-2.694 1.303-4.055 0.448-1.465 0.852-2.947 1.273-4.423 0.385-1.355 0.786-2.705 1.149-4.071 0.399-1.504 0.753-3.021 1.124-4.536 0.333-1.355 0.682-2.708 0.99-4.071 0.349-1.545 0.652-3.104 0.973-4.657 0.278-1.35 0.575-2.694 0.83-4.052 0.3-1.589 0.547-3.192 0.816-4.792 0.223-1.339 0.47-2.669 0.671-4.016 0.247-1.658 0.445-3.329 0.66-4.995 0.168-1.3 0.36-2.592 0.506-3.898 0.198-1.765 0.341-3.544 0.5-5.32 0.11-1.221 0.247-2.433 0.338-3.656 0.151-2.015 0.242-4.044 0.341-6.070 0.049-0.992 0.129-1.982 0.165-2.977 0.113-3.032 0.17-6.073 0.17-9.124v-68.937h-484.502zM808.282 167.924c-0.539 6.697-1.314 13.352-2.298 19.967-0.157 1.047-0.344 2.087-0.511 3.131-0.382 2.394-0.781 4.783-1.223 7.164-0.234 1.254-0.489 2.502-0.74 3.753-0.432 2.175-0.882 4.344-1.364 6.504-0.291 1.303-0.594 2.606-0.902 3.904-0.503 2.122-1.031 4.236-1.581 6.345-0.333 1.278-0.665 2.554-1.017 3.83-0.602 2.194-1.245 4.377-1.9 6.557-0.346 1.149-0.676 2.301-1.036 3.447-0.811 2.581-1.669 5.149-2.551 7.711-0.247 0.715-0.473 1.438-0.726 2.153-1.16 3.285-2.378 6.551-3.656 9.798-0.275 0.696-0.575 1.383-0.855 2.078-1.014 2.521-2.054 5.036-3.139 7.533-0.481 1.108-0.99 2.202-1.485 3.304-0.935 2.078-1.88 4.148-2.865 6.205-0.575 1.204-1.168 2.4-1.759 3.596-0.965 1.952-1.952 3.896-2.961 5.828-0.632 1.21-1.267 2.414-1.916 3.615-1.045 1.933-2.117 3.852-3.205 5.765-0.654 1.149-1.3 2.298-1.968 3.439-1.21 2.065-2.46 4.107-3.725 6.147-0.588 0.951-1.16 1.911-1.759 2.854-1.883 2.966-3.813 5.911-5.809 8.822-1.858 2.711-3.769 5.372-5.704 8.011-0.561 0.764-1.133 1.52-1.699 2.279-1.487 1.988-2.997 3.95-4.528 5.897-0.553 0.701-1.1 1.41-1.66 2.106-2.032 2.535-4.096 5.042-6.205 7.502-0.275 0.319-0.558 0.63-0.833 0.948-1.858 2.153-3.75 4.275-5.666 6.37-0.66 0.72-1.322 1.432-1.988 2.147-1.699 1.823-3.423 3.623-5.166 5.399-0.575 0.586-1.138 1.177-1.718 1.757-2.268 2.276-4.572 4.52-6.909 6.719-0.481 0.454-0.976 0.893-1.46 1.344-1.911 1.773-3.841 3.519-5.792 5.24-0.742 0.654-1.49 1.303-2.238 1.952-1.946 1.68-3.912 3.332-5.9 4.959-0.542 0.443-1.072 0.896-1.616 1.336-2.491 2.012-5.017 3.981-7.571 5.911-0.638 0.481-1.287 0.948-1.927 1.424-2.001 1.485-4.016 2.947-6.056 4.382-0.8 0.564-1.6 1.124-2.403 1.68-2.276 1.57-4.572 3.109-6.892 4.616-0.407 0.264-0.805 0.539-1.212 0.8-2.342 1.504-4.701 2.98-7.087 4.421 0.616 0.586 1.193 1.21 1.801 1.803 1.704 1.649 3.379 3.326 5.028 5.031 0.921 0.951 1.836 1.905 2.738 2.873 1.801 1.924 3.555 3.887 5.287 5.875 0.737 0.844 1.476 1.682 2.199 2.54 1.845 2.183 3.637 4.412 5.399 6.669 0.577 0.737 1.168 1.463 1.735 2.208 1.768 2.323 3.475 4.693 5.155 7.084 10.727-1.575 21.537-2.372 32.313-2.372 37.264 0 72.393 9.243 103.29 25.487 84.824-40.187 138.962-124.736 138.962-218.915v-68.931h-160.724z" />
<glyph unicode="&#xe906;" glyph-name="right-arrow" d="M785.44 502.368l-431.68 431.68c-16.224 16.224-38.944 25.952-58.432 25.952s-38.944-9.728-55.168-25.952c-32.448-32.448-32.448-77.888 0-110.368l376.48-376.48-376.48-376.48c-32.448-32.448-32.448-77.888 0-110.336s81.152-32.448 113.6 0l431.68 431.68c16.224 16.224 22.72 35.712 22.72 55.168 0 22.72-6.496 38.944-22.72 55.168z" />
<glyph unicode="&#xe907;" glyph-name="close" d="M602.56 448l402.688 402.688c25.024 24.992 25.024 65.568 0 90.56s-65.536 25.024-90.56 0l-402.688-402.688-402.688 402.688c-25.024 25.024-65.536 25.024-90.56 0s-25.024-65.568 0-90.56l402.688-402.688-402.688-402.688c-25.024-24.992-25.024-65.568 0-90.56 12.512-12.48 28.896-18.752 45.28-18.752s32.768 6.24 45.28 18.752l402.688 402.688 402.688-402.688c12.512-12.512 28.896-18.752 45.28-18.752s32.768 6.24 45.28 18.752c25.024 24.992 25.024 65.568 0 90.56l-402.688 402.656z" />
<glyph unicode="&#xe908;" glyph-name="arrow-up" d="M10.24 210.976l51.296-51.296c6.848-6.848 14.72-10.272 23.616-10.272s16.736 3.424 23.584 10.272l403.264 403.232 403.232-403.232c6.848-6.848 14.72-10.272 23.616-10.272s16.768 3.424 23.616 10.272l51.296 51.296c6.848 6.848 10.272 14.72 10.272 23.616s-3.424 16.768-10.272 23.584l-478.144 478.144c-6.848 6.848-14.72 10.272-23.616 10.272s-16.736-3.424-23.584-10.272l-478.176-478.144c-6.848-6.848-10.24-14.72-10.24-23.584s3.392-16.768 10.24-23.616z" />
<glyph unicode="&#xe909;" glyph-name="arrow-down" d="M1013.76 685.024l-51.296 51.296c-6.848 6.848-14.72 10.272-23.616 10.272s-16.736-3.424-23.584-10.272l-403.264-403.232-403.232 403.232c-6.848 6.848-14.72 10.272-23.616 10.272s-16.768-3.424-23.616-10.272l-51.296-51.296c-6.848-6.848-10.272-14.72-10.272-23.616s3.424-16.768 10.272-23.584l478.144-478.144c6.848-6.848 14.72-10.272 23.616-10.272s16.736 3.424 23.584 10.272l478.176 478.144c6.848 6.848 10.24 14.72 10.24 23.584s-3.392 16.768-10.24 23.616z" />
<glyph unicode="&#xe90a;" glyph-name="filter" d="M968.954 960h-912.924c-16.112 0.030-30.873-8.964-38.234-23.289-7.462-14.518-6.152-32 3.381-45.259l334.457-471.157c0.112-0.162 0.234-0.315 0.345-0.477 12.152-16.406 18.731-36.284 18.761-56.701v-384.132c-0.071-11.371 4.396-22.305 12.406-30.376 8.020-8.061 18.924-12.609 30.294-12.609 5.777 0.010 11.503 1.157 16.843 3.381l187.939 71.655c16.832 5.147 28.010 21.036 28.010 40.162v311.919c0.030 20.416 6.609 40.294 18.751 56.701 0.112 0.162 0.234 0.315 0.345 0.477l334.467 471.167c9.533 13.249 10.843 30.721 3.381 45.239-7.35 14.335-22.122 23.33-38.223 23.299z" />
<glyph unicode="&#xe90b;" glyph-name="enter" d="M921.6 358.4v-51.2h-512v-256l-307.2 307.2 307.2 307.2v-256h409.6v460.8h102.4z" />
<glyph unicode="&#xe90c;" glyph-name="menu-collapse" d="M43.882 733.362h936.236c24.264 0 43.882 19.876 43.882 43.882s-19.618 43.882-43.882 43.882h-936.236c-24.264 0-43.882-19.876-43.882-43.882s19.876-43.882 43.882-43.882zM327.825 404.247h652.293c24.264 0 43.882 19.618 43.882 43.882s-19.618 43.882-43.882 43.882h-652.293c-24.006 0-43.882-19.618-43.882-43.882s19.876-43.882 43.882-43.882zM43.882 75.132h936.236c24.264 0 43.882 19.618 43.882 43.882s-19.618 43.882-43.882 43.882h-936.236c-24.264 0-43.882-19.618-43.882-43.882s19.876-43.882 43.882-43.882zM5.937 448.387l210.892 210.892v-421.784l-210.892 210.892z" />
<glyph unicode="&#xe90d;" glyph-name="Add-Icon" d="M981.333 533.333h-362.667c-12.8 0-21.333 8.533-21.333 21.333v362.667c0 25.6-17.067 42.667-42.667 42.667h-85.333c-25.6 0-42.667-17.067-42.667-42.667v-362.667c0-12.8-8.533-21.333-21.333-21.333h-362.667c-25.6 0-42.667-17.067-42.667-42.667v-85.333c0-25.6 17.067-42.667 42.667-42.667h362.667c12.8 0 21.333-8.533 21.333-21.333v-362.667c0-25.6 17.067-42.667 42.667-42.667h85.333c25.6 0 42.667 17.067 42.667 42.667v362.667c0 12.8 8.533 21.333 21.333 21.333h362.667c25.6 0 42.667 17.067 42.667 42.667v85.333c0 25.6-17.067 42.667-42.667 42.667z" />
<glyph unicode="&#xe90e;" glyph-name="menu-expand" d="M43.882 733.362h936.236c24.264 0 43.882 19.876 43.882 43.882s-19.618 43.882-43.882 43.882h-936.236c-24.264 0-43.882-19.876-43.882-43.882s19.876-43.882 43.882-43.882zM327.825 404.247h652.293c24.264 0 43.882 19.618 43.882 43.882s-19.618 43.882-43.882 43.882h-652.293c-24.006 0-43.882-19.618-43.882-43.882s19.876-43.882 43.882-43.882zM43.882 75.132h936.236c24.264 0 43.882 19.618 43.882 43.882s-19.618 43.882-43.882 43.882h-936.236c-24.264 0-43.882-19.618-43.882-43.882s19.876-43.882 43.882-43.882zM5.937 237.753v421.526l210.892-210.892-210.892-210.634z" />
<glyph unicode="&#xe90f;" glyph-name="new" d="M1013.547 470.461l-97.086 85.992 41.094 123.047c2.727 8.141 1.82 17.063-2.469 24.5-4.297 7.438-11.57 12.68-19.984 14.398l-127.055 25.914-25.906 127.109c-1.719 8.414-6.961 15.695-14.398 19.984-7.438 4.297-16.367 5.195-24.508 2.469l-122.977-41.102-85.969 97.109c-5.688 6.43-13.867 10.117-22.461 10.117s-16.773-3.688-22.461-10.117l-85.961-97.117-122.977 41.109c-8.148 2.727-17.070 1.828-24.516-2.469-7.438-4.297-12.68-11.578-14.391-19.992l-25.906-127.109-127.055-25.914c-8.414-1.711-15.695-6.953-19.984-14.391-4.297-7.438-5.195-16.359-2.477-24.508l41.102-123.039-97.094-85.992c-6.43-5.695-10.109-13.875-10.109-22.461s3.68-16.766 10.109-22.461l97.086-85.992-41.094-123.047c-2.727-8.141-1.82-17.063 2.469-24.5 4.297-7.438 11.57-12.68 19.984-14.398l127.055-25.914 25.906-127.109c1.719-8.414 6.961-15.695 14.398-19.984 7.438-4.297 16.367-5.195 24.508-2.469l122.977 41.102 85.961-97.109c5.695-6.43 13.875-10.117 22.469-10.117s16.773 3.688 22.461 10.117l85.961 97.117 122.977-41.109c8.148-2.727 17.078-1.828 24.516 2.469s12.68 11.578 14.391 19.992l25.906 127.109 127.055 25.914c8.414 1.711 15.695 6.953 19.984 14.391 4.297 7.438 5.195 16.359 2.477 24.508l-41.102 123.039 97.086 86c6.43 5.688 10.109 13.867 10.109 22.453 0 8.594-3.672 16.766-10.102 22.461zM861.828 371.312c-9-7.977-12.375-20.555-8.563-31.961l36.648-109.727-113.297-23.109c-11.789-2.398-21-11.617-23.406-23.398l-23.094-113.344-109.664 36.656c-11.406 3.813-24 0.438-31.977-8.57l-76.648-86.594-76.648 86.594c-5.797 6.547-14.023 10.117-22.469 10.117-3.18 0-6.383-0.508-9.508-1.547l-109.656-36.656-23.102 113.344c-2.406 11.789-11.617 21-23.406 23.406l-113.297 23.102 36.648 109.727c3.813 11.406 0.438 23.984-8.563 31.961l-86.586 76.688 86.586 76.688c9 7.977 12.375 20.555 8.563 31.961l-36.648 109.727 113.297 23.109c11.789 2.398 21 11.617 23.406 23.398l23.094 113.344 109.664-36.656c11.406-3.813 24-0.438 31.977 8.57l76.648 86.594 76.648-86.594c7.977-9.008 20.563-12.383 31.977-8.57l109.656 36.656 23.102-113.344c2.406-11.781 11.617-21 23.406-23.398l113.297-23.109-36.648-109.727c-3.813-11.406-0.445-23.984 8.563-31.961l86.578-76.688zM365.742 557.781c-16.563 0-30-13.438-30-30v-51.719l-40.273 67.148c-6.938 11.563-20.742 17.070-33.734 13.477s-21.992-15.422-21.992-28.906v-160.063c0-16.563 13.438-30 30-30 16.57 0 30 13.438 30 30v51.719l40.273-67.148c5.523-9.195 15.383-14.57 25.727-14.57 2.656 0 5.352 0.359 8.008 1.094 12.992 3.594 21.992 15.422 21.992 28.906v160.063c0 16.563-13.43 30-30 30zM544.414 497.781c16.563 0 30 13.43 30 30 0 16.563-13.438 30-30 30h-88c-16.57 0-30-13.438-30-30v-160.063c0-16.563 13.43-30 30-30h88c16.563 0 30 13.438 30 30 0 16.57-13.438 30-30 30h-58v21.031h16.328c16.57 0 30 13.43 30 30s-13.43 30-30 30h-16.328v19.031zM758.648 557.898c-16.367 2.625-31.75-8.523-34.359-24.883l-7.547-47.234c-4.891 10.492-15.461 17.313-27.188 17.313-0.008 0-0.023 0-0.031 0-11.984-0.016-22.742-7.148-27.477-18.031l-7.984 48.125c-2.711 16.352-18.172 27.406-34.508 24.688-16.344-2.719-27.398-18.164-24.688-34.508l26.656-160.555c2.227-13.445 13.242-23.703 26.82-24.961 13.555-1.258 26.281 6.781 30.953 19.594l10.352 28.367 10.445-28.43c4.367-11.898 15.68-19.664 28.141-19.664 0.969 0 1.945 0.047 2.914 0.148 13.594 1.313 24.578 11.641 26.727 25.125l25.656 160.555c2.617 16.359-8.523 31.742-24.883 34.352z" />
<glyph unicode="&#xe910;" glyph-name="Assigned" d="M752 720c0 132.336-107.664 240-240 240s-240-107.664-240-240 107.664-240 240-240 240 107.664 240 240zM332 720c0 99.25 80.75 180 180 180s180-80.75 180-180-80.75-180-180-180-180 80.75-180 180zM152 58v-122h720v122c0 199.609-161.492 362-360 362s-360-162.391-360-362zM512 360c165.422 0 300-135.477 300-302v-62h-600v62c0 166.523 134.578 302 300 302zM610.789 801.211l-128.789-128.781-68.789 68.781-42.422-42.422 111.211-111.219 171.211 171.219z" />
<glyph unicode="&#xe911;" glyph-name="complete" d="M994.72 820.010c-15.064 15.090-39.506 15.116-54.57 0.064l-462.986-461.764-167.044 181.426c-14.434 15.668-38.838 16.684-54.532 2.252-15.682-14.434-16.686-38.85-2.252-54.532l194.252-210.962c7.114-7.732 17.070-12.222 27.568-12.44 0.282-0.012 0.554-0.012 0.824-0.012 10.202 0 20.016 4.052 27.246 11.256l491.418 490.13c15.102 15.050 15.128 39.492 0.076 54.582zM985.406 486.594c-21.316 0-38.592-17.276-38.592-38.594 0-239.766-195.048-434.814-434.814-434.814-239.752 0-434.814 195.048-434.814 434.814 0 239.752 195.062 434.814 434.814 434.814 21.316 0 38.594 17.276 38.594 38.592 0 21.318-17.278 38.594-38.594 38.594-282.32 0-512-229.68-512-512 0-282.308 229.68-512 512-512 282.308 0 512 229.692 512 512 0 21.316-17.276 38.594-38.594 38.594z" />
<glyph unicode="&#xe912;" glyph-name="In-Progress" d="M615.437 27.319c-8.444-2.104-17.053-3.973-25.598-5.547-22.338-4.154-37.106-25.637-32.974-47.995 2.041-10.999 8.288-20.161 16.769-26.141 8.741-6.152 19.866-8.93 31.202-6.822 10.176 1.889 20.432 4.11 30.495 6.621 22.058 5.49 35.497 27.836 29.994 49.884-5.49 22.067-27.817 35.494-49.888 30zM919.854 579.088c2.884-8.69 8.389-15.785 15.342-20.687 10.31-7.262 23.802-9.705 36.676-5.448 21.585 7.167 33.28 30.443 26.139 52.017-3.253 9.835-6.863 19.701-10.709 29.307-8.444 21.11-32.389 31.387-53.509 22.943-21.099-8.439-31.38-32.391-22.93-53.507 3.231-8.074 6.258-16.362 8.99-24.625zM749.202 86.093c-7.262-4.794-14.757-9.434-22.307-13.782-19.699-11.363-26.445-36.542-15.087-56.232 3.084-5.356 7.191-9.734 11.922-13.080 12.699-8.935 29.945-10.273 44.304-2.001 8.977 5.177 17.902 10.685 26.551 16.403 18.961 12.527 24.18 38.068 11.647 57.038-12.531 18.977-38.061 24.189-57.029 11.653zM1023.608 464.115c-0.896 22.721-20.033 40.405-42.761 39.518-22.699-0.896-40.396-20.040-39.505-42.752 0.341-8.684 0.429-17.497 0.229-26.172-0.319-14.248 6.65-26.949 17.48-34.583 6.452-4.543 14.281-7.293 22.771-7.486 22.721-0.504 41.55 17.517 42.054 40.249 0.227 10.365 0.141 20.867-0.269 31.226zM913.136 194.386c-18.219 13.669-43.995 9.958-57.641-8.228-5.226-6.965-10.729-13.843-16.364-20.467-14.726-17.301-12.646-43.289 4.656-58.026 0.986-0.836 1.983-1.605 3.018-2.327 17.2-12.126 41.105-9.34 55.012 6.98 6.729 7.902 13.289 16.119 19.533 24.438 13.647 18.186 9.954 43.98-8.215 57.63zM973.647 343.194c-21.693 6.802-44.794-5.274-51.592-26.967-2.602-8.288-5.485-16.615-8.598-24.77-6.835-17.953-0.286-37.707 14.726-48.292 2.754-1.935 5.787-3.575 9.082-4.821 21.239-8.105 45.023 2.551 53.119 23.799 3.696 9.696 7.125 19.604 10.227 29.457 6.791 21.697-5.276 44.792-26.965 51.594zM435.836 21.402c-36.804 6.608-72.109 17.861-105.587 33.555-0.396 0.207-0.751 0.442-1.167 0.632-7.889 3.713-15.765 7.691-23.399 11.847-0.026 0.031-0.075 0.051-0.117 0.068-14.006 7.713-27.676 16.247-40.956 25.596-193.644 136.409-240.204 404.929-103.787 598.571 29.663 42.091 65.561 77.207 105.581 105.039 0.493 0.343 0.986 0.685 1.475 1.030 141.025 97.17 332.514 103.719 482.26 3.868l-32.162-46.47c-8.941-12.934-3.44-22.36 12.212-20.951l139.704 12.507c15.673 1.409 25.045 14.966 20.83 30.101l-37.515 135.167c-4.2 15.153-14.953 16.967-23.903 4.035l-32.237-46.58c-109.893 73.769-241.699 101.898-372.523 79.213-13.176-2.28-26.168-5.072-38.981-8.321-0.099-0.018-0.178-0.029-0.258-0.046-0.495-0.121-0.997-0.282-1.479-0.416-112.812-28.97-211.239-94.766-281.472-188.643-0.592-0.702-1.202-1.389-1.761-2.153-2.335-3.146-4.653-6.364-6.923-9.582-3.711-5.274-7.37-10.68-10.87-16.086-0.438-0.652-0.773-1.314-1.156-1.972-57.958-89.811-85.913-193.642-81.119-299.348 0.011-0.348-0.009-0.698 0-1.054 0.464-10.326 1.283-20.795 2.395-31.101 0.059-0.665 0.207-1.294 0.319-1.959 1.149-10.363 2.591-20.751 4.398-31.136 18.367-105.962 68.352-201.311 143.252-275.503 0.174-0.174 0.354-0.363 0.53-0.544 0.062-0.068 0.13-0.103 0.189-0.167 20.123-19.848 42.012-38.206 65.58-54.806 61.678-43.461 130.357-72.188 204.115-85.424 22.38-4.022 43.758 10.876 47.773 33.245 4.013 22.384-10.872 43.78-33.245 47.788zM486.739 776.864c-18.409 0-33.32-14.924-33.32-33.306v-331.825l303.48-156.882c4.884-2.529 10.115-3.72 15.261-3.72 12.054 0 23.696 6.564 29.615 18.017 8.442 16.346 2.054 36.428-14.292 44.869l-267.462 138.275v291.265c-0.002 18.382-14.896 33.306-33.282 33.306z" />
<glyph unicode="&#xe913;" glyph-name="task" d="M1019.369 327.987c-8.291 12.159-24.868 15.297-37.023 7.006l-290.303-197.93-64.474 86.289c-6.762 9.022-18.793 13.192-30.079 9.434-14.113-4.697-21.748-19.945-17.051-34.058l52.767-158.572c1.994-5.894 5.247-11.721 9.66-16.648 17.459-19.502 47.423-21.164 66.929-3.705l305.338 273.318c9.82 8.778 11.858 23.689 4.236 34.865zM532.683 115.070h-479.508v720.031h702.040v-553.12c0-14.681 11.907-26.587 26.587-26.587s26.587 11.907 26.587 26.587v579.707c0 14.681-11.907 26.587-26.587 26.587h-755.215c-14.681 0-26.587-11.907-26.587-26.587v-773.206c0-14.681 11.907-26.587 26.587-26.587h506.095c14.681 0 26.587 11.907 26.587 26.587 0 14.685-11.907 26.587-26.587 26.587zM619.016 721.356h-429.648c-14.681 0-26.587-11.907-26.587-26.587s11.907-26.587 26.587-26.587h429.648c14.681 0 26.587 11.907 26.587 26.587s-11.902 26.587-26.587 26.587zM619.016 606.432h-429.648c-14.681 0-26.587-11.907-26.587-26.587s11.907-26.587 26.587-26.587h429.648c14.681 0 26.587 11.907 26.587 26.587s-11.902 26.587-26.587 26.587zM619.016 491.508h-429.648c-14.681 0-26.587-11.907-26.587-26.587s11.907-26.587 26.587-26.587h429.648c14.681 0 26.587 11.907 26.587 26.587s-11.902 26.587-26.587 26.587zM645.604 350.001c0 14.681-11.907 26.587-26.587 26.587h-429.648c-14.681 0-26.587-11.907-26.587-26.587s11.907-26.587 26.587-26.587h429.648c14.685 0 26.587 11.902 26.587 26.587zM189.369 267.27c-14.681 0-26.587-11.907-26.587-26.587s11.907-26.587 26.587-26.587h214.822c14.681 0 26.587 11.907 26.587 26.587s-11.907 26.587-26.587 26.587h-214.822z" />
<glyph unicode="&#xe914;" glyph-name="In-Progress-bar" d="M389.926-64v0c-53.615 0-97.482 43.867-97.482 97.482v323.905c0 53.615 43.867 97.482 97.482 97.482v0c53.615 0 97.482-43.867 97.482-97.482v-323.905c0-53.615-43.867-97.482-97.482-97.482zM633.63-64v0c-53.615 0-97.482 43.867-97.482 97.482v501.144c0 53.615 43.867 97.482 97.482 97.482v0c53.615 0 97.482-43.867 97.482-97.482v-501.144c0-53.615-43.867-97.482-97.482-97.482z" />
<glyph unicode="&#xe915;" glyph-name="assigned" d="M999.908 349.414l-83.894 167.786c-4.362 276.306-256.222 489.182-539.934 434.060-177.582-34.5-319.066-177.338-352.060-355.432-23.228-125.374 4.66-250.070 78.528-351.124 60.302-82.496 93.514-181.472 93.516-278.704 0-16.568 13.432-30 30-30h420.004c16.568 0 30 13.432 30 30v78.402c0 8.602 6.998 15.6 15.6 15.6h134.402c49.626 0 90.002 40.374 90.002 90.002v90.002h16.216c26.394 0 50.434 13.404 64.31 35.856 13.876 22.45 15.112 49.946 3.31 73.552zM945.558 307.402c-1.376-2.224-5.42-7.398-13.27-7.398h-46.218c-16.568 0-30-13.432-30-30v-120.002c0-16.542-13.458-30-30-30h-134.402c-41.686 0-75.6-33.914-75.6-75.6v-48.402h-360.926c-6.12 100-42.558 199.848-104.158 284.112-64.018 87.582-88.16 195.822-67.968 304.786 28.542 154.064 150.916 277.622 304.506 307.464 246.248 47.84 468.548-137.636 468.548-382.354 0-4.658 1.084-9.25 3.166-13.416l87.002-174.010c3.514-7.022 0.696-12.956-0.68-15.18zM466.064 780.010c-148.88 0-270.004-121.124-270.004-270.004s121.124-270.004 270.004-270.004 270.004 121.124 270.004 270.004-121.122 270.004-270.004 270.004zM466.064 300.004c-115.796 0-210.002 94.208-210.002 210.002s94.208 210.002 210.002 210.002 210.002-94.208 210.002-210.002-94.206-210.002-210.002-210.002zM607.276 591.22c-11.712 11.718-30.708 11.718-42.422 0l-128.79-128.788-68.788 68.786c-11.714 11.716-30.71 11.716-42.426 0s-11.716-30.71 0-42.426l90.002-90.002c5.858-5.858 13.536-8.788 21.212-8.788s15.356 2.928 21.212 8.788l150.002 150.002c11.714 11.718 11.714 30.712-0.002 42.428z" />
<glyph unicode="&#xe916;" glyph-name="completed-bar" d="M279.152-64v0c-53.615 0-97.482 43.867-97.482 97.482v323.905c0 53.615 43.867 97.482 97.482 97.482v0c53.615 0 97.482-43.867 97.482-97.482v-323.905c0-53.615-43.867-97.482-97.482-97.482zM522.856-64v0c-53.615 0-97.482 43.867-97.482 97.482v501.144c0 53.615 43.867 97.482 97.482 97.482v0c53.615 0 97.482-43.867 97.482-97.482v-501.144c0-53.615-43.867-97.482-97.482-97.482zM757.698-55.138v0c-53.615 0-97.482 43.867-97.482 97.482v634.074c0 53.615 43.867 97.482 97.482 97.482v0c53.615 0 97.482-43.867 97.482-97.482v-634.074c0-53.615-43.867-97.482-97.482-97.482z" />
<glyph unicode="&#xe917;" glyph-name="cancelled" d="M311.055 115.012h-257.883v720.035h701.868v-287.128c0-14.622 11.964-26.586 26.586-26.586s26.586 11.964 26.586 26.586v313.714c0 14.622-11.964 26.586-26.586 26.586h-755.039c-14.622 0-26.586-11.964-26.586-26.586v-773.206c0-14.622 11.964-26.586 26.586-26.586h284.469c14.622 0 26.586 11.964 26.586 26.586s-11.964 26.586-26.586 26.586zM619.008 721.17h-429.805c-14.622 0-26.586-11.964-26.586-26.586s11.964-26.586 26.586-26.586h429.805c14.622 0 26.586 11.964 26.586 26.586s-11.964 26.586-26.586 26.586zM339.856 606.408h-150.653c-14.622 0-26.586-11.964-26.586-26.586s11.964-26.586 26.586-26.586h150.653c14.622 0 26.586 11.964 26.586 26.586s-11.964 26.586-26.586 26.586zM255.668 491.645h-66.465c-14.622 0-26.586-11.964-26.586-26.586s11.964-26.586 26.586-26.586h66.465c14.622 0 26.586 11.964 26.586 26.586s-11.964 26.586-26.586 26.586zM260.099 349.854c0 14.622-11.964 26.586-26.586 26.586h-44.31c-14.622 0-26.586-11.964-26.586-26.586s11.964-26.586 26.586-26.586h44.31c14.622 0 26.586 11.964 26.586 26.586zM189.203 267.437c-14.622 0-26.586-11.964-26.586-26.586s11.964-26.586 26.586-26.586h50.956c14.622 0 26.586 11.964 26.586 26.586s-11.964 26.586-26.586 26.586h-50.956zM734.214 526.65c-105.014 105.014-276.493 105.014-381.508 0-50.956-50.956-78.871-118.75-78.871-190.975s27.915-140.019 78.871-190.975c52.729-52.729 121.852-78.871 190.975-78.871s138.247 26.143 190.975 78.871c104.571 105.457 104.571 276.493-0.443 381.951zM704.526 174.387c-89.063-89.063-233.513-89.063-322.576 0-42.981 42.981-66.908 100.14-66.908 161.288 0 60.704 23.927 118.307 66.908 161.288 89.063 89.063 233.513 89.063 322.576 0s89.063-233.513 0-322.576zM633.187 278.072l-59.375 58.932 59.375 58.932c7.976 7.976 7.976 21.269 0 29.688-7.976 7.976-21.269 7.976-29.688 0l-59.375-58.932-59.375 58.932c-7.976 7.976-21.269 7.976-29.688 0-7.976-7.976-7.976-21.269 0-29.688l59.375-58.932-59.375-58.932c-7.976-7.976-7.976-21.269 0-29.688 3.988-3.988 9.305-6.203 14.622-6.203s10.634 2.215 14.622 6.203l59.375 58.932 59.375-58.932c3.988-3.988 9.305-6.203 14.622-6.203s10.634 2.215 14.622 6.203c9.305 8.419 9.305 21.269 0.886 29.688z" />
<glyph unicode="&#xe918;" glyph-name="approved" d="M311.055 115.012h-257.883v720.035h701.868v-21.269c0-14.622 11.964-26.586 26.586-26.586s26.586 11.964 26.586 26.586v47.855c0 14.622-11.964 26.586-26.586 26.586h-755.039c-14.622 0-26.586-11.964-26.586-26.586v-773.206c0-14.622 11.964-26.586 26.586-26.586h284.469c14.622 0 26.586 11.964 26.586 26.586s-11.964 26.586-26.586 26.586zM579.129 721.17h-389.926c-14.622 0-26.586-11.964-26.586-26.586s11.964-26.586 26.586-26.586h389.926c14.622 0 26.586 11.964 26.586 26.586s-11.964 26.586-26.586 26.586zM650.025 606.408h-460.822c-14.622 0-26.586-11.964-26.586-26.586s11.964-26.586 26.586-26.586h460.822c14.622 0 26.586 11.964 26.586 26.586s-11.964 26.586-26.586 26.586zM366.442 491.645h-177.239c-14.622 0-26.586-11.964-26.586-26.586s11.964-26.586 26.586-26.586h177.239c14.622 0 26.586 11.964 26.586 26.586s-11.964 26.586-26.586 26.586zM393.028 349.854c0 14.622-11.964 26.586-26.586 26.586h-177.239c-14.622 0-26.586-11.964-26.586-26.586s11.964-26.586 26.586-26.586h177.239c14.622 0 26.586 11.964 26.586 26.586zM189.203 267.437c-14.622 0-26.586-11.964-26.586-26.586s11.964-26.586 26.586-26.586h179.455c14.622 0 26.586 11.964 26.586 26.586s-11.964 26.586-26.586 26.586h-179.455zM1011.593 330.357c9.748 10.634 15.508 25.257 15.508 40.765 0 33.675-27.472 61.148-61.148 61.148h-118.75c11.521 35.448 16.838 82.859 16.838 103.242v20.383c0 44.753-36.334 81.53-81.53 81.53h-20.383c-9.305 0-17.281-6.203-19.939-15.508l-11.077-44.31c-15.508-62.034-64.692-130.714-116.092-143.121-8.862 22.598-31.017 38.55-56.717 38.55h-121.409c-11.077 0-20.383-9.305-20.383-20.383v-366.442c0-11.077 9.305-20.383 20.383-20.383h122.295c24.37 0 45.196 14.179 54.944 35.005l70.010-23.484c23.041-7.533 46.525-11.521 70.896-11.521h170.593c33.675 0 61.148 27.472 61.148 61.148 0 7.976-1.329 15.508-4.431 22.598 25.7 7.090 45.196 31.017 45.196 58.932 0 15.508-5.76 29.688-15.508 40.765 9.748 10.634 15.508 25.257 15.508 40.765-0.443 15.065-6.203 29.688-15.952 40.322zM579.129 126.975c0-11.077-9.305-20.383-20.383-20.383h-101.913v325.677h101.913c11.077 0 20.383-9.305 20.383-20.383v-284.912zM925.189 309.975h40.765c11.077 0 20.383-9.305 20.383-20.383s-9.305-20.383-20.383-20.383h-40.765c-11.077 0-20.383-9.305-20.383-20.383s9.305-20.383 20.383-20.383h40.765c11.077 0 20.383-9.305 20.383-20.383s-9.305-20.383-20.383-20.383h-40.765c-11.077 0-20.383-9.305-20.383-20.383s9.305-20.383 20.383-20.383c11.077 0 20.383-9.305 20.383-20.383s-9.305-20.383-20.383-20.383h-170.593c-19.939 0-39.436 3.102-58.046 9.305l-76.656 25.7v251.68c31.903 6.203 63.363 26.143 91.278 59.375 27.472 32.346 50.070 75.327 59.818 114.762l7.090 28.801h4.431c22.598 0 40.765-18.167 40.765-40.765v-20.383c0-27.472-8.419-79.758-19.496-103.242h-41.651c-11.077 0-20.383-9.305-20.383-20.383s9.305-20.383 20.383-20.383h203.825c11.077 0 20.383-9.305 20.383-20.383s-9.305-20.383-20.383-20.383h-40.765c-11.077 0-20.383-9.305-20.383-20.383 0-10.191 9.305-19.496 20.383-19.496zM538.807 167.74c0-11.257-9.126-20.383-20.383-20.383s-20.383 9.126-20.383 20.383c0 11.257 9.126 20.383 20.383 20.383s20.383-9.126 20.383-20.383zM803.337 760.606c-11.077 0-20.383-9.305-20.383-20.383v-42.094c0-11.077 9.305-20.383 20.383-20.383s20.383 9.305 20.383 20.383v42.094c0 11.077-9.305 20.383-20.383 20.383zM716.933 670.657l-28.801 28.801c-7.976 7.976-20.826 7.976-28.801 0s-7.976-20.826 0-28.801l28.801-28.801c7.976-7.976 20.826-7.976 28.801 0s7.976 20.826 0 28.801zM947.344 699.458c-7.976 7.976-20.826 7.976-28.801 0l-28.801-28.801c-7.976-7.976-7.976-20.826 0-28.801s20.826-7.976 28.801 0l28.801 28.801c7.976 7.976 7.976 20.826 0 28.801z" />
<glyph unicode="&#xe919;" glyph-name="chart-gantt" d="M1024 24.446v-55.853h-1024v958.814h55.853v-902.974l968.144 0.012zM767.995 863.176h-637.661v-62.838h637.661v62.838zM563.2 748.215h-339.768v-62.836h339.771v62.836zM512 591.125h339.768v62.836h-339.768v-62.836zM523.63 455.431h-339.771v-62.838h339.771v62.838zM523.63 284.368v62.833h-204.787v-62.833h204.787zM737.742 204.084v62.843h-197.827v-62.843h197.827zM752.854 124.96h197.832v62.833h-197.832v-62.833z" />
<glyph unicode="&#xe91a;" glyph-name="data-flow" d="M895.455 358.734c-40.803-180.689-202.36-316.19-395.226-316.19-156.764 0-292.73 89.597-360.167 220.125-13.727-3.897-27.885-6.648-42.821-6.648-27.24 0-52.479 7.586-74.891 19.76 70.803-195.751 257.998-336.31 477.88-336.31 253.328 0 463.381 186.398 501.691 429.156-20.401-9.664-42.95-15.502-66.969-15.502-13.725 0-26.779 2.315-39.496 5.609zM113.554 569.883c51.874 164.188 205.583 283.565 386.678 283.565 151.865 0 284.267-83.978 353.724-207.863 23.759 14.324 51.27 23.079 81 23.079 8.186 0 16.032-1.197 23.894-2.407-81.877 171.329-256.362 290.272-458.62 290.272-249.98 0-457.947-181.46-500.23-419.463 26.916 21.249 60.402 34.464 97.241 34.464 5.576 0 10.874-1.074 16.313-1.648zM97.241 324.739c30.94 0 58.115 15.835 74.085 39.799h160.933l68.615-189.185c7.141-19.659 25.436-33.041 46.336-33.918 0.709-0.033 1.409-0.033 2.147-0.033 20.037 0 38.384 11.674 46.776 30.033l163.205 355.1 25.573-40.708c9.527-15.126 26.771-25.26 44.116-24.121l131.099 1.241c15.835-24.663 43.355-41.102 74.827-41.102 49.193 0 89.047 39.895 89.047 89.057 0 49.193-39.853 89.045-89.047 89.045-28.219 0-53.080-13.382-69.396-33.847l-108.676-1.041-60.9 97.040c-10.069 16.001-28.323 25.258-46.974 24.019-18.929-1.243-35.61-12.717-43.49-29.925l-150.591-327.594-38.083 105.060c-7.409 20.369-26.737 33.964-48.451 33.964h-200.68c-16.242 21.265-41.605 35.194-70.469 35.194-49.183 0-89.049-39.864-89.049-89.016 0-49.127 39.866-89.061 89.049-89.061z" />
<glyph unicode="&#xe91b;" glyph-name="star-outline" d="M18.112 511.36c82.912-76 170.464-146.272 265.792-206.048-31.424-106.72-65.696-212.48-102.4-317.536-6.72-19.232 6.272-32.544 21.824-35.52 7.776-4.736 17.696-5.312 27.808 1.92 92.128 65.792 186.784 128 279.968 192.32 94.24-69.248 186.336-141.28 285.024-204.224 21.856-13.952 42.464 4.928 43.744 24.992 1.088 4.384 1.28 9.216-0.064 14.56-26.048 106.016-56.672 210.432-103.712 308.96 101.216 64.672 183.104 153.536 277.536 227.328 17.728 13.824 10.4 33.856-4.64 43.392-4.768 6.144-12.16 10.368-22.336 10.368h-317.984c-42.496 106.912-85.888 213.44-120.416 323.264-10.272 32.704-57.376 23.488-58.72-5.216-49.536-105.696-94.976-212.928-121.44-326.816-113.152 0.704-226.24 5.44-339.392 5.792-34.4 0.096-37.856-47.552-10.592-57.568zM382.752 503.456c2.624 0 5.024 0.32 7.296 0.832 13.184-1.92 26.816 4.064 30.336 21.024 20.288 97.376 55.264 189.312 95.456 279.552 31.648-90.208 67.776-178.752 103.008-267.648 0.096-0.288 0.288-0.48 0.416-0.768 2.144-12.736 11.552-24.032 28.288-24.032h266.496c-73.664-63.968-143.392-132.576-227.936-182.56-6.272-3.712-10.24-8.576-12.384-13.888-5.312-8.16-6.944-18.752-1.248-29.792 41.12-80.16 69.088-165.12 92.416-251.648-79.328 54.56-155.456 113.536-233.184 170.4-2.208 1.6-4.416 2.752-6.592 3.648-8.032 5.6-18.56 6.816-29.376-0.704-76.16-52.864-153.44-104.096-229.664-156.832 28.352 84.192 55.104 168.864 80 254.144 3.968 13.632-1.376 24.32-10.176 30.592-2.016 5.664-5.92 10.912-12.416 14.912-75.584 46.592-145.792 100.032-212.672 157.792 90.688-1.6 181.344-4.736 272.032-4.992z" />
<glyph unicode="&#xe91c;" glyph-name="star" d="M536.192 898.816l130.24-308.288 333.472-28.64c23.136-1.984 32.544-30.848 14.976-46.048l-252.928-219.136 75.808-326.016c5.248-22.656-19.296-40.48-39.168-28.448l-286.592 172.832-286.592-172.832c-19.936-12-44.416 5.824-39.168 28.448l75.808 326.016-252.992 219.2c-17.568 15.2-8.192 44.064 14.976 46.048l333.472 28.64 130.24 308.224c9.056 21.44 39.36 21.44 48.416 0z" />
<glyph unicode="&#xe91d;" glyph-name="delete" d="M989.385 758.304l-310.266-310.298 310.266-310.283c46.15-46.168 46.15-120.954 0-167.122-23.059-23.059-53.291-34.597-83.508-34.597-30.267 0-60.502 11.521-83.544 34.597l-310.333 310.318-310.31-310.316c-23.056-23.059-53.291-34.597-83.535-34.597-30.235 0-60.449 11.521-83.526 34.597-46.15 46.148-46.15 120.937 0 167.122l310.257 310.283-310.274 310.295c-46.15 46.15-46.15 120.954 0 167.105 46.142 46.115 120.901 46.115 167.061 0l310.324-310.298 310.301 310.298c46.168 46.115 120.937 46.115 167.069 0 46.168-46.15 46.168-120.954 0.018-167.105z" />
<glyph unicode="&#xe91f;" glyph-name="search" d="M990 27.6l-235.6 235.6c58.4 71.2 93.6 162.4 93.6 261.8 0 228-185 413-413 413-228.2 0-413-185-413-413s184.8-413 413-413c99.4 0 190.4 35 261.6 93.4l235.6-235.4c16-16 41.8-16 57.8 0 16 15.8 16 41.8 0 57.6zM435 194.2c-182.6 0-331 148.4-331 330.8s148.4 331 331 331c182.4 0 331-148.6 331-331s-148.6-330.8-331-330.8z" />
</font>
</defs>
</svg>
